STARTFONT 2.1
FONT -FontForge-Nimbus Sans L-Bold-R-Normal--120-1150-75-75-P-749-ISO10646-1
SIZE 115 75 75
FONTBOUNDINGBOX 146 168 -18 -39
COMMENT "Generated by fontforge, http://fontforge.sourceforge.net"
COMMENT "Copyright (URW)++,Copyright 2014 by (URW)++ Design & Development"
STARTPROPERTIES 40
FOUNDRY "FontForge"
FAMILY_NAME "Nimbus Sans L"
WEIGHT_NAME "Bold"
SLANT "R"
SETWIDTH_NAME "Normal"
ADD_STYLE_NAME ""
PIXEL_SIZE 120
POINT_SIZE 1150
RESOLUTION_X 75
RESOLUTION_Y 75
SPACING "P"
AVERAGE_WIDTH 749
CHARSET_REGISTRY "ISO10646"
CHARSET_ENCODING "1"
FONTNAME_REGISTRY ""
CHARSET_COLLECTIONS "ASCII ISOLatin1Encoding ISO8859-2 ISO8859-5 ISO8859-7 ISO8859-9 ISO8859-4 ISO10646-1"
FONT_NAME "NimbusSanL-Bol"
FACE_NAME "Nimbus Sans L Bold"
COPYRIGHT "Copyright (URW)++,Copyright 2014 by (URW)++ Design & Development"
FONT_VERSION "1.00"
FONT_ASCENT 87
FONT_DESCENT 33
UNDERLINE_POSITION -19
UNDERLINE_THICKNESS 9
X_HEIGHT 65
CAP_HEIGHT 87
RAW_ASCENT 729
RAW_DESCENT 271
NORM_SPACE 33
RELATIVE_WEIGHT 70
RELATIVE_SETWIDTH 50
SUPERSCRIPT_X 0
SUPERSCRIPT_Y 42
SUPERSCRIPT_SIZE 72
SUBSCRIPT_X 0
SUBSCRIPT_Y 9
SUBSCRIPT_SIZE 72
FIGURE_WIDTH 67
AVG_LOWERCASE_WIDTH 677
AVG_UPPERCASE_WIDTH 837
ENDPROPERTIES
CHARS 759
STARTCHAR space
ENCODING 32
SWIDTH 278 0
DWIDTH 33 0
BBX 1 1 0 0
BITMAP
00
ENDCHAR
STARTCHAR exclam
ENCODING 33
SWIDTH 333 0
DWIDTH 40 0
BBX 18 87 13 -1
BITMAP
FFFFC0
FFFFC0
FFFFC0
FFFFC0
FFFFC0
FFFFC0
FFFFC0
FFFFC0
FFFFC0
FFFFC0
FFFFC0
FFFFC0
FFFFC0
FFFFC0
FFFFC0
FFFFC0
FFFFC0
FFFFC0
FFFFC0
FFFFC0
FFFFC0
FFFFC0
FFFFC0
FFFFC0
FFFFC0
FFFFC0
7FFFC0
7FFFC0
7FFFC0
7FFFC0
7FFFC0
7FFFC0
7FFF80
3FFF80
3FFF80
3FFF80
3FFF80
3FFF80
3FFF80
3FFF00
3FFF00
1FFF00
1FFF00
1FFF00
1FFF00
1FFF00
1FFF00
1FFE00
0FFE00
0FFE00
0FFE00
0FFE00
0FFE00
0FFE00
0FFC00
0FFC00
07FC00
07FC00
07FC00
07FC00
07FC00
07F800
000000
000000
000000
000000
000000
000000
000000
FFFFC0
FFFFC0
FFFFC0
FFFFC0
FFFFC0
FFFFC0
FFFFC0
FFFFC0
FFFFC0
FFFFC0
FFFFC0
FFFFC0
FFFFC0
FFFFC0
FFFFC0
FFFFC0
FFFFC0
FFFFC0
ENDCHAR
STARTCHAR quotedbl
ENCODING 34
SWIDTH 474 0
DWIDTH 57 0
BBX 45 31 6 57
BITMAP
FFFF800FFFF8
FFFF800FFFF8
FFFF800FFFF8
FFFF800FFFF8
FFFF800FFFF8
FFFF800FFFF8
FFFF800FFFF8
FFFF800FFFF8
FFFF800FFFF8
FFFF800FFFF8
FFFF800FFFF8
FFFF800FFFF8
FFFF800FFFF8
FFFF800FFFF8
FFFF800FFFF8
FFFF800FFFF8
FFFF0007FFF8
7FFF0007FFF0
7FFF0007FFF0
7FFE0003FFF0
7FFE0003FFE0
3FFE0003FFE0
3FFC0003FFE0
3FFC0001FFC0
1FFC0001FFC0
1FF80001FFC0
1FF80000FF80
0FF80000FF80
0FF00000FF80
0FF000007F00
07F000007F00
ENDCHAR
STARTCHAR numbersign
ENCODING 35
SWIDTH 556 0
DWIDTH 67 0
BBX 66 87 0 -3
BITMAP
000003FFE001FFF000
000003FFC001FFE000
000003FFC001FFE000
000007FFC003FFE000
000007FFC003FFE000
000007FFC003FFE000
000007FF8003FFC000
000007FF8003FFC000
00000FFF8007FFC000
00000FFF8007FFC000
00000FFF8007FFC000
00000FFF0007FF8000
00000FFF0007FF8000
00001FFF000FFF8000
00001FFF000FFF8000
00001FFF000FFF8000
00001FFF000FFF0000
00001FFE000FFF0000
00003FFE001FFF0000
00003FFE001FFF0000
00003FFE001FFF0000
0FFFFFFFFFFFFFFFC0
0FFFFFFFFFFFFFFFC0
0FFFFFFFFFFFFFFFC0
0FFFFFFFFFFFFFFFC0
0FFFFFFFFFFFFFFFC0
0FFFFFFFFFFFFFFFC0
0FFFFFFFFFFFFFFFC0
0FFFFFFFFFFFFFFFC0
0FFFFFFFFFFFFFFFC0
0FFFFFFFFFFFFFFFC0
0FFFFFFFFFFFFFFFC0
0FFFFFFFFFFFFFFFC0
0001FFF000FFF80000
0001FFF000FFF80000
0001FFF000FFF80000
0001FFE000FFF80000
0001FFE000FFF00000
0003FFE001FFF00000
0003FFE001FFF00000
0003FFE001FFF00000
0003FFE001FFF00000
0003FFC001FFE00000
0007FFC003FFE00000
0007FFC003FFE00000
0007FFC003FFE00000
0007FFC003FFC00000
0007FF8003FFC00000
0007FF8007FFC00000
000FFF8007FFC00000
000FFF8007FFC00000
FFFFFFFFFFFFFFFC00
FFFFFFFFFFFFFFFC00
FFFFFFFFFFFFFFFC00
FFFFFFFFFFFFFFFC00
FFFFFFFFFFFFFFFC00
FFFFFFFFFFFFFFFC00
FFFFFFFFFFFFFFFC00
FFFFFFFFFFFFFFFC00
FFFFFFFFFFFFFFFC00
FFFFFFFFFFFFFFFC00
FFFFFFFFFFFFFFFC00
FFFFFFFFFFFFFFFC00
007FFC001FFE000000
007FFC003FFE000000
007FFC003FFE000000
007FFC003FFE000000
007FF8003FFC000000
007FF8003FFC000000
00FFF8007FFC000000
00FFF8007FFC000000
00FFF8007FFC000000
00FFF0007FF8000000
00FFF0007FF8000000
01FFF000FFF8000000
01FFF000FFF8000000
01FFF000FFF8000000
01FFE000FFF0000000
01FFE000FFF0000000
03FFE001FFF0000000
03FFE001FFF0000000
03FFE001FFF0000000
03FFC001FFE0000000
03FFC001FFE0000000
07FFC003FFE0000000
07FFC003FFE0000000
07FFC003FFE0000000
ENDCHAR
STARTCHAR dollar
ENCODING 36
SWIDTH 556 0
DWIDTH 67 0
BBX 60 107 3 -16
BITMAP
0000003FC0000000
0000003FC0000000
0000003FC0000000
0000003FC0000000
0000003FC0000000
0000003FC0000000
0000003FC0000000
000003FFFE000000
00003FFFFFE00000
0001FFFFFFF80000
0007FFFFFFFE0000
000FFFFFFFFF8000
003FFFFFFFFFC000
007FFFFFFFFFE000
00FFFFFFFFFFF000
01FFFFFFFFFFF800
03FFFFFFFFFFFC00
07FFFFFFFFFFFE00
07FFFFFFFFFFFF00
0FFFFF3FCFFFFF00
0FFFFC3FC3FFFF00
1FFFF03FC0FFFF80
1FFFE03FC07FFF80
1FFFC03FC03FFFC0
3FFFC03FC03FFFC0
3FFF803FC01FFFC0
3FFF803FC01FFFC0
3FFF803FC01FFFE0
3FFF803FC01FFFE0
3FFF003FC00FFFE0
3FFF003FC00FFFE0
3FFF003FC00FFFE0
3FFF803FC0000000
3FFF803FC0000000
3FFF803FC0000000
3FFFC03FC0000000
3FFFE03FC0000000
3FFFF03FC0000000
1FFFF83FC0000000
1FFFFE3FC0000000
0FFFFFBFC0000000
0FFFFFFFC0000000
07FFFFFFC0000000
07FFFFFFE0000000
03FFFFFFFE000000
01FFFFFFFFC00000
01FFFFFFFFF00000
00FFFFFFFFFC0000
007FFFFFFFFF0000
001FFFFFFFFFC000
000FFFFFFFFFE000
0003FFFFFFFFF800
0000FFFFFFFFFC00
00003FFFFFFFFE00
00000FFFFFFFFF00
000001FFFFFFFF00
0000003FFFFFFF80
0000003FFFFFFFC0
0000003FDFFFFFC0
0000003FC3FFFFE0
0000003FC1FFFFE0
0000003FC07FFFE0
0000003FC03FFFF0
0000003FC03FFFF0
0000003FC01FFFF0
0000003FC00FFFF0
0000003FC00FFFF0
FFFE003FC00FFFF0
FFFE003FC00FFFF0
FFFF003FC00FFFF0
FFFF003FC00FFFF0
FFFF003FC00FFFF0
FFFF003FC00FFFF0
FFFF003FC00FFFF0
FFFF803FC00FFFF0
7FFF803FC01FFFE0
7FFFC03FC01FFFE0
7FFFE03FC03FFFE0
3FFFF03FC07FFFE0
3FFFF83FC1FFFFC0
3FFFFC3FC3FFFFC0
1FFFFFBFDFFFFF80
0FFFFFFFFFFFFF80
0FFFFFFFFFFFFF00
07FFFFFFFFFFFE00
03FFFFFFFFFFFE00
01FFFFFFFFFFFC00
00FFFFFFFFFFF800
007FFFFFFFFFE000
001FFFFFFFFFC000
000FFFFFFFFF0000
0003FFFFFFFC0000
00007FFFFFF00000
00000FFFFF000000
0000007FE0000000
0000003FC0000000
0000003FC0000000
0000003FC0000000
0000003FC0000000
0000003FC0000000
0000003FC0000000
0000003FC0000000
0000003FC0000000
0000003FC0000000
0000003FC0000000
0000003FC0000000
0000003FC0000000
ENDCHAR
STARTCHAR percent
ENCODING 37
SWIDTH 889 0
DWIDTH 107 0
BBX 101 88 3 -2
BITMAP
000000000000000007FE000000
00007FE00000000007FC000000
0003FFFC000000000FFC000000
001FFFFF000000000FF8000000
003FFFFFC00000001FF0000000
00FFFFFFE00000001FF0000000
01FFFFFFF00000003FE0000000
03FFFFFFF80000003FE0000000
07FFFFFFFC0000007FC0000000
0FFFFFFFFE0000007FC0000000
1FFFFFFFFF000000FF80000000
1FFFFFFFFF800000FF80000000
3FFFFFFFFF800001FF00000000
3FFFC07FFFC00003FF00000000
7FFF001FFFC00003FE00000000
7FFE0007FFC00007FE00000000
7FFC0003FFE00007FC00000000
FFF80003FFE0000FF800000000
FFF80001FFE0000FF800000000
FFF00001FFE0001FF000000000
FFF00000FFF0001FF000000000
FFF00000FFF0003FE000000000
FFF00000FFF0003FE000000000
FFF00000FFF0007FC000000000
FFF00000FFF000FFC000000000
FFF00000FFF000FF8000000000
FFF00001FFF001FF8000000000
FFF80001FFE001FF0000000000
FFF80003FFE003FF0000000000
7FFC0007FFE003FE0000000000
7FFE000FFFC007FC0000000000
7FFF001FFFC007FC0000000000
3FFFE07FFFC00FF80000000000
3FFFFFFFFF800FF80000000000
1FFFFFFFFF001FF00000000000
0FFFFFFFFF001FF00000000000
0FFFFFFFFE003FE00000000000
07FFFFFFFC007FE00000000000
03FFFFFFF8007FC00000000000
01FFFFFFF000FFC00000000000
007FFFFFE000FF800000000000
003FFFFF8001FF800000000000
000FFFFF0001FF000000000000
0003FFF80003FE00003FC00000
00003F800003FE0001FFFC0000
000000000007FC000FFFFF0000
000000000007FC001FFFFFC000
00000000000FF8007FFFFFF000
00000000000FF800FFFFFFF800
00000000001FF001FFFFFFFC00
00000000003FF003FFFFFFFE00
00000000003FE007FFFFFFFF00
00000000007FE00FFFFFFFFF00
00000000007FC00FFFFFFFFF80
0000000000FF801FFFFFFFFFC0
0000000000FF801FFFE03FFFC0
0000000001FF003FFF800FFFE0
0000000001FF003FFF0007FFE0
0000000003FE007FFE0003FFE0
0000000003FE007FFC0001FFF0
0000000007FC007FFC0001FFF0
000000000FFC007FF80000FFF0
000000000FF8007FF80000FFF0
000000001FF800FFF00000FFF0
000000001FF000FFF000007FF0
000000003FF000FFF000007FF8
000000003FE000FFF000007FF8
000000007FC000FFF00000FFF0
000000007FC0007FF80000FFF0
00000000FF80007FF80000FFF0
00000000FF80007FF80001FFF0
00000001FF00007FFC0001FFF0
00000001FF00007FFE0003FFF0
00000003FE00003FFF0007FFE0
00000007FE00003FFF800FFFE0
00000007FC00001FFFE03FFFC0
0000000FFC00001FFFFFFFFFC0
0000000FF800000FFFFFFFFF80
0000001FF800000FFFFFFFFF80
0000001FF0000007FFFFFFFF00
0000003FE0000003FFFFFFFE00
0000003FE0000001FFFFFFFC00
0000007FC0000000FFFFFFF800
0000007FC00000007FFFFFF000
000000FF800000001FFFFFC000
000000FF800000000FFFFF8000
000001FF0000000003FFFE0000
000003FF00000000003FE00000
ENDCHAR
STARTCHAR ampersand
ENCODING 38
SWIDTH 722 0
DWIDTH 87 0
BBX 76 90 7 -3
BITMAP
0000003FF80000000000
000003FFFF0000000000
00000FFFFFE000000000
00003FFFFFF800000000
00007FFFFFFC00000000
0001FFFFFFFE00000000
0003FFFFFFFF00000000
0007FFFFFFFF80000000
000FFFFFFFFFC0000000
000FFFFFFFFFC0000000
001FFFFFFFFFE0000000
001FFFFFFFFFE0000000
003FFFFFFFFFF0000000
003FFFF83FFFF0000000
007FFFE00FFFF0000000
007FFFC007FFF0000000
007FFF8007FFF8000000
007FFF8003FFF8000000
007FFF0003FFF8000000
007FFF0003FFF8000000
007FFF8003FFF8000000
007FFF8003FFF0000000
007FFF8003FFF0000000
007FFFC003FFF0000000
007FFFC007FFF0000000
007FFFE007FFF0000000
003FFFF00FFFE0000000
003FFFF81FFFE0000000
001FFFF83FFFC0000000
001FFFFC7FFFC0000000
000FFFFFFFFF80000000
0007FFFFFFFF00000000
0007FFFFFFFF00000000
0003FFFFFFFE00000000
0001FFFFFFFC00000000
0000FFFFFFF000000000
00007FFFFFE000000000
00007FFFFFC000000000
00003FFFFF8000000000
00007FFFFE0000000000
0001FFFFFE0000000000
0003FFFFFF0000000000
000FFFFFFF8000F00000
001FFFFFFF8000FFFC00
007FFFFFFFC000FFFC00
00FFFFFFFFE000FFFC00
01FFFFFFFFF000FFFC00
03FFFFFFFFF800FFFC00
07FFFFFFFFF800FFF800
0FFFFF9FFFFC01FFF800
1FFFFF0FFFFE01FFF800
1FFFFC0FFFFF01FFF800
3FFFF007FFFF81FFF800
3FFFE003FFFF83FFF800
7FFFC001FFFFC3FFF000
7FFF8000FFFFE7FFF000
FFFF8000FFFFF7FFF000
FFFF00007FFFFFFFF000
FFFF00003FFFFFFFE000
FFFF00001FFFFFFFE000
FFFF00000FFFFFFFE000
FFFF00000FFFFFFFC000
FFFF000007FFFFFFC000
FFFF000003FFFFFF8000
FFFF000001FFFFFF8000
FFFF000000FFFFFF0000
FFFF000000FFFFFF0000
FFFF8000007FFFFE0000
FFFF8000003FFFFC0000
FFFFC000001FFFFC0000
FFFFC000007FFFFC0000
7FFFE00000FFFFFE0000
7FFFF00003FFFFFF0000
7FFFF8000FFFFFFF8000
3FFFFE003FFFFFFF8000
3FFFFF80FFFFFFFFC000
3FFFFFFFFFFFFFFFE000
1FFFFFFFFFFFFFFFF000
0FFFFFFFFFFFFFFFF800
0FFFFFFFFFFFFFFFF800
07FFFFFFFFFFFFFFFC00
03FFFFFFFFFFCFFFFE00
01FFFFFFFFFF87FFFF00
00FFFFFFFFFE03FFFF80
007FFFFFFFFC03FFFF80
001FFFFFFFF001FFFFC0
000FFFFFFFC000FFFFE0
0001FFFFFF00007FFFF0
00003FFFFC0000000000
000003FFC00000000000
ENDCHAR
STARTCHAR quotesingle
ENCODING 39
SWIDTH 238 0
DWIDTH 29 0
BBX 17 31 6 57
BITMAP
FFFF80
FFFF80
FFFF80
FFFF80
FFFF80
FFFF80
FFFF80
FFFF80
FFFF80
FFFF80
FFFF80
FFFF80
FFFF80
FFFF80
FFFF80
FFFF80
FFFF00
7FFF00
7FFF00
7FFE00
7FFE00
3FFE00
3FFC00
3FFC00
1FFC00
1FF800
1FF800
0FF800
0FF000
0FF000
07F000
ENDCHAR
STARTCHAR parenleft
ENCODING 40
SWIDTH 333 0
DWIDTH 40 0
BBX 31 111 5 -23
BITMAP
00001FFE
00003FFE
00003FFC
00007FFC
0000FFF8
0000FFF8
0001FFF0
0001FFF0
0003FFE0
0007FFE0
0007FFC0
000FFFC0
000FFF80
001FFF80
001FFF00
003FFF00
003FFE00
007FFE00
007FFE00
00FFFC00
00FFFC00
01FFF800
01FFF800
03FFF800
03FFF000
03FFF000
07FFE000
07FFE000
0FFFE000
0FFFC000
0FFFC000
1FFFC000
1FFFC000
1FFF8000
1FFF8000
3FFF8000
3FFF8000
3FFF0000
3FFF0000
7FFF0000
7FFF0000
7FFF0000
7FFE0000
7FFE0000
FFFE0000
FFFE0000
FFFE0000
FFFE0000
FFFE0000
FFFE0000
FFFE0000
FFFE0000
FFFE0000
FFFE0000
FFFE0000
FFFE0000
FFFE0000
FFFE0000
FFFE0000
FFFE0000
FFFE0000
FFFE0000
FFFE0000
FFFE0000
FFFE0000
FFFE0000
FFFE0000
7FFE0000
7FFE0000
7FFE0000
7FFF0000
7FFF0000
7FFF0000
3FFF0000
3FFF0000
3FFF8000
3FFF8000
1FFF8000
1FFF8000
1FFFC000
0FFFC000
0FFFC000
0FFFE000
07FFE000
07FFE000
07FFF000
03FFF000
03FFF000
01FFF800
01FFF800
01FFF800
00FFFC00
00FFFC00
007FFE00
007FFE00
003FFF00
003FFF00
001FFF00
001FFF80
000FFF80
0007FFC0
0007FFC0
0003FFE0
0003FFE0
0001FFF0
0000FFF0
0000FFF8
00007FF8
00007FFC
00003FFC
00001FFE
ENDCHAR
STARTCHAR parenright
ENCODING 41
SWIDTH 333 0
DWIDTH 40 0
BBX 31 111 3 -23
BITMAP
FFF00000
FFF80000
7FF80000
7FFC0000
3FFC0000
3FFE0000
1FFF0000
1FFF0000
0FFF8000
0FFF8000
07FFC000
07FFE000
03FFE000
03FFF000
01FFF000
01FFF800
00FFF800
00FFFC00
00FFFC00
007FFE00
007FFE00
003FFF00
003FFF00
003FFF80
001FFF80
001FFF80
000FFFC0
000FFFC0
000FFFC0
0007FFE0
0007FFE0
0007FFE0
0007FFF0
0003FFF0
0003FFF0
0003FFF8
0003FFF8
0001FFF8
0001FFF8
0001FFFC
0001FFFC
0001FFFC
0000FFFC
0000FFFC
0000FFFC
0000FFFE
0000FFFE
0000FFFE
0000FFFE
0000FFFE
0000FFFE
0000FFFE
0000FFFE
0000FFFE
0000FFFE
0000FFFE
0000FFFE
0000FFFE
0000FFFE
0000FFFE
0000FFFE
0000FFFE
0000FFFE
0000FFFE
0000FFFE
0000FFFE
0000FFFC
0000FFFC
0000FFFC
0001FFFC
0001FFFC
0001FFFC
0001FFF8
0001FFF8
0003FFF8
0003FFF8
0003FFF8
0003FFF0
0007FFF0
0007FFF0
0007FFE0
0007FFE0
000FFFE0
000FFFC0
000FFFC0
001FFFC0
001FFF80
001FFF80
003FFF00
003FFF00
007FFE00
007FFE00
007FFE00
00FFFC00
00FFFC00
01FFF800
01FFF800
03FFF000
03FFE000
07FFE000
07FFC000
07FFC000
0FFF8000
0FFF8000
1FFF0000
1FFE0000
3FFE0000
3FFC0000
7FFC0000
7FF80000
FFF00000
ENDCHAR
STARTCHAR asterisk
ENCODING 42
SWIDTH 389 0
DWIDTH 47 0
BBX 40 39 3 49
BITMAP
0001FF0000
0001FF0000
0001FF0000
0001FF0000
0001FF0000
0001FF0000
0001FF0000
0001FF0000
0001FF0000
0001FF0000
3801FF0038
3F01FF01FC
7FE1FF0FFC
7FFDFF7FFC
7FFFFFFFFE
7FFFFFFFFE
FFFFFFFFFE
FFFFFFFFFF
3FFFFFFFFC
07FFFFFFE0
00FFFFFF00
001FFFF800
000FFFE000
000FFFF000
001FFFF000
003FFFF800
003FFFFC00
007FFFFE00
00FFE7FE00
00FFC7FF00
01FFC3FF80
03FF81FF80
07FF01FFC0
07FE00FFE0
03FE007F80
01FC003F00
0078003E00
0030001800
0010000000
ENDCHAR
STARTCHAR plus
ENCODING 43
SWIDTH 584 0
DWIDTH 70 0
BBX 58 58 6 -1
BITMAP
000003FFF0000000
000003FFF0000000
000003FFF0000000
000003FFF0000000
000003FFF0000000
000003FFF0000000
000003FFF0000000
000003FFF0000000
000003FFF0000000
000003FFF0000000
000003FFF0000000
000003FFF0000000
000003FFF0000000
000003FFF0000000
000003FFF0000000
000003FFF0000000
000003FFF0000000
000003FFF0000000
000003FFF0000000
000003FFF0000000
000003FFF0000000
000003FFF0000000
FFFFFFFFFFFFFFC0
FFFFFFFFFFFFFFC0
FFFFFFFFFFFFFFC0
FFFFFFFFFFFFFFC0
FFFFFFFFFFFFFFC0
FFFFFFFFFFFFFFC0
FFFFFFFFFFFFFFC0
FFFFFFFFFFFFFFC0
FFFFFFFFFFFFFFC0
FFFFFFFFFFFFFFC0
FFFFFFFFFFFFFFC0
FFFFFFFFFFFFFFC0
FFFFFFFFFFFFFFC0
FFFFFFFFFFFFFFC0
000003FFF0000000
000003FFF0000000
000003FFF0000000
000003FFF0000000
000003FFF0000000
000003FFF0000000
000003FFF0000000
000003FFF0000000
000003FFF0000000
000003FFF0000000
000003FFF0000000
000003FFF0000000
000003FFF0000000
000003FFF0000000
000003FFF0000000
000003FFF0000000
000003FFF0000000
000003FFF0000000
000003FFF0000000
000003FFF0000000
000003FFF0000000
000003FFF0000000
ENDCHAR
STARTCHAR comma
ENCODING 44
SWIDTH 278 0
DWIDTH 33 0
BBX 18 39 8 -22
BITMAP
FFFFC0
FFFFC0
FFFFC0
FFFFC0
FFFFC0
FFFFC0
FFFFC0
FFFFC0
FFFFC0
FFFFC0
FFFFC0
FFFFC0
FFFFC0
FFFFC0
FFFFC0
FFFFC0
FFFFC0
FFFFC0
003FC0
003FC0
003FC0
003FC0
003F80
007F80
007F80
007F80
00FF80
00FF00
01FF00
03FE00
0FFE00
3FFC00
FFF800
FFF000
FFE000
FFC000
FF0000
FC0000
C00000
ENDCHAR
STARTCHAR hyphen
ENCODING 45
SWIDTH 333 0
DWIDTH 40 0
BBX 33 16 3 25
BITMAP
FFFFFFFF80
FFFFFFFF80
FFFFFFFF80
FFFFFFFF80
FFFFFFFF80
FFFFFFFF80
FFFFFFFF80
FFFFFFFF80
FFFFFFFF80
FFFFFFFF80
FFFFFFFF80
FFFFFFFF80
FFFFFFFF80
FFFFFFFF80
FFFFFFFF80
FFFFFFFF80
ENDCHAR
STARTCHAR period
ENCODING 46
SWIDTH 278 0
DWIDTH 33 0
BBX 18 18 8 -1
BITMAP
FFFFC0
FFFFC0
FFFFC0
FFFFC0
FFFFC0
FFFFC0
FFFFC0
FFFFC0
FFFFC0
FFFFC0
FFFFC0
FFFFC0
FFFFC0
FFFFC0
FFFFC0
FFFFC0
FFFFC0
FFFFC0
ENDCHAR
STARTCHAR slash
ENCODING 47
SWIDTH 278 0
DWIDTH 33 0
BBX 33 87 0 -2
BITMAP
0000007F80
000000FF00
000000FF00
000000FF00
000000FF00
000001FE00
000001FE00
000001FE00
000003FC00
000003FC00
000003FC00
000003FC00
000007F800
000007F800
000007F800
00000FF800
00000FF000
00000FF000
00000FF000
00001FE000
00001FE000
00001FE000
00003FE000
00003FC000
00003FC000
00003FC000
00007F8000
00007F8000
00007F8000
00007F8000
0000FF0000
0000FF0000
0000FF0000
0001FE0000
0001FE0000
0001FE0000
0001FE0000
0003FC0000
0003FC0000
0003FC0000
0007F80000
0007F80000
0007F80000
0007F80000
000FF00000
000FF00000
000FF00000
001FE00000
001FE00000
001FE00000
001FE00000
003FC00000
003FC00000
003FC00000
007F800000
007F800000
007F800000
007F800000
00FF000000
00FF000000
00FF000000
01FE000000
01FE000000
01FE000000
01FE000000
03FC000000
03FC000000
03FC000000
07FC000000
07F8000000
07F8000000
07F8000000
0FF0000000
0FF0000000
0FF0000000
1FF0000000
1FE0000000
1FE0000000
1FE0000000
3FC0000000
3FC0000000
3FC0000000
3FC0000000
7F80000000
7F80000000
7F80000000
FF00000000
ENDCHAR
STARTCHAR zero
ENCODING 48
SWIDTH 556 0
DWIDTH 67 0
BBX 59 90 3 -3
BITMAP
000000FFE0000000
00000FFFFE000000
00003FFFFFC00000
0000FFFFFFF00000
0003FFFFFFF80000
0007FFFFFFFE0000
000FFFFFFFFF0000
001FFFFFFFFF8000
003FFFFFFFFFC000
007FFFFFFFFFE000
00FFFFFFFFFFF000
01FFFFFFFFFFF000
01FFFFFFFFFFF800
03FFFFFFFFFFFC00
07FFFF803FFFFC00
07FFFF000FFFFE00
07FFFE0007FFFE00
0FFFFC0003FFFE00
0FFFF80001FFFF00
1FFFF00001FFFF00
1FFFF00000FFFF00
1FFFF00000FFFF80
1FFFE00000FFFF80
3FFFE000007FFF80
3FFFE000007FFF80
3FFFE000007FFFC0
3FFFC000007FFFC0
3FFFC000007FFFC0
7FFFC000007FFFC0
7FFFC000007FFFC0
7FFFC000003FFFC0
7FFFC000003FFFC0
7FFFC000003FFFC0
7FFFC000003FFFE0
7FFFC000003FFFE0
7FFFC000003FFFE0
7FFF8000003FFFE0
7FFF8000003FFFE0
7FFF8000003FFFE0
7FFF8000003FFFE0
7FFF8000003FFFE0
FFFF8000003FFFE0
FFFF8000003FFFE0
FFFF8000003FFFE0
FFFF8000003FFFE0
FFFF8000003FFFE0
FFFF8000003FFFE0
FFFF8000003FFFE0
FFFF8000003FFFE0
FFFF8000003FFFE0
7FFF8000003FFFE0
7FFF8000003FFFE0
7FFF8000003FFFE0
7FFF8000003FFFE0
7FFF8000003FFFE0
7FFFC000003FFFE0
7FFFC000003FFFE0
7FFFC000003FFFC0
7FFFC000003FFFC0
7FFFC000003FFFC0
7FFFC000007FFFC0
7FFFC000007FFFC0
3FFFC000007FFFC0
3FFFC000007FFFC0
3FFFE000007FFFC0
3FFFE000007FFF80
3FFFE00000FFFF80
1FFFE00000FFFF80
1FFFF00000FFFF80
1FFFF00001FFFF00
1FFFF80001FFFF00
0FFFF80003FFFF00
0FFFFC0007FFFE00
0FFFFE000FFFFE00
07FFFF803FFFFE00
07FFFFF1FFFFFC00
03FFFFFFFFFFFC00
01FFFFFFFFFFF800
01FFFFFFFFFFF000
00FFFFFFFFFFF000
007FFFFFFFFFE000
003FFFFFFFFFC000
001FFFFFFFFF8000
000FFFFFFFFF0000
0007FFFFFFFE0000
0003FFFFFFF80000
0000FFFFFFF00000
00003FFFFFC00000
00000FFFFE000000
000000FFE0000000
ENDCHAR
STARTCHAR one
ENCODING 49
SWIDTH 556 0
DWIDTH 67 0
BBX 37 85 8 -1
BITMAP
0000003FF8
0000003FF8
0000007FF8
0000007FF8
000000FFF8
000000FFF8
000001FFF8
000003FFF8
000007FFF8
00000FFFF8
00001FFFF8
00007FFFF8
0001FFFFF8
0007FFFFF8
00FFFFFFF8
FFFFFFFFF8
FFFFFFFFF8
FFFFFFFFF8
FFFFFFFFF8
FFFFFFFFF8
FFFFFFFFF8
FFFFFFFFF8
FFFFFFFFF8
FFFFFFFFF8
FFFFFFFFF8
FFFFFFFFF8
000007FFF8
000007FFF8
000007FFF8
000007FFF8
000007FFF8
000007FFF8
000007FFF8
000007FFF8
000007FFF8
000007FFF8
000007FFF8
000007FFF8
000007FFF8
000007FFF8
000007FFF8
000007FFF8
000007FFF8
000007FFF8
000007FFF8
000007FFF8
000007FFF8
000007FFF8
000007FFF8
000007FFF8
000007FFF8
000007FFF8
000007FFF8
000007FFF8
000007FFF8
000007FFF8
000007FFF8
000007FFF8
000007FFF8
000007FFF8
000007FFF8
000007FFF8
000007FFF8
000007FFF8
000007FFF8
000007FFF8
000007FFF8
000007FFF8
000007FFF8
000007FFF8
000007FFF8
000007FFF8
000007FFF8
000007FFF8
000007FFF8
000007FFF8
000007FFF8
000007FFF8
000007FFF8
000007FFF8
000007FFF8
000007FFF8
000007FFF8
000007FFF8
000007FFF8
ENDCHAR
STARTCHAR two
ENCODING 50
SWIDTH 556 0
DWIDTH 67 0
BBX 58 88 4 -1
BITMAP
000003FFE0000000
00003FFFFE000000
0001FFFFFFC00000
0007FFFFFFF00000
000FFFFFFFFC0000
003FFFFFFFFF0000
007FFFFFFFFF8000
00FFFFFFFFFFC000
01FFFFFFFFFFE000
03FFFFFFFFFFF000
03FFFFFFFFFFF800
07FFFFFFFFFFF800
0FFFFFFFFFFFFC00
0FFFFFFFFFFFFE00
1FFFFF007FFFFE00
1FFFFC000FFFFF00
1FFFF80007FFFF00
3FFFF00003FFFF00
3FFFE00001FFFF80
3FFFE00001FFFF80
7FFFC00000FFFF80
7FFFC00000FFFF80
7FFFC00000FFFF80
7FFF8000007FFFC0
7FFF8000007FFFC0
7FFF8000007FFFC0
7FFF8000007FFFC0
7FFF8000007FFFC0
7FFF8000007FFFC0
7FFF8000007FFFC0
7FFF8000007FFFC0
7FFF8000007FFFC0
00000000007FFF80
0000000000FFFF80
0000000000FFFF80
0000000000FFFF80
0000000001FFFF80
0000000001FFFF00
0000000003FFFF00
0000000007FFFE00
000000000FFFFE00
000000001FFFFC00
000000003FFFFC00
000000007FFFF800
00000000FFFFF000
00000001FFFFE000
00000003FFFFC000
00000007FFFFC000
0000001FFFFF8000
0000003FFFFE0000
0000007FFFFC0000
000001FFFFF80000
000003FFFFF00000
000007FFFFE00000
00001FFFFFC00000
00003FFFFF000000
0000FFFFFE000000
0001FFFFFC000000
0003FFFFF0000000
0007FFFFE0000000
001FFFFFC0000000
003FFFFF00000000
007FFFFE00000000
00FFFFFC00000000
01FFFFF000000000
01FFFFE000000000
03FFFFC000000000
07FFFF8000000000
07FFFF0000000000
0FFFFE0000000000
1FFFFE0000000000
1FFFFC0000000000
3FFFFC0000000000
3FFFFFFFFFFFFF80
3FFFFFFFFFFFFF80
7FFFFFFFFFFFFF80
7FFFFFFFFFFFFF80
7FFFFFFFFFFFFF80
7FFFFFFFFFFFFF80
FFFFFFFFFFFFFF80
FFFFFFFFFFFFFF80
FFFFFFFFFFFFFF80
FFFFFFFFFFFFFF80
FFFFFFFFFFFFFF80
FFFFFFFFFFFFFF80
FFFFFFFFFFFFFF80
FFFFFFFFFFFFFF80
FFFFFFFFFFFFFF80
ENDCHAR
STARTCHAR three
ENCODING 51
SWIDTH 556 0
DWIDTH 67 0
BBX 59 90 3 -3
BITMAP
000001FFF0000000
00001FFFFF000000
0000FFFFFFE00000
0003FFFFFFF80000
000FFFFFFFFC0000
001FFFFFFFFF0000
007FFFFFFFFF8000
00FFFFFFFFFFC000
01FFFFFFFFFFE000
01FFFFFFFFFFF000
03FFFFFFFFFFF800
07FFFFFFFFFFF800
07FFFFFFFFFFFC00
0FFFFFFFFFFFFC00
0FFFFF003FFFFE00
1FFFFC001FFFFE00
1FFFF80007FFFE00
1FFFF00007FFFE00
3FFFE00003FFFF00
3FFFE00003FFFF00
3FFFC00001FFFF00
3FFFC00001FFFF00
3FFFC00001FFFF00
3FFFC00001FFFF00
3FFF800001FFFF00
3FFF800001FFFF00
3FFF800001FFFF00
3FFF800001FFFF00
3FFF800001FFFF00
0000000001FFFE00
0000000003FFFE00
0000000003FFFE00
0000000007FFFC00
0000000007FFF800
000000000FFFF800
000000003FFFF000
00000000FFFFE000
0000000FFFFFC000
000001FFFFFF8000
000001FFFFFF0000
000001FFFFFC0000
000001FFFFF80000
000001FFFFFE0000
000001FFFFFF8000
000001FFFFFFC000
000001FFFFFFE000
000001FFFFFFF000
000001FFFFFFF800
000001FFFFFFFC00
00000001FFFFFE00
000000003FFFFF00
000000000FFFFF00
0000000003FFFF80
0000000001FFFF80
0000000000FFFFC0
0000000000FFFFC0
00000000007FFFC0
00000000007FFFC0
00000000003FFFE0
00000000003FFFE0
00000000003FFFE0
00000000003FFFE0
FFFF8000003FFFE0
FFFF8000003FFFE0
7FFF8000003FFFE0
7FFF8000003FFFE0
7FFF8000003FFFE0
7FFFC000007FFFE0
7FFFC000007FFFC0
7FFFE00000FFFFC0
7FFFE00000FFFFC0
3FFFF00001FFFFC0
3FFFF80003FFFF80
3FFFFC0007FFFF80
1FFFFF001FFFFF80
1FFFFFE1FFFFFF00
0FFFFFFFFFFFFF00
0FFFFFFFFFFFFE00
07FFFFFFFFFFFC00
03FFFFFFFFFFFC00
03FFFFFFFFFFF800
01FFFFFFFFFFF000
00FFFFFFFFFFE000
007FFFFFFFFFC000
001FFFFFFFFF0000
000FFFFFFFFE0000
0003FFFFFFF80000
0000FFFFFFE00000
00001FFFFF000000
000001FFF0000000
ENDCHAR
STARTCHAR four
ENCODING 52
SWIDTH 556 0
DWIDTH 67 0
BBX 60 85 3 -1
BITMAP
00000001FFFFE000
00000003FFFFE000
00000007FFFFE000
00000007FFFFE000
0000000FFFFFE000
0000000FFFFFE000
0000001FFFFFE000
0000003FFFFFE000
0000003FFFFFE000
0000007FFFFFE000
0000007FFFFFE000
000000FFFFFFE000
000001FFFFFFE000
000001FFFFFFE000
000003FFFFFFE000
000003FFFFFFE000
000007FFBFFFE000
00000FFFBFFFE000
00000FFF3FFFE000
00001FFF3FFFE000
00001FFE3FFFE000
00003FFC3FFFE000
00007FFC3FFFE000
00007FF83FFFE000
0000FFF83FFFE000
0000FFF03FFFE000
0001FFE03FFFE000
0003FFE03FFFE000
0003FFC03FFFE000
0007FFC03FFFE000
0007FF803FFFE000
000FFF003FFFE000
001FFF003FFFE000
001FFE003FFFE000
003FFE003FFFE000
003FFC003FFFE000
007FF8003FFFE000
00FFF8003FFFE000
00FFF0003FFFE000
01FFE0003FFFE000
01FFE0003FFFE000
03FFC0003FFFE000
07FFC0003FFFE000
07FF80003FFFE000
0FFF00003FFFE000
0FFF00003FFFE000
1FFE00003FFFE000
3FFE00003FFFE000
3FFC00003FFFE000
7FF800003FFFE000
7FF800003FFFE000
FFF000003FFFE000
FFFFFFFFFFFFFFF0
FFFFFFFFFFFFFFF0
FFFFFFFFFFFFFFF0
FFFFFFFFFFFFFFF0
FFFFFFFFFFFFFFF0
FFFFFFFFFFFFFFF0
FFFFFFFFFFFFFFF0
FFFFFFFFFFFFFFF0
FFFFFFFFFFFFFFF0
FFFFFFFFFFFFFFF0
FFFFFFFFFFFFFFF0
FFFFFFFFFFFFFFF0
FFFFFFFFFFFFFFF0
FFFFFFFFFFFFFFF0
000000003FFFE000
000000003FFFE000
000000003FFFE000
000000003FFFE000
000000003FFFE000
000000003FFFE000
000000003FFFE000
000000003FFFE000
000000003FFFE000
000000003FFFE000
000000003FFFE000
000000003FFFE000
000000003FFFE000
000000003FFFE000
000000003FFFE000
000000003FFFE000
000000003FFFE000
000000003FFFE000
000000003FFFE000
ENDCHAR
STARTCHAR five
ENCODING 53
SWIDTH 556 0
DWIDTH 67 0
BBX 59 88 3 -3
BITMAP
003FFFFFFFFFFF00
003FFFFFFFFFFF00
003FFFFFFFFFFF00
003FFFFFFFFFFF00
007FFFFFFFFFFF00
007FFFFFFFFFFF00
007FFFFFFFFFFF00
007FFFFFFFFFFF00
007FFFFFFFFFFF00
007FFFFFFFFFFF00
007FFFFFFFFFFF00
00FFFFFFFFFFFF00
00FFFFFFFFFFFF00
00FFFFFFFFFFFF00
00FFFFFFFFFFFF00
00FFF00000000000
00FFF00000000000
01FFF00000000000
01FFF00000000000
01FFF00000000000
01FFF00000000000
01FFF00000000000
01FFE00000000000
03FFE00000000000
03FFE00000000000
03FFE00000000000
03FFE00000000000
03FFE00000000000
03FFC03FFE000000
07FFC1FFFFC00000
07FFC7FFFFF80000
07FFCFFFFFFC0000
07FFFFFFFFFF0000
07FFFFFFFFFF8000
07FFFFFFFFFFC000
07FFFFFFFFFFE000
0FFFFFFFFFFFF000
0FFFFFFFFFFFF800
0FFFFFFFFFFFFC00
0FFFFFFFFFFFFC00
0FFFFFFFFFFFFE00
0FFFFF807FFFFF00
1FFFFC001FFFFF00
1FFFF80007FFFF80
1FFFF00003FFFF80
1FFFE00001FFFF80
1FFFC00001FFFFC0
1FFFC00000FFFFC0
00000000007FFFC0
00000000007FFFC0
00000000007FFFC0
00000000003FFFE0
00000000003FFFE0
00000000003FFFE0
00000000003FFFE0
00000000003FFFE0
00000000003FFFE0
00000000003FFFE0
00000000003FFFE0
00000000003FFFE0
00000000003FFFE0
00000000003FFFE0
00000000003FFFE0
FFFF8000007FFFE0
FFFF8000007FFFC0
FFFF8000007FFFC0
FFFF800000FFFFC0
7FFFC00000FFFFC0
7FFFC00001FFFF80
7FFFE00003FFFF80
7FFFF00007FFFF00
3FFFF8000FFFFF00
3FFFFE003FFFFF00
3FFFFFC3FFFFFE00
1FFFFFFFFFFFFC00
0FFFFFFFFFFFFC00
0FFFFFFFFFFFF800
07FFFFFFFFFFF000
03FFFFFFFFFFE000
01FFFFFFFFFFC000
00FFFFFFFFFF8000
007FFFFFFFFF0000
003FFFFFFFFE0000
001FFFFFFFF80000
0007FFFFFFF00000
0001FFFFFFC00000
00003FFFFE000000
000003FFE0000000
ENDCHAR
STARTCHAR six
ENCODING 54
SWIDTH 556 0
DWIDTH 67 0
BBX 58 90 4 -3
BITMAP
0000007FF8000000
000007FFFF800000
00001FFFFFF00000
00007FFFFFFC0000
0001FFFFFFFE0000
0003FFFFFFFF8000
000FFFFFFFFFC000
001FFFFFFFFFE000
003FFFFFFFFFF000
003FFFFFFFFFF800
007FFFFFFFFFF800
00FFFFFFFFFFFC00
01FFFFFFFFFFFC00
01FFFFFFFFFFFE00
03FFFFC00FFFFE00
03FFFF0007FFFF00
07FFFE0001FFFF00
07FFFC0001FFFF00
0FFFF80000FFFF00
0FFFF00000FFFF80
1FFFF000007FFF80
1FFFE00000000000
1FFFE00000000000
3FFFC00000000000
3FFFC00000000000
3FFFC00000000000
3FFFC00000000000
7FFF800000000000
7FFF800000000000
7FFF800000000000
7FFF800000000000
7FFF800FFE000000
7FFF807FFFC00000
FFFF81FFFFF80000
FFFF87FFFFFC0000
FFFF8FFFFFFF0000
FFFF9FFFFFFF8000
FFFFBFFFFFFFC000
FFFFFFFFFFFFE000
FFFFFFFFFFFFF000
FFFFFFFFFFFFF800
FFFFFFFFFFFFF800
FFFFFFFFFFFFFC00
FFFFFFFFFFFFFE00
FFFFFFE0FFFFFE00
FFFFFF001FFFFF00
FFFFFC0007FFFF00
FFFFF80003FFFF00
FFFFF00001FFFF80
FFFFE00000FFFF80
FFFFE00000FFFF80
FFFFC000007FFFC0
FFFFC000007FFFC0
FFFF8000007FFFC0
FFFF8000003FFFC0
FFFF8000003FFFC0
FFFF8000003FFFC0
FFFF8000003FFFC0
FFFF0000003FFFC0
FFFF0000003FFFC0
7FFF0000003FFFC0
7FFF0000003FFFC0
7FFF0000003FFFC0
7FFF8000003FFFC0
7FFF8000003FFFC0
7FFF8000007FFFC0
3FFF8000007FFFC0
3FFFC000007FFF80
3FFFC00000FFFF80
3FFFE00000FFFF80
1FFFE00001FFFF80
1FFFF00003FFFF00
1FFFF80007FFFF00
0FFFFC000FFFFE00
0FFFFF003FFFFE00
07FFFFE1FFFFFC00
07FFFFFFFFFFFC00
03FFFFFFFFFFF800
01FFFFFFFFFFF800
01FFFFFFFFFFF000
00FFFFFFFFFFE000
007FFFFFFFFFC000
003FFFFFFFFF8000
001FFFFFFFFF0000
0007FFFFFFFE0000
0003FFFFFFFC0000
0000FFFFFFF00000
00003FFFFFC00000
00000FFFFE000000
000000FFF0000000
ENDCHAR
STARTCHAR seven
ENCODING 55
SWIDTH 556 0
DWIDTH 67 0
BBX 60 86 3 -1
BITMAP
FFFFFFFFFFFFFFF0
FFFFFFFFFFFFFFF0
FFFFFFFFFFFFFFF0
FFFFFFFFFFFFFFF0
FFFFFFFFFFFFFFF0
FFFFFFFFFFFFFFF0
FFFFFFFFFFFFFFF0
FFFFFFFFFFFFFFF0
FFFFFFFFFFFFFFF0
FFFFFFFFFFFFFFF0
FFFFFFFFFFFFFFF0
FFFFFFFFFFFFFFF0
FFFFFFFFFFFFFFF0
FFFFFFFFFFFFFFF0
FFFFFFFFFFFFFFE0
00000000003FFFC0
00000000007FFFC0
00000000007FFF80
0000000000FFFF00
0000000001FFFE00
0000000003FFFE00
0000000003FFFC00
0000000007FFF800
000000000FFFF000
000000000FFFF000
000000001FFFE000
000000003FFFC000
000000003FFFC000
000000007FFF8000
00000000FFFF0000
00000000FFFF0000
00000001FFFE0000
00000003FFFC0000
00000003FFFC0000
00000007FFF80000
00000007FFF80000
0000000FFFF00000
0000001FFFF00000
0000001FFFE00000
0000003FFFC00000
0000003FFFC00000
0000007FFF800000
0000007FFF800000
000000FFFF000000
000000FFFF000000
000001FFFF000000
000001FFFE000000
000003FFFE000000
000003FFFC000000
000003FFFC000000
000007FFF8000000
000007FFF8000000
00000FFFF8000000
00000FFFF0000000
00000FFFF0000000
00001FFFF0000000
00001FFFE0000000
00001FFFE0000000
00003FFFE0000000
00003FFFC0000000
00003FFFC0000000
00007FFFC0000000
00007FFF80000000
00007FFF80000000
00007FFF80000000
0000FFFF80000000
0000FFFF00000000
0000FFFF00000000
0000FFFF00000000
0000FFFF00000000
0001FFFF00000000
0001FFFE00000000
0001FFFE00000000
0001FFFE00000000
0001FFFE00000000
0003FFFE00000000
0003FFFE00000000
0003FFFE00000000
0003FFFE00000000
0003FFFC00000000
0003FFFC00000000
0007FFFC00000000
0007FFFC00000000
0007FFFC00000000
0007FFFC00000000
0007FFFC00000000
ENDCHAR
STARTCHAR eight
ENCODING 56
SWIDTH 556 0
DWIDTH 67 0
BBX 60 90 3 -3
BITMAP
000000FFF0000000
00000FFFFF000000
00007FFFFFE00000
0001FFFFFFF80000
0007FFFFFFFE0000
000FFFFFFFFF0000
003FFFFFFFFF8000
007FFFFFFFFFC000
00FFFFFFFFFFE000
01FFFFFFFFFFF000
01FFFFFFFFFFF800
03FFFFFFFFFFFC00
07FFFFFFFFFFFC00
07FFFFFFFFFFFE00
0FFFFF801FFFFE00
0FFFFC0007FFFF00
1FFFF80001FFFF00
1FFFF00000FFFF00
1FFFE000007FFF80
1FFFE000007FFF80
1FFFC000003FFF80
1FFFC000003FFF80
1FFF8000003FFF80
1FFF8000001FFF80
1FFF8000001FFF80
1FFF8000001FFF80
1FFF8000003FFF80
1FFFC000003FFF80
1FFFC000003FFF00
1FFFC000003FFF00
0FFFE000007FFF00
0FFFE00000FFFE00
07FFF00001FFFE00
07FFFC0003FFFC00
03FFFE000FFFFC00
01FFFFC03FFFF800
00FFFFFFFFFFF000
007FFFFFFFFFE000
003FFFFFFFFFC000
000FFFFFFFFF0000
0007FFFFFFFC0000
000FFFFFFFFE0000
003FFFFFFFFF8000
007FFFFFFFFFC000
00FFFFFFFFFFF000
01FFFFFFFFFFF800
07FFFFFFFFFFFC00
07FFFFF0FFFFFE00
0FFFFF000FFFFF00
1FFFFC0007FFFF00
3FFFF80001FFFF80
3FFFF00000FFFFC0
7FFFE000007FFFC0
7FFFC000007FFFC0
7FFFC000003FFFE0
FFFF8000003FFFE0
FFFF8000003FFFE0
FFFF8000001FFFF0
FFFF8000001FFFF0
FFFF8000001FFFF0
FFFF0000001FFFF0
FFFF0000001FFFF0
FFFF0000001FFFF0
FFFF8000001FFFF0
FFFF8000001FFFF0
FFFF8000001FFFF0
FFFF8000001FFFF0
FFFF8000003FFFF0
FFFFC000003FFFE0
FFFFC000007FFFE0
7FFFE000007FFFE0
7FFFF00000FFFFE0
7FFFF80001FFFFC0
3FFFFC0007FFFFC0
3FFFFF001FFFFF80
1FFFFFF1FFFFFF80
1FFFFFFFFFFFFF00
0FFFFFFFFFFFFF00
07FFFFFFFFFFFE00
07FFFFFFFFFFFC00
03FFFFFFFFFFF800
01FFFFFFFFFFF800
00FFFFFFFFFFE000
007FFFFFFFFFC000
001FFFFFFFFF8000
000FFFFFFFFE0000
0003FFFFFFFC0000
0000FFFFFFE00000
00001FFFFF800000
000000FFF0000000
ENDCHAR
STARTCHAR nine
ENCODING 57
SWIDTH 556 0
DWIDTH 67 0
BBX 59 90 3 -3
BITMAP
000001FFE0000000
00001FFFFC000000
00007FFFFF800000
0001FFFFFFE00000
0007FFFFFFF00000
001FFFFFFFFC0000
003FFFFFFFFE0000
007FFFFFFFFF0000
00FFFFFFFFFF8000
01FFFFFFFFFFC000
03FFFFFFFFFFE000
03FFFFFFFFFFE000
07FFFFFFFFFFF000
0FFFFFFFFFFFF800
0FFFFF007FFFF800
1FFFFC001FFFFC00
1FFFF80007FFFC00
1FFFF00003FFFE00
3FFFE00001FFFE00
3FFFE00001FFFF00
3FFFC00000FFFF00
7FFFC00000FFFF00
7FFF8000007FFF80
7FFF8000007FFF80
7FFF8000007FFF80
7FFF8000007FFF80
FFFF8000007FFFC0
FFFF0000003FFFC0
FFFF0000003FFFC0
FFFF0000003FFFC0
FFFF0000003FFFC0
FFFF0000003FFFC0
FFFF0000003FFFC0
FFFF8000007FFFC0
7FFF8000007FFFE0
7FFF8000007FFFE0
7FFF8000007FFFE0
7FFF800000FFFFE0
7FFFC00000FFFFE0
7FFFC00000FFFFE0
3FFFE00001FFFFE0
3FFFF00003FFFFE0
3FFFF00007FFFFE0
1FFFF8000FFFFFE0
1FFFFE001FFFFFE0
1FFFFF80FFFFFFE0
0FFFFFFFFFFFFFE0
0FFFFFFFFFFFFFE0
07FFFFFFFFFFFFE0
03FFFFFFFFFFFFE0
03FFFFFFFFFFFFE0
01FFFFFFFFFFFFE0
00FFFFFFFFBFFFC0
007FFFFFFF3FFFC0
003FFFFFFE3FFFC0
000FFFFFFC3FFFC0
0007FFFFF83FFFC0
0001FFFFF03FFFC0
00007FFFC03FFFC0
000007FC003FFFC0
00000000007FFF80
00000000007FFF80
00000000007FFF80
00000000007FFF80
00000000007FFF80
0000000000FFFF00
0000000000FFFF00
3FFFC00000FFFF00
3FFFC00001FFFE00
3FFFC00001FFFE00
3FFFC00003FFFE00
3FFFE00007FFFC00
3FFFF0000FFFFC00
1FFFF8001FFFFC00
1FFFFE007FFFF800
1FFFFFC3FFFFF800
0FFFFFFFFFFFF000
0FFFFFFFFFFFE000
07FFFFFFFFFFE000
03FFFFFFFFFFC000
03FFFFFFFFFF8000
01FFFFFFFFFF0000
00FFFFFFFFFE0000
007FFFFFFFFC0000
003FFFFFFFF80000
000FFFFFFFF00000
0007FFFFFFC00000
0001FFFFFF000000
00003FFFFC000000
000003FFC0000000
ENDCHAR
STARTCHAR colon
ENCODING 58
SWIDTH 333 0
DWIDTH 40 0
BBX 18 63 14 -1
BITMAP
FFFFC0
FFFFC0
FFFFC0
FFFFC0
FFFFC0
FFFFC0
FFFFC0
FFFFC0
FFFFC0
FFFFC0
FFFFC0
FFFFC0
FFFFC0
FFFFC0
FFFFC0
FFFFC0
FFFFC0
FFFFC0
000000
000000
000000
000000
000000
000000
000000
000000
000000
000000
000000
000000
000000
000000
000000
000000
000000
000000
000000
000000
000000
000000
000000
000000
000000
000000
000000
FFFFC0
FFFFC0
FFFFC0
FFFFC0
FFFFC0
FFFFC0
FFFFC0
FFFFC0
FFFFC0
FFFFC0
FFFFC0
FFFFC0
FFFFC0
FFFFC0
FFFFC0
FFFFC0
FFFFC0
FFFFC0
ENDCHAR
STARTCHAR semicolon
ENCODING 59
SWIDTH 333 0
DWIDTH 40 0
BBX 18 84 14 -22
BITMAP
FFFFC0
FFFFC0
FFFFC0
FFFFC0
FFFFC0
FFFFC0
FFFFC0
FFFFC0
FFFFC0
FFFFC0
FFFFC0
FFFFC0
FFFFC0
FFFFC0
FFFFC0
FFFFC0
FFFFC0
FFFFC0
000000
000000
000000
000000
000000
000000
000000
000000
000000
000000
000000
000000
000000
000000
000000
000000
000000
000000
000000
000000
000000
000000
000000
000000
000000
000000
000000
FFFFC0
FFFFC0
FFFFC0
FFFFC0
FFFFC0
FFFFC0
FFFFC0
FFFFC0
FFFFC0
FFFFC0
FFFFC0
FFFFC0
FFFFC0
FFFFC0
FFFFC0
FFFFC0
FFFFC0
FFFFC0
003FC0
003FC0
003FC0
003F80
003F80
007F80
007F80
007F80
00FF80
00FF00
01FF00
03FE00
0FFE00
3FFC00
FFF800
FFF000
FFE000
FFC000
FF0000
FC0000
C00000
ENDCHAR
STARTCHAR less
ENCODING 60
SWIDTH 584 0
DWIDTH 70 0
BBX 58 58 5 -1
BITMAP
0000000000000040
00000000000003C0
0000000000000FC0
0000000000007FC0
000000000003FFC0
00000000001FFFC0
00000000007FFFC0
0000000003FFFFC0
000000001FFFFFC0
000000007FFFFFC0
00000003FFFFFFC0
0000001FFFFFFFC0
000000FFFFFFFFC0
000003FFFFFFFF80
00001FFFFFFFFC00
0000FFFFFFFFE000
0003FFFFFFFF8000
001FFFFFFFFC0000
00FFFFFFFFE00000
03FFFFFFFF000000
1FFFFFFFF8000000
FFFFFFFFC0000000
FFFFFFFE00000000
FFFFFFF000000000
FFFFFFC000000000
FFFFFE0000000000
FFFFF00000000000
FFFF800000000000
FFFC000000000000
FFFC000000000000
FFFF800000000000
FFFFF00000000000
FFFFFE0000000000
FFFFFFC000000000
FFFFFFF800000000
FFFFFFFF00000000
7FFFFFFFE0000000
1FFFFFFFFC000000
03FFFFFFFF000000
007FFFFFFFE00000
001FFFFFFFFC0000
0003FFFFFFFF8000
00007FFFFFFFF000
00001FFFFFFFFE00
000003FFFFFFFFC0
0000007FFFFFFFC0
0000000FFFFFFFC0
00000003FFFFFFC0
000000007FFFFFC0
000000000FFFFFC0
0000000003FFFFC0
00000000007FFFC0
00000000000FFFC0
000000000003FFC0
0000000000007FC0
0000000000000FC0
00000000000003C0
0000000000000040
ENDCHAR
STARTCHAR equal
ENCODING 61
SWIDTH 584 0
DWIDTH 70 0
BBX 58 43 6 6
BITMAP
FFFFFFFFFFFFFFC0
FFFFFFFFFFFFFFC0
FFFFFFFFFFFFFFC0
FFFFFFFFFFFFFFC0
FFFFFFFFFFFFFFC0
FFFFFFFFFFFFFFC0
FFFFFFFFFFFFFFC0
FFFFFFFFFFFFFFC0
FFFFFFFFFFFFFFC0
FFFFFFFFFFFFFFC0
FFFFFFFFFFFFFFC0
FFFFFFFFFFFFFFC0
FFFFFFFFFFFFFFC0
FFFFFFFFFFFFFFC0
0000000000000000
0000000000000000
0000000000000000
0000000000000000
0000000000000000
0000000000000000
0000000000000000
0000000000000000
0000000000000000
0000000000000000
0000000000000000
0000000000000000
0000000000000000
0000000000000000
0000000000000000
FFFFFFFFFFFFFFC0
FFFFFFFFFFFFFFC0
FFFFFFFFFFFFFFC0
FFFFFFFFFFFFFFC0
FFFFFFFFFFFFFFC0
FFFFFFFFFFFFFFC0
FFFFFFFFFFFFFFC0
FFFFFFFFFFFFFFC0
FFFFFFFFFFFFFFC0
FFFFFFFFFFFFFFC0
FFFFFFFFFFFFFFC0
FFFFFFFFFFFFFFC0
FFFFFFFFFFFFFFC0
FFFFFFFFFFFFFFC0
ENDCHAR
STARTCHAR greater
ENCODING 62
SWIDTH 584 0
DWIDTH 70 0
BBX 58 58 5 -1
BITMAP
8000000000000000
F000000000000000
FE00000000000000
FF80000000000000
FFF0000000000000
FFFE000000000000
FFFF800000000000
FFFFF00000000000
FFFFFE0000000000
FFFFFFC000000000
FFFFFFF000000000
FFFFFFFE00000000
FFFFFFFFC0000000
7FFFFFFFF0000000
1FFFFFFFFE000000
03FFFFFFFFC00000
007FFFFFFFF00000
000FFFFFFFFE0000
0001FFFFFFFFC000
00003FFFFFFFF000
000007FFFFFFFE00
000000FFFFFFFFC0
0000001FFFFFFFC0
00000003FFFFFFC0
000000007FFFFFC0
000000001FFFFFC0
0000000003FFFFC0
00000000007FFFC0
00000000000FFFC0
00000000000FFFC0
00000000007FFFC0
0000000003FFFFC0
000000001FFFFFC0
000000007FFFFFC0
00000003FFFFFFC0
0000001FFFFFFFC0
000000FFFFFFFFC0
000007FFFFFFFE00
00003FFFFFFFF800
0001FFFFFFFFC000
000FFFFFFFFE0000
003FFFFFFFF00000
01FFFFFFFFC00000
0FFFFFFFFE000000
7FFFFFFFF0000000
FFFFFFFFC0000000
FFFFFFFE00000000
FFFFFFF000000000
FFFFFFC000000000
FFFFFE0000000000
FFFFF00000000000
FFFF800000000000
FFFE000000000000
FFF0000000000000
FF80000000000000
FE00000000000000
F000000000000000
8000000000000000
ENDCHAR
STARTCHAR question
ENCODING 63
SWIDTH 611 0
DWIDTH 73 0
BBX 59 89 8 -1
BITMAP
000003FFF0000000
00003FFFFF000000
0001FFFFFFC00000
0007FFFFFFF80000
001FFFFFFFFC0000
003FFFFFFFFF0000
007FFFFFFFFF8000
00FFFFFFFFFFC000
01FFFFFFFFFFE000
03FFFFFFFFFFF000
07FFFFFFFFFFF800
07FFFFFFFFFFFC00
0FFFFFFFFFFFFC00
1FFFFFFFFFFFFE00
1FFFFFC07FFFFF00
3FFFFE001FFFFF00
3FFFFC0007FFFF80
3FFFF80003FFFF80
7FFFF00001FFFF80
7FFFE00001FFFFC0
7FFFC00000FFFFC0
FFFFC000007FFFC0
FFFF8000007FFFC0
FFFF8000007FFFC0
FFFF8000007FFFE0
FFFF8000003FFFE0
FFFF0000003FFFE0
FFFF0000003FFFE0
FFFF0000003FFFE0
FFFF0000003FFFE0
FFFF0000003FFFE0
00000000007FFFC0
00000000007FFFC0
00000000007FFFC0
0000000000FFFFC0
0000000001FFFFC0
0000000003FFFF80
0000000003FFFF80
000000000FFFFF00
000000001FFFFF00
000000003FFFFE00
000000007FFFFE00
00000000FFFFFC00
00000001FFFFF800
00000003FFFFF000
00000007FFFFE000
0000000FFFFFC000
0000001FFFFF8000
0000003FFFFE0000
0000007FFFFC0000
0000007FFFF80000
000000FFFFE00000
000000FFFFC00000
000001FFFF000000
000001FFFE000000
000003FFFC000000
000003FFFC000000
000003FFF8000000
000003FFF8000000
000003FFF8000000
000007FFF0000000
000007FFF0000000
000007FFF0000000
000007FFF0000000
000007FFF0000000
0000000000000000
0000000000000000
0000000000000000
0000000000000000
0000000000000000
0000000000000000
00000FFFFC000000
00000FFFFC000000
00000FFFFC000000
00000FFFFC000000
00000FFFFC000000
00000FFFFC000000
00000FFFFC000000
00000FFFFC000000
00000FFFFC000000
00000FFFFC000000
00000FFFFC000000
00000FFFFC000000
00000FFFFC000000
00000FFFFC000000
00000FFFFC000000
00000FFFFC000000
00000FFFFC000000
00000FFFFC000000
ENDCHAR
STARTCHAR at
ENCODING 64
SWIDTH 975 0
DWIDTH 117 0
BBX 111 105 3 -16
BITMAP
0000000000007FFFF80000000000
00000000000FFFFFFF8000000000
0000000000FFFFFFFFF800000000
0000000003FFFFFFFFFF00000000
000000001FFFFFFFFFFFC0000000
000000007FFFFFFFFFFFF0000000
00000001FFFFFFFFFFFFFC000000
00000007FFFFFFFFFFFFFF000000
0000000FFFFFFFFFFFFFFF800000
0000003FFFFFE0003FFFFFE00000
0000007FFFFC000001FFFFF00000
000001FFFFE00000003FFFFC0000
000003FFFF000000000FFFFE0000
000007FFFC0000000003FFFF0000
00000FFFF00000000000FFFF8000
00001FFFC000000000003FFFC000
00003FFF8000000000000FFFE000
00007FFE00000000000007FFF000
0000FFFC00000000000003FFF800
0001FFF800000000000000FFFC00
0003FFF0000000000000007FFC00
0007FFE0000000000000003FFE00
0007FFC0000000000000001FFF00
000FFF80000000000000000FFF00
001FFF000000000000000007FF80
001FFE000000000000000007FFC0
003FFC000000000000000003FFC0
007FFC00000003FE00000001FFE0
007FF80000003FFFC03FF801FFE0
00FFF0000001FFFFF03FF800FFE0
01FFF0000007FFFFF83FF0007FF0
01FFE000000FFFFFFC7FF0007FF0
03FFC000003FFFFFFC7FF0007FF8
03FFC000007FFFFFFE7FF0003FF8
07FF800000FFFFFFFF7FE0003FF8
07FF800001FFFFFFFFFFE0001FF8
07FF000003FFFC01FFFFE0001FFC
0FFF000007FFF000FFFFC0001FFC
0FFF00000FFFC0007FFFC0001FFC
1FFE00000FFF80003FFFC0000FFC
1FFE00001FFF00001FFFC0000FFC
1FFC00003FFE00001FFF80000FFC
3FFC00003FFC00000FFF80000FFC
3FFC00007FF800000FFF80000FFE
3FFC0000FFF000000FFF00000FFE
3FF80000FFF000000FFF00000FFE
7FF80001FFE000000FFF00000FFE
7FF80001FFE000000FFF00000FFE
7FF80001FFC000000FFE00000FFE
7FF00003FFC000000FFE00000FFE
7FF00003FF8000000FFE00001FFC
7FF00007FF8000000FFE00001FFC
FFF00007FF8000000FFC00001FFC
FFF00007FF0000000FFC00001FFC
FFF00007FF0000001FFC00003FFC
FFF00007FF0000001FF800003FFC
FFF0000FFF0000001FF800003FF8
FFF0000FFF0000003FF800007FF8
FFF0000FFF0000003FF800007FF8
FFF0000FFF0000007FF00000FFF0
FFF0000FFF0000007FF00000FFF0
FFF0000FFF000000FFF00001FFF0
7FF0000FFF000000FFE00001FFE0
7FF0000FFF000001FFE00003FFE0
7FF8000FFF000001FFE00007FFC0
7FF8000FFF800003FFE0000FFFC0
7FF80007FF800007FFE0001FFF80
7FF80007FFC0000FFFE0003FFF00
3FFC0007FFC0001FFFE0007FFF00
3FFC0007FFE0003FFFE000FFFE00
3FFC0003FFF800FFFFF003FFFC00
1FFE0003FFFC03FFFFF80FFFF800
1FFE0001FFFFFFFFFFFFFFFFF000
1FFF0000FFFFFFFFBFFFFFFFE000
0FFF0000FFFFFFFF3FFFFFFFC000
0FFF80007FFFFFFE1FFFFFFF8000
07FF80003FFFFFFC1FFFFFFF0000
07FFC0001FFFFFF80FFFFFFE0000
03FFE0000FFFFFE007FFFFF80000
03FFE00003FFFFC001FFFFE00000
01FFF00000FFFE00007FFF800000
01FFF800001FF000000FF8000000
00FFFC0000000000000000000000
007FFE0000000000000000000000
007FFF0000000000000000000000
003FFF8000000000000000000000
001FFFE000000000000000000000
000FFFF000000000000000000000
0007FFF800000000000000000000
0007FFFE00000000000000000000
0003FFFF80000000000000000000
0000FFFFE0000000000100000000
00007FFFF8000000000780000000
00003FFFFF000000007F80000000
00001FFFFFE0000007FF80000000
00000FFFFFFF0001FFFFC0000000
000003FFFFFFFFFFFFFFC0000000
000001FFFFFFFFFFFFFFE0000000
0000007FFFFFFFFFFFFFE0000000
0000001FFFFFFFFFFFFFE0000000
00000007FFFFFFFFFFFFC0000000
00000000FFFFFFFFFFFF00000000
000000003FFFFFFFFFF800000000
0000000003FFFFFFFF8000000000
00000000001FFFFFF00000000000
ENDCHAR
STARTCHAR A
ENCODING 65
SWIDTH 722 0
DWIDTH 87 0
BBX 81 89 3 -1
BITMAP
00000001FFFFE000000000
00000001FFFFF000000000
00000003FFFFF000000000
00000003FFFFF000000000
00000003FFFFF800000000
00000007FFFFF800000000
00000007FFFFF800000000
00000007FFFFFC00000000
0000000FFFFFFC00000000
0000000FFFFFFC00000000
0000000FFFFFFE00000000
0000001FFFFFFE00000000
0000001FFFFFFE00000000
0000003FFFFFFF00000000
0000003FFFFFFF00000000
0000003FFFFFFF00000000
0000007FFFFFFF80000000
0000007FFFFFFF80000000
0000007FFFFFFF80000000
000000FFFFFFFFC0000000
000000FFFFFFFFC0000000
000000FFFFFFFFC0000000
000001FFFF7FFFE0000000
000001FFFF3FFFE0000000
000001FFFF3FFFE0000000
000003FFFE3FFFF0000000
000003FFFE1FFFF0000000
000003FFFE1FFFF0000000
000007FFFC1FFFF8000000
000007FFFC0FFFF8000000
000007FFFC0FFFF8000000
00000FFFF80FFFFC000000
00000FFFF807FFFC000000
00001FFFF807FFFE000000
00001FFFF007FFFE000000
00001FFFF007FFFE000000
00003FFFF003FFFF000000
00003FFFE003FFFF000000
00003FFFE003FFFF000000
00007FFFE001FFFF800000
00007FFFC001FFFF800000
00007FFFC001FFFF800000
0000FFFFC000FFFFC00000
0000FFFF8000FFFFC00000
0000FFFF8000FFFFC00000
0001FFFF80007FFFE00000
0001FFFF00007FFFE00000
0001FFFF00007FFFE00000
0003FFFF00003FFFF00000
0003FFFF00003FFFF00000
0003FFFE00003FFFF00000
0007FFFE00001FFFF80000
0007FFFE00001FFFF80000
0007FFFC00001FFFF80000
000FFFFC00000FFFFC0000
000FFFFC00000FFFFC0000
001FFFFFFFFFFFFFFC0000
001FFFFFFFFFFFFFFE0000
001FFFFFFFFFFFFFFE0000
003FFFFFFFFFFFFFFE0000
003FFFFFFFFFFFFFFF0000
003FFFFFFFFFFFFFFF0000
007FFFFFFFFFFFFFFF0000
007FFFFFFFFFFFFFFF8000
007FFFFFFFFFFFFFFF8000
00FFFFFFFFFFFFFFFF8000
00FFFFFFFFFFFFFFFFC000
00FFFFFFFFFFFFFFFFC000
01FFFFFFFFFFFFFFFFC000
01FFFFFFFFFFFFFFFFE000
01FFFFFFFFFFFFFFFFE000
03FFFF000000007FFFE000
03FFFF000000003FFFF000
03FFFF000000003FFFF000
07FFFE000000003FFFF000
07FFFE000000001FFFF800
0FFFFE000000001FFFF800
0FFFFC000000001FFFF800
0FFFFC000000001FFFFC00
1FFFFC000000000FFFFC00
1FFFF8000000000FFFFC00
1FFFF8000000000FFFFE00
3FFFF80000000007FFFE00
3FFFF00000000007FFFE00
3FFFF00000000007FFFF00
7FFFF00000000003FFFF00
7FFFE00000000003FFFF80
7FFFE00000000003FFFF80
FFFFE00000000001FFFF80
ENDCHAR
STARTCHAR B
ENCODING 66
SWIDTH 722 0
DWIDTH 87 0
BBX 70 89 10 -1
BITMAP
FFFFFFFFFFFC000000
FFFFFFFFFFFFE00000
FFFFFFFFFFFFF80000
FFFFFFFFFFFFFE0000
FFFFFFFFFFFFFF8000
FFFFFFFFFFFFFFC000
FFFFFFFFFFFFFFF000
FFFFFFFFFFFFFFF800
FFFFFFFFFFFFFFFC00
FFFFFFFFFFFFFFFC00
FFFFFFFFFFFFFFFE00
FFFFFFFFFFFFFFFF00
FFFFFFFFFFFFFFFF00
FFFFFFFFFFFFFFFF80
FFFFFFFFFFFFFFFF80
FFFFC000003FFFFFC0
FFFFC0000007FFFFC0
FFFFC0000001FFFFE0
FFFFC0000000FFFFE0
FFFFC00000007FFFE0
FFFFC00000007FFFE0
FFFFC00000003FFFE0
FFFFC00000003FFFE0
FFFFC00000003FFFE0
FFFFC00000003FFFE0
FFFFC00000003FFFE0
FFFFC00000003FFFE0
FFFFC00000003FFFE0
FFFFC00000003FFFE0
FFFFC00000007FFFE0
FFFFC00000007FFFC0
FFFFC0000000FFFFC0
FFFFC0000000FFFF80
FFFFC0000001FFFF80
FFFFC0000007FFFF00
FFFFC000003FFFFE00
FFFFFFFFFFFFFFFE00
FFFFFFFFFFFFFFFC00
FFFFFFFFFFFFFFF000
FFFFFFFFFFFFFFE000
FFFFFFFFFFFFFFC000
FFFFFFFFFFFFFF8000
FFFFFFFFFFFFFF0000
FFFFFFFFFFFFFF8000
FFFFFFFFFFFFFFE000
FFFFFFFFFFFFFFF000
FFFFFFFFFFFFFFF800
FFFFFFFFFFFFFFFE00
FFFFFFFFFFFFFFFF00
FFFFFFFFFFFFFFFF80
FFFFFFFFFFFFFFFF80
FFFFC000000FFFFFC0
FFFFC0000001FFFFE0
FFFFC00000007FFFE0
FFFFC00000003FFFF0
FFFFC00000001FFFF0
FFFFC00000001FFFF8
FFFFC00000000FFFF8
FFFFC00000000FFFF8
FFFFC00000000FFFF8
FFFFC00000000FFFFC
FFFFC000000007FFFC
FFFFC000000007FFFC
FFFFC000000007FFFC
FFFFC00000000FFFFC
FFFFC00000000FFFFC
FFFFC00000000FFFFC
FFFFC00000000FFFFC
FFFFC00000001FFFF8
FFFFC00000001FFFF8
FFFFC00000003FFFF8
FFFFC00000007FFFF8
FFFFC0000001FFFFF0
FFFFC000000FFFFFF0
FFFFFFFFFFFFFFFFE0
FFFFFFFFFFFFFFFFE0
FFFFFFFFFFFFFFFFC0
FFFFFFFFFFFFFFFFC0
FFFFFFFFFFFFFFFF80
FFFFFFFFFFFFFFFF00
FFFFFFFFFFFFFFFE00
FFFFFFFFFFFFFFFE00
FFFFFFFFFFFFFFF800
FFFFFFFFFFFFFFF000
FFFFFFFFFFFFFFE000
FFFFFFFFFFFFFF8000
FFFFFFFFFFFFFE0000
FFFFFFFFFFFFF00000
FFFFFFFFFFFE000000
ENDCHAR
STARTCHAR C
ENCODING 67
SWIDTH 722 0
DWIDTH 87 0
BBX 77 92 5 -3
BITMAP
000000007FFE00000000
0000000FFFFFF0000000
0000007FFFFFFE000000
000001FFFFFFFFC00000
000007FFFFFFFFF00000
00001FFFFFFFFFFC0000
00003FFFFFFFFFFE0000
0000FFFFFFFFFFFF8000
0001FFFFFFFFFFFFC000
0003FFFFFFFFFFFFE000
0007FFFFFFFFFFFFF000
000FFFFFFFFFFFFFF800
001FFFFFFFFFFFFFFC00
003FFFFFFFFFFFFFFE00
007FFFFFFFFFFFFFFE00
007FFFFFFC1FFFFFFF00
00FFFFFFC0007FFFFF80
01FFFFFE00001FFFFF80
01FFFFFC00000FFFFFC0
03FFFFF0000003FFFFC0
03FFFFE0000001FFFFE0
07FFFFC0000001FFFFE0
07FFFF80000000FFFFE0
0FFFFF000000007FFFF0
0FFFFF000000007FFFF0
1FFFFE000000003FFFF0
1FFFFC000000003FFFF0
1FFFFC000000001FFFF0
1FFFFC000000001FFFF8
3FFFF8000000001FFFF8
3FFFF8000000000FFFF8
3FFFF000000000000000
3FFFF000000000000000
7FFFF000000000000000
7FFFF000000000000000
7FFFE000000000000000
7FFFE000000000000000
7FFFE000000000000000
7FFFE000000000000000
7FFFE000000000000000
FFFFE000000000000000
FFFFC000000000000000
FFFFC000000000000000
FFFFC000000000000000
FFFFC000000000000000
FFFFC000000000000000
FFFFC000000000000000
FFFFC000000000000000
FFFFC000000000000000
FFFFC000000000000000
FFFFC000000000000000
FFFFC000000000000000
7FFFE000000000000000
7FFFE000000000000000
7FFFE000000000000000
7FFFE000000000000000
7FFFE000000000000000
7FFFE000000000000000
7FFFF000000000000000
7FFFF0000000000FFFF8
3FFFF0000000001FFFF8
3FFFF0000000001FFFF8
3FFFF8000000001FFFF8
3FFFF8000000001FFFF8
1FFFFC000000001FFFF8
1FFFFC000000003FFFF0
1FFFFE000000003FFFF0
0FFFFE000000007FFFF0
0FFFFF000000007FFFF0
07FFFF80000000FFFFE0
07FFFF80000001FFFFE0
07FFFFC0000003FFFFE0
03FFFFF0000007FFFFC0
01FFFFF800000FFFFFC0
01FFFFFC00001FFFFF80
00FFFFFF0000FFFFFF80
00FFFFFFF007FFFFFF00
007FFFFFFFFFFFFFFE00
003FFFFFFFFFFFFFFE00
001FFFFFFFFFFFFFFC00
000FFFFFFFFFFFFFF800
0007FFFFFFFFFFFFF000
0003FFFFFFFFFFFFE000
0001FFFFFFFFFFFFC000
0000FFFFFFFFFFFF8000
00007FFFFFFFFFFE0000
00001FFFFFFFFFFC0000
000007FFFFFFFFF00000
000001FFFFFFFFC00000
0000007FFFFFFE000000
0000000FFFFFF0000000
000000007FFE00000000
ENDCHAR
STARTCHAR D
ENCODING 68
SWIDTH 722 0
DWIDTH 87 0
BBX 73 89 9 -1
BITMAP
FFFFFFFFFFE000000000
FFFFFFFFFFFF00000000
FFFFFFFFFFFFE0000000
FFFFFFFFFFFFFC000000
FFFFFFFFFFFFFF000000
FFFFFFFFFFFFFF800000
FFFFFFFFFFFFFFC00000
FFFFFFFFFFFFFFF00000
FFFFFFFFFFFFFFF80000
FFFFFFFFFFFFFFFC0000
FFFFFFFFFFFFFFFC0000
FFFFFFFFFFFFFFFE0000
FFFFFFFFFFFFFFFF0000
FFFFFFFFFFFFFFFF8000
FFFFFFFFFFFFFFFF8000
FFFFC00000FFFFFFC000
FFFFC000001FFFFFC000
FFFFC0000007FFFFE000
FFFFC0000003FFFFE000
FFFFC0000001FFFFF000
FFFFC0000000FFFFF000
FFFFC00000007FFFF800
FFFFC00000003FFFF800
FFFFC00000003FFFF800
FFFFC00000001FFFFC00
FFFFC00000001FFFFC00
FFFFC00000000FFFFC00
FFFFC00000000FFFFE00
FFFFC000000007FFFE00
FFFFC000000007FFFE00
FFFFC000000007FFFE00
FFFFC000000007FFFE00
FFFFC000000003FFFF00
FFFFC000000003FFFF00
FFFFC000000003FFFF00
FFFFC000000003FFFF00
FFFFC000000003FFFF00
FFFFC000000003FFFF00
FFFFC000000003FFFF00
FFFFC000000001FFFF80
FFFFC000000001FFFF80
FFFFC000000001FFFF80
FFFFC000000001FFFF80
FFFFC000000001FFFF80
FFFFC000000001FFFF80
FFFFC000000001FFFF80
FFFFC000000001FFFF80
FFFFC000000001FFFF80
FFFFC000000001FFFF80
FFFFC000000001FFFF80
FFFFC000000003FFFF00
FFFFC000000003FFFF00
FFFFC000000003FFFF00
FFFFC000000003FFFF00
FFFFC000000003FFFF00
FFFFC000000003FFFF00
FFFFC000000003FFFF00
FFFFC000000007FFFF00
FFFFC000000007FFFE00
FFFFC000000007FFFE00
FFFFC000000007FFFE00
FFFFC00000000FFFFE00
FFFFC00000000FFFFC00
FFFFC00000001FFFFC00
FFFFC00000001FFFFC00
FFFFC00000003FFFF800
FFFFC00000003FFFF800
FFFFC00000007FFFF800
FFFFC0000000FFFFF000
FFFFC0000001FFFFF000
FFFFC0000003FFFFE000
FFFFC000000FFFFFE000
FFFFC000001FFFFFC000
FFFFC00001FFFFFFC000
FFFFFFFFFFFFFFFF8000
FFFFFFFFFFFFFFFF8000
FFFFFFFFFFFFFFFF0000
FFFFFFFFFFFFFFFE0000
FFFFFFFFFFFFFFFC0000
FFFFFFFFFFFFFFFC0000
FFFFFFFFFFFFFFF80000
FFFFFFFFFFFFFFF00000
FFFFFFFFFFFFFFC00000
FFFFFFFFFFFFFF800000
FFFFFFFFFFFFFE000000
FFFFFFFFFFFFFC000000
FFFFFFFFFFFFE0000000
FFFFFFFFFFFF00000000
FFFFFFFFFFE000000000
ENDCHAR
STARTCHAR E
ENCODING 69
SWIDTH 667 0
DWIDTH 80 0
BBX 66 89 9 -1
BITMAP
FFFFFFFFFFFFFFFF00
FFFFFFFFFFFFFFFF00
FFFFFFFFFFFFFFFF00
FFFFFFFFFFFFFFFF00
FFFFFFFFFFFFFFFF00
FFFFFFFFFFFFFFFF00
FFFFFFFFFFFFFFFF00
FFFFFFFFFFFFFFFF00
FFFFFFFFFFFFFFFF00
FFFFFFFFFFFFFFFF00
FFFFFFFFFFFFFFFF00
FFFFFFFFFFFFFFFF00
FFFFFFFFFFFFFFFF00
FFFFFFFFFFFFFFFF00
FFFFFFFFFFFFFFFF00
FFFFC0000000000000
FFFFC0000000000000
FFFFC0000000000000
FFFFC0000000000000
FFFFC0000000000000
FFFFC0000000000000
FFFFC0000000000000
FFFFC0000000000000
FFFFC0000000000000
FFFFC0000000000000
FFFFC0000000000000
FFFFC0000000000000
FFFFC0000000000000
FFFFC0000000000000
FFFFC0000000000000
FFFFC0000000000000
FFFFC0000000000000
FFFFC0000000000000
FFFFC0000000000000
FFFFC0000000000000
FFFFC0000000000000
FFFFFFFFFFFFFFF000
FFFFFFFFFFFFFFF000
FFFFFFFFFFFFFFF000
FFFFFFFFFFFFFFF000
FFFFFFFFFFFFFFF000
FFFFFFFFFFFFFFF000
FFFFFFFFFFFFFFF000
FFFFFFFFFFFFFFF000
FFFFFFFFFFFFFFF000
FFFFFFFFFFFFFFF000
FFFFFFFFFFFFFFF000
FFFFFFFFFFFFFFF000
FFFFFFFFFFFFFFF000
FFFFFFFFFFFFFFF000
FFFFFFFFFFFFFFF000
FFFFC0000000000000
FFFFC0000000000000
FFFFC0000000000000
FFFFC0000000000000
FFFFC0000000000000
FFFFC0000000000000
FFFFC0000000000000
FFFFC0000000000000
FFFFC0000000000000
FFFFC0000000000000
FFFFC0000000000000
FFFFC0000000000000
FFFFC0000000000000
FFFFC0000000000000
FFFFC0000000000000
FFFFC0000000000000
FFFFC0000000000000
FFFFC0000000000000
FFFFC0000000000000
FFFFC0000000000000
FFFFC0000000000000
FFFFC0000000000000
FFFFC0000000000000
FFFFFFFFFFFFFFFFC0
FFFFFFFFFFFFFFFFC0
FFFFFFFFFFFFFFFFC0
FFFFFFFFFFFFFFFFC0
FFFFFFFFFFFFFFFFC0
FFFFFFFFFFFFFFFFC0
FFFFFFFFFFFFFFFFC0
FFFFFFFFFFFFFFFFC0
FFFFFFFFFFFFFFFFC0
FFFFFFFFFFFFFFFFC0
FFFFFFFFFFFFFFFFC0
FFFFFFFFFFFFFFFFC0
FFFFFFFFFFFFFFFFC0
FFFFFFFFFFFFFFFFC0
FFFFFFFFFFFFFFFFC0
ENDCHAR
STARTCHAR F
ENCODING 70
SWIDTH 611 0
DWIDTH 73 0
BBX 61 89 9 -1
BITMAP
FFFFFFFFFFFFFFF8
FFFFFFFFFFFFFFF8
FFFFFFFFFFFFFFF8
FFFFFFFFFFFFFFF8
FFFFFFFFFFFFFFF8
FFFFFFFFFFFFFFF8
FFFFFFFFFFFFFFF8
FFFFFFFFFFFFFFF8
FFFFFFFFFFFFFFF8
FFFFFFFFFFFFFFF8
FFFFFFFFFFFFFFF8
FFFFFFFFFFFFFFF8
FFFFFFFFFFFFFFF8
FFFFFFFFFFFFFFF8
FFFFFFFFFFFFFFF8
FFFFC00000000000
FFFFC00000000000
FFFFC00000000000
FFFFC00000000000
FFFFC00000000000
FFFFC00000000000
FFFFC00000000000
FFFFC00000000000
FFFFC00000000000
FFFFC00000000000
FFFFC00000000000
FFFFC00000000000
FFFFC00000000000
FFFFC00000000000
FFFFC00000000000
FFFFC00000000000
FFFFC00000000000
FFFFC00000000000
FFFFC00000000000
FFFFC00000000000
FFFFFFFFFFFFFF00
FFFFFFFFFFFFFF00
FFFFFFFFFFFFFF00
FFFFFFFFFFFFFF00
FFFFFFFFFFFFFF00
FFFFFFFFFFFFFF00
FFFFFFFFFFFFFF00
FFFFFFFFFFFFFF00
FFFFFFFFFFFFFF00
FFFFFFFFFFFFFF00
FFFFFFFFFFFFFF00
FFFFFFFFFFFFFF00
FFFFFFFFFFFFFF00
FFFFFFFFFFFFFF00
FFFFFFFFFFFFFF00
FFFFC00000000000
FFFFC00000000000
FFFFC00000000000
FFFFC00000000000
FFFFC00000000000
FFFFC00000000000
FFFFC00000000000
FFFFC00000000000
FFFFC00000000000
FFFFC00000000000
FFFFC00000000000
FFFFC00000000000
FFFFC00000000000
FFFFC00000000000
FFFFC00000000000
FFFFC00000000000
FFFFC00000000000
FFFFC00000000000
FFFFC00000000000
FFFFC00000000000
FFFFC00000000000
FFFFC00000000000
FFFFC00000000000
FFFFC00000000000
FFFFC00000000000
FFFFC00000000000
FFFFC00000000000
FFFFC00000000000
FFFFC00000000000
FFFFC00000000000
FFFFC00000000000
FFFFC00000000000
FFFFC00000000000
FFFFC00000000000
FFFFC00000000000
FFFFC00000000000
FFFFC00000000000
FFFFC00000000000
FFFFC00000000000
ENDCHAR
STARTCHAR G
ENCODING 71
SWIDTH 778 0
DWIDTH 93 0
BBX 80 92 5 -3
BITMAP
000000001FFFC0000000
00000003FFFFFE000000
0000001FFFFFFFC00000
0000007FFFFFFFF80000
000001FFFFFFFFFE0000
000007FFFFFFFFFF8000
00001FFFFFFFFFFFC000
00003FFFFFFFFFFFF000
0000FFFFFFFFFFFFF800
0001FFFFFFFFFFFFFC00
0003FFFFFFFFFFFFFE00
0007FFFFFFFFFFFFFF00
000FFFFFFFFFFFFFFF80
001FFFFFFFFFFFFFFFC0
003FFFFFFFFFFFFFFFE0
007FFFFFFF03FFFFFFE0
007FFFFFE0001FFFFFF0
00FFFFFF000007FFFFF8
01FFFFFC000001FFFFF8
01FFFFF80000007FFFFC
03FFFFE00000003FFFFC
03FFFFC00000001FFFFC
07FFFF800000000FFFFE
07FFFF0000000007FFFE
0FFFFF0000000007FFFE
0FFFFE0000000003FFFF
1FFFFC0000000003FFFF
1FFFFC0000000001FFFF
1FFFF80000000001FFFF
3FFFF800000000000000
3FFFF800000000000000
3FFFF000000000000000
3FFFF000000000000000
7FFFF000000000000000
7FFFE000000000000000
7FFFE000000000000000
7FFFE000000000000000
7FFFE000000000000000
FFFFE000000000000000
FFFFC000000000000000
FFFFC000000000000000
FFFFC000000000000000
FFFFC0000007FFFFFFFF
FFFFC0000007FFFFFFFF
FFFFC0000007FFFFFFFF
FFFFC0000007FFFFFFFF
FFFFC0000007FFFFFFFF
FFFFC0000007FFFFFFFF
FFFFC0000007FFFFFFFF
FFFFC0000007FFFFFFFF
FFFFC0000007FFFFFFFF
FFFFC0000007FFFFFFFF
FFFFE0000007FFFFFFFF
FFFFE0000007FFFFFFFF
7FFFE0000007FFFFFFFF
7FFFE0000007FFFFFFFF
7FFFE0000007FFFFFFFF
7FFFF000000000007FFF
7FFFF000000000007FFF
3FFFF000000000007FFF
3FFFF800000000007FFF
3FFFF80000000000FFFF
3FFFFC0000000000FFFF
1FFFFC0000000000FFFF
1FFFFE0000000001FFFF
1FFFFE0000000001FFFF
0FFFFF0000000003FFFF
0FFFFF8000000007FFFF
07FFFF8000000007FFFF
07FFFFC00000000FFFFF
03FFFFE00000001FFFFF
03FFFFF00000007FFFFF
01FFFFFC000000FFFFFF
00FFFFFE000003FFFFFF
00FFFFFF800007FFFFFF
007FFFFFF0003FFFFFFF
003FFFFFFF07FFFFFFFF
003FFFFFFFFFFFFFFFFF
001FFFFFFFFFFFFFFFFF
000FFFFFFFFFFFFFCFFF
0007FFFFFFFFFFFFCFFF
0003FFFFFFFFFFFF8FFF
0001FFFFFFFFFFFF0FFF
0000FFFFFFFFFFFE0FFF
00003FFFFFFFFFFC07FF
00001FFFFFFFFFF807FF
000007FFFFFFFFE007FF
000003FFFFFFFFC007FF
000000FFFFFFFF0007FF
0000001FFFFFFC000000
00000003FFFFF0000000
000000001FFF00000000
ENDCHAR
STARTCHAR H
ENCODING 72
SWIDTH 722 0
DWIDTH 87 0
BBX 71 89 8 -1
BITMAP
FFFFC000000007FFFE
FFFFC000000007FFFE
FFFFC000000007FFFE
FFFFC000000007FFFE
FFFFC000000007FFFE
FFFFC000000007FFFE
FFFFC000000007FFFE
FFFFC000000007FFFE
FFFFC000000007FFFE
FFFFC000000007FFFE
FFFFC000000007FFFE
FFFFC000000007FFFE
FFFFC000000007FFFE
FFFFC000000007FFFE
FFFFC000000007FFFE
FFFFC000000007FFFE
FFFFC000000007FFFE
FFFFC000000007FFFE
FFFFC000000007FFFE
FFFFC000000007FFFE
FFFFC000000007FFFE
FFFFC000000007FFFE
FFFFC000000007FFFE
FFFFC000000007FFFE
FFFFC000000007FFFE
FFFFC000000007FFFE
FFFFC000000007FFFE
FFFFC000000007FFFE
FFFFC000000007FFFE
FFFFC000000007FFFE
FFFFC000000007FFFE
FFFFC000000007FFFE
FFFFC000000007FFFE
FFFFFFFFFFFFFFFFFE
FFFFFFFFFFFFFFFFFE
FFFFFFFFFFFFFFFFFE
FFFFFFFFFFFFFFFFFE
FFFFFFFFFFFFFFFFFE
FFFFFFFFFFFFFFFFFE
FFFFFFFFFFFFFFFFFE
FFFFFFFFFFFFFFFFFE
FFFFFFFFFFFFFFFFFE
FFFFFFFFFFFFFFFFFE
FFFFFFFFFFFFFFFFFE
FFFFFFFFFFFFFFFFFE
FFFFFFFFFFFFFFFFFE
FFFFFFFFFFFFFFFFFE
FFFFFFFFFFFFFFFFFE
FFFFC000000007FFFE
FFFFC000000007FFFE
FFFFC000000007FFFE
FFFFC000000007FFFE
FFFFC000000007FFFE
FFFFC000000007FFFE
FFFFC000000007FFFE
FFFFC000000007FFFE
FFFFC000000007FFFE
FFFFC000000007FFFE
FFFFC000000007FFFE
FFFFC000000007FFFE
FFFFC000000007FFFE
FFFFC000000007FFFE
FFFFC000000007FFFE
FFFFC000000007FFFE
FFFFC000000007FFFE
FFFFC000000007FFFE
FFFFC000000007FFFE
FFFFC000000007FFFE
FFFFC000000007FFFE
FFFFC000000007FFFE
FFFFC000000007FFFE
FFFFC000000007FFFE
FFFFC000000007FFFE
FFFFC000000007FFFE
FFFFC000000007FFFE
FFFFC000000007FFFE
FFFFC000000007FFFE
FFFFC000000007FFFE
FFFFC000000007FFFE
FFFFC000000007FFFE
FFFFC000000007FFFE
FFFFC000000007FFFE
FFFFC000000007FFFE
FFFFC000000007FFFE
FFFFC000000007FFFE
FFFFC000000007FFFE
FFFFC000000007FFFE
FFFFC000000007FFFE
FFFFC000000007FFFE
ENDCHAR
STARTCHAR I
ENCODING 73
SWIDTH 278 0
DWIDTH 33 0
BBX 18 89 8 -1
BITMAP
FFFFC0
FFFFC0
FFFFC0
FFFFC0
FFFFC0
FFFFC0
FFFFC0
FFFFC0
FFFFC0
FFFFC0
FFFFC0
FFFFC0
FFFFC0
FFFFC0
FFFFC0
FFFFC0
FFFFC0
FFFFC0
FFFFC0
FFFFC0
FFFFC0
FFFFC0
FFFFC0
FFFFC0
FFFFC0
FFFFC0
FFFFC0
FFFFC0
FFFFC0
FFFFC0
FFFFC0
FFFFC0
FFFFC0
FFFFC0
FFFFC0
FFFFC0
FFFFC0
FFFFC0
FFFFC0
FFFFC0
FFFFC0
FFFFC0
FFFFC0
FFFFC0
FFFFC0
FFFFC0
FFFFC0
FFFFC0
FFFFC0
FFFFC0
FFFFC0
FFFFC0
FFFFC0
FFFFC0
FFFFC0
FFFFC0
FFFFC0
FFFFC0
FFFFC0
FFFFC0
FFFFC0
FFFFC0
FFFFC0
FFFFC0
FFFFC0
FFFFC0
FFFFC0
FFFFC0
FFFFC0
FFFFC0
FFFFC0
FFFFC0
FFFFC0
FFFFC0
FFFFC0
FFFFC0
FFFFC0
FFFFC0
FFFFC0
FFFFC0
FFFFC0
FFFFC0
FFFFC0
FFFFC0
FFFFC0
FFFFC0
FFFFC0
FFFFC0
FFFFC0
ENDCHAR
STARTCHAR J
ENCODING 74
SWIDTH 556 0
DWIDTH 67 0
BBX 55 91 3 -3
BITMAP
0000000007FFFE
0000000007FFFE
0000000007FFFE
0000000007FFFE
0000000007FFFE
0000000007FFFE
0000000007FFFE
0000000007FFFE
0000000007FFFE
0000000007FFFE
0000000007FFFE
0000000007FFFE
0000000007FFFE
0000000007FFFE
0000000007FFFE
0000000007FFFE
0000000007FFFE
0000000007FFFE
0000000007FFFE
0000000007FFFE
0000000007FFFE
0000000007FFFE
0000000007FFFE
0000000007FFFE
0000000007FFFE
0000000007FFFE
0000000007FFFE
0000000007FFFE
0000000007FFFE
0000000007FFFE
0000000007FFFE
0000000007FFFE
0000000007FFFE
0000000007FFFE
0000000007FFFE
0000000007FFFE
0000000007FFFE
0000000007FFFE
0000000007FFFE
0000000007FFFE
0000000007FFFE
0000000007FFFE
0000000007FFFE
0000000007FFFE
0000000007FFFE
0000000007FFFE
0000000007FFFE
0000000007FFFE
0000000007FFFE
0000000007FFFE
0000000007FFFE
0000000007FFFE
0000000007FFFE
0000000007FFFE
0000000007FFFE
0000000007FFFE
FFFFC00007FFFE
FFFFC00007FFFE
FFFFC00007FFFE
FFFFC00007FFFE
FFFFC00007FFFE
FFFFC00007FFFE
FFFFC00007FFFE
FFFFC00007FFFE
FFFFC00007FFFE
FFFFC00007FFFE
FFFFC00007FFFE
FFFFC00007FFFE
FFFFC00007FFFE
FFFFC00007FFFE
FFFFE0000FFFFE
FFFFE0000FFFFE
7FFFF0001FFFFE
7FFFF8003FFFFC
7FFFFC007FFFFC
7FFFFF83FFFFFC
3FFFFFFFFFFFF8
3FFFFFFFFFFFF8
1FFFFFFFFFFFF0
1FFFFFFFFFFFF0
0FFFFFFFFFFFE0
07FFFFFFFFFFE0
03FFFFFFFFFFC0
01FFFFFFFFFF80
00FFFFFFFFFF00
007FFFFFFFFE00
003FFFFFFFF800
000FFFFFFFF000
0003FFFFFF8000
00007FFFFE0000
000007FFC00000
ENDCHAR
STARTCHAR K
ENCODING 75
SWIDTH 722 0
DWIDTH 87 0
BBX 77 89 9 -1
BITMAP
FFFFC00000000FFFFF80
FFFFC00000001FFFFF00
FFFFC00000003FFFFE00
FFFFC00000007FFFFC00
FFFFC0000000FFFFF800
FFFFC0000001FFFFF000
FFFFC0000003FFFFE000
FFFFC0000007FFFFC000
FFFFC0000007FFFFC000
FFFFC000000FFFFF8000
FFFFC000001FFFFF0000
FFFFC000003FFFFE0000
FFFFC000007FFFFC0000
FFFFC00000FFFFF80000
FFFFC00001FFFFF00000
FFFFC00003FFFFE00000
FFFFC00003FFFFC00000
FFFFC00007FFFF800000
FFFFC0000FFFFF000000
FFFFC0001FFFFF000000
FFFFC0003FFFFE000000
FFFFC0007FFFFC000000
FFFFC000FFFFF8000000
FFFFC001FFFFF0000000
FFFFC001FFFFE0000000
FFFFC003FFFFC0000000
FFFFC007FFFF80000000
FFFFC00FFFFF00000000
FFFFC01FFFFE00000000
FFFFC03FFFFC00000000
FFFFC07FFFFC00000000
FFFFC0FFFFF800000000
FFFFC0FFFFF000000000
FFFFC1FFFFE000000000
FFFFC3FFFFC000000000
FFFFC7FFFF8000000000
FFFFCFFFFF0000000000
FFFFDFFFFE0000000000
FFFFFFFFFE0000000000
FFFFFFFFFE0000000000
FFFFFFFFFF0000000000
FFFFFFFFFF8000000000
FFFFFFFFFFC000000000
FFFFFFFFFFC000000000
FFFFFFFFFFE000000000
FFFFFFFFFFF000000000
FFFFFFFFFFF800000000
FFFFFFFFFFF800000000
FFFFFFFFFFFC00000000
FFFFFFFFFFFE00000000
FFFFFFDFFFFF00000000
FFFFFF8FFFFF00000000
FFFFFF07FFFF80000000
FFFFFE03FFFFC0000000
FFFFFC03FFFFE0000000
FFFFF801FFFFF0000000
FFFFF000FFFFF0000000
FFFFF0007FFFF8000000
FFFFE0007FFFFC000000
FFFFC0003FFFFE000000
FFFFC0001FFFFE000000
FFFFC0001FFFFF000000
FFFFC0000FFFFF800000
FFFFC00007FFFFC00000
FFFFC00003FFFFC00000
FFFFC00003FFFFE00000
FFFFC00001FFFFF00000
FFFFC00000FFFFF80000
FFFFC000007FFFF80000
FFFFC000007FFFFC0000
FFFFC000003FFFFE0000
FFFFC000001FFFFF0000
FFFFC000001FFFFF0000
FFFFC000000FFFFF8000
FFFFC0000007FFFFC000
FFFFC0000003FFFFE000
FFFFC0000003FFFFF000
FFFFC0000001FFFFF000
FFFFC0000000FFFFF800
FFFFC00000007FFFFC00
FFFFC00000007FFFFE00
FFFFC00000003FFFFE00
FFFFC00000001FFFFF00
FFFFC00000000FFFFF80
FFFFC00000000FFFFFC0
FFFFC000000007FFFFC0
FFFFC000000003FFFFE0
FFFFC000000003FFFFF0
FFFFC000000001FFFFF8
ENDCHAR
STARTCHAR L
ENCODING 76
SWIDTH 611 0
DWIDTH 73 0
BBX 59 89 10 -1
BITMAP
FFFFC00000000000
FFFFC00000000000
FFFFC00000000000
FFFFC00000000000
FFFFC00000000000
FFFFC00000000000
FFFFC00000000000
FFFFC00000000000
FFFFC00000000000
FFFFC00000000000
FFFFC00000000000
FFFFC00000000000
FFFFC00000000000
FFFFC00000000000
FFFFC00000000000
FFFFC00000000000
FFFFC00000000000
FFFFC00000000000
FFFFC00000000000
FFFFC00000000000
FFFFC00000000000
FFFFC00000000000
FFFFC00000000000
FFFFC00000000000
FFFFC00000000000
FFFFC00000000000
FFFFC00000000000
FFFFC00000000000
FFFFC00000000000
FFFFC00000000000
FFFFC00000000000
FFFFC00000000000
FFFFC00000000000
FFFFC00000000000
FFFFC00000000000
FFFFC00000000000
FFFFC00000000000
FFFFC00000000000
FFFFC00000000000
FFFFC00000000000
FFFFC00000000000
FFFFC00000000000
FFFFC00000000000
FFFFC00000000000
FFFFC00000000000
FFFFC00000000000
FFFFC00000000000
FFFFC00000000000
FFFFC00000000000
FFFFC00000000000
FFFFC00000000000
FFFFC00000000000
FFFFC00000000000
FFFFC00000000000
FFFFC00000000000
FFFFC00000000000
FFFFC00000000000
FFFFC00000000000
FFFFC00000000000
FFFFC00000000000
FFFFC00000000000
FFFFC00000000000
FFFFC00000000000
FFFFC00000000000
FFFFC00000000000
FFFFC00000000000
FFFFC00000000000
FFFFC00000000000
FFFFC00000000000
FFFFC00000000000
FFFFC00000000000
FFFFC00000000000
FFFFC00000000000
FFFFC00000000000
FFFFFFFFFFFFFFE0
FFFFFFFFFFFFFFE0
FFFFFFFFFFFFFFE0
FFFFFFFFFFFFFFE0
FFFFFFFFFFFFFFE0
FFFFFFFFFFFFFFE0
FFFFFFFFFFFFFFE0
FFFFFFFFFFFFFFE0
FFFFFFFFFFFFFFE0
FFFFFFFFFFFFFFE0
FFFFFFFFFFFFFFE0
FFFFFFFFFFFFFFE0
FFFFFFFFFFFFFFE0
FFFFFFFFFFFFFFE0
FFFFFFFFFFFFFFE0
ENDCHAR
STARTCHAR M
ENCODING 77
SWIDTH 833 0
DWIDTH 100 0
BBX 85 89 8 -1
BITMAP
FFFFFFE00000003FFFFFF8
FFFFFFE00000003FFFFFF8
FFFFFFE00000007FFFFFF8
FFFFFFF00000007FFFFFF8
FFFFFFF00000007FFFFFF8
FFFFFFF00000007FFFFFF8
FFFFFFF00000007FFFFFF8
FFFFFFF0000000FFFFFFF8
FFFFFFF8000000FFFFFFF8
FFFFFFF8000000FFFFFFF8
FFFFFFF8000000FFFFFFF8
FFFFFFF8000001FFFFFFF8
FFFFFFFC000001FFFFFFF8
FFFFFFFC000001FFFFFFF8
FFFFFFFC000001FFFFFFF8
FFFFFFFC000001FFFFFFF8
FFFFFFFC000003FFFFFFF8
FFFFFFFE000003FFFFFFF8
FFFFFFFE000003FFFFFFF8
FFFFFFFE000003FFFFFFF8
FFFFFFFE000003FFFFFFF8
FFFFFFFF000007FFFFFFF8
FFFFDFFF000007FFDFFFF8
FFFFDFFF000007FFDFFFF8
FFFFDFFF000007FFDFFFF8
FFFFDFFF80000FFFDFFFF8
FFFFDFFF80000FFFDFFFF8
FFFFCFFF80000FFF9FFFF8
FFFFCFFF80000FFF9FFFF8
FFFFCFFF80000FFF9FFFF8
FFFFCFFFC0001FFF9FFFF8
FFFFC7FFC0001FFF1FFFF8
FFFFC7FFC0001FFF1FFFF8
FFFFC7FFC0001FFF1FFFF8
FFFFC7FFE0001FFF1FFFF8
FFFFC7FFE0003FFF1FFFF8
FFFFC3FFE0003FFE1FFFF8
FFFFC3FFE0003FFE1FFFF8
FFFFC3FFE0003FFE1FFFF8
FFFFC3FFF0007FFE1FFFF8
FFFFC1FFF0007FFC1FFFF8
FFFFC1FFF0007FFC1FFFF8
FFFFC1FFF0007FFC1FFFF8
FFFFC1FFF8007FFC1FFFF8
FFFFC0FFF800FFFC1FFFF8
FFFFC0FFF800FFF81FFFF8
FFFFC0FFF800FFF81FFFF8
FFFFC0FFF800FFF81FFFF8
FFFFC0FFFC01FFF81FFFF8
FFFFC07FFC01FFF01FFFF8
FFFFC07FFC01FFF01FFFF8
FFFFC07FFC01FFF01FFFF8
FFFFC07FFE01FFF01FFFF8
FFFFC03FFE03FFF01FFFF8
FFFFC03FFE03FFE01FFFF8
FFFFC03FFE03FFE01FFFF8
FFFFC03FFE03FFE01FFFF8
FFFFC03FFF03FFE01FFFF8
FFFFC01FFF07FFC01FFFF8
FFFFC01FFF07FFC01FFFF8
FFFFC01FFF07FFC01FFFF8
FFFFC01FFF87FFC01FFFF8
FFFFC00FFF8FFFC01FFFF8
FFFFC00FFF8FFF801FFFF8
FFFFC00FFF8FFF801FFFF8
FFFFC00FFF8FFF801FFFF8
FFFFC007FFCFFF801FFFF8
FFFFC007FFDFFF001FFFF8
FFFFC007FFDFFF001FFFF8
FFFFC007FFDFFF001FFFF8
FFFFC007FFFFFF001FFFF8
FFFFC003FFFFFF001FFFF8
FFFFC003FFFFFE001FFFF8
FFFFC003FFFFFE001FFFF8
FFFFC003FFFFFE001FFFF8
FFFFC001FFFFFE001FFFF8
FFFFC001FFFFFC001FFFF8
FFFFC001FFFFFC001FFFF8
FFFFC001FFFFFC001FFFF8
FFFFC001FFFFFC001FFFF8
FFFFC000FFFFFC001FFFF8
FFFFC000FFFFF8001FFFF8
FFFFC000FFFFF8001FFFF8
FFFFC000FFFFF8001FFFF8
FFFFC0007FFFF8001FFFF8
FFFFC0007FFFF0001FFFF8
FFFFC0007FFFF0001FFFF8
FFFFC0007FFFF0001FFFF8
FFFFC0007FFFF0001FFFF8
ENDCHAR
STARTCHAR N
ENCODING 78
SWIDTH 722 0
DWIDTH 87 0
BBX 71 89 8 -1
BITMAP
FFFFE000000007FFFE
FFFFE000000007FFFE
FFFFF000000007FFFE
FFFFF800000007FFFE
FFFFF800000007FFFE
FFFFFC00000007FFFE
FFFFFC00000007FFFE
FFFFFE00000007FFFE
FFFFFF00000007FFFE
FFFFFF00000007FFFE
FFFFFF80000007FFFE
FFFFFF80000007FFFE
FFFFFFC0000007FFFE
FFFFFFC0000007FFFE
FFFFFFE0000007FFFE
FFFFFFF0000007FFFE
FFFFFFF0000007FFFE
FFFFFFF8000007FFFE
FFFFFFF8000007FFFE
FFFFFFFC000007FFFE
FFFFFFFC000007FFFE
FFFFFFFE000007FFFE
FFFFFFFF000007FFFE
FFFFFFFF000007FFFE
FFFFFFFF800007FFFE
FFFFFFFF800007FFFE
FFFFFFFFC00007FFFE
FFFFFFFFC00007FFFE
FFFFDFFFE00007FFFE
FFFFDFFFF00007FFFE
FFFFCFFFF00007FFFE
FFFFCFFFF80007FFFE
FFFFC7FFF80007FFFE
FFFFC3FFFC0007FFFE
FFFFC3FFFC0007FFFE
FFFFC1FFFE0007FFFE
FFFFC1FFFF0007FFFE
FFFFC0FFFF0007FFFE
FFFFC0FFFF8007FFFE
FFFFC07FFF8007FFFE
FFFFC03FFFC007FFFE
FFFFC03FFFC007FFFE
FFFFC01FFFE007FFFE
FFFFC01FFFF007FFFE
FFFFC00FFFF007FFFE
FFFFC00FFFF807FFFE
FFFFC007FFF807FFFE
FFFFC003FFFC07FFFE
FFFFC003FFFC07FFFE
FFFFC001FFFE07FFFE
FFFFC001FFFF07FFFE
FFFFC000FFFF07FFFE
FFFFC000FFFF87FFFE
FFFFC0007FFF87FFFE
FFFFC0003FFFC7FFFE
FFFFC0003FFFC7FFFE
FFFFC0001FFFE7FFFE
FFFFC0001FFFF7FFFE
FFFFC0000FFFF7FFFE
FFFFC0000FFFFFFFFE
FFFFC00007FFFFFFFE
FFFFC00003FFFFFFFE
FFFFC00003FFFFFFFE
FFFFC00001FFFFFFFE
FFFFC00001FFFFFFFE
FFFFC00000FFFFFFFE
FFFFC00000FFFFFFFE
FFFFC000007FFFFFFE
FFFFC000003FFFFFFE
FFFFC000003FFFFFFE
FFFFC000001FFFFFFE
FFFFC000001FFFFFFE
FFFFC000000FFFFFFE
FFFFC000000FFFFFFE
FFFFC0000007FFFFFE
FFFFC0000003FFFFFE
FFFFC0000003FFFFFE
FFFFC0000001FFFFFE
FFFFC0000001FFFFFE
FFFFC0000000FFFFFE
FFFFC0000000FFFFFE
FFFFC00000007FFFFE
FFFFC00000003FFFFE
FFFFC00000003FFFFE
FFFFC00000001FFFFE
FFFFC00000001FFFFE
FFFFC00000000FFFFE
FFFFC00000000FFFFE
FFFFC000000007FFFE
ENDCHAR
STARTCHAR O
ENCODING 79
SWIDTH 778 0
DWIDTH 93 0
BBX 84 92 5 -3
BITMAP
000000003FFF8000000000
00000003FFFFFC00000000
0000003FFFFFFF80000000
000000FFFFFFFFF0000000
000003FFFFFFFFFC000000
00000FFFFFFFFFFF000000
00001FFFFFFFFFFF800000
00007FFFFFFFFFFFE00000
0000FFFFFFFFFFFFF00000
0001FFFFFFFFFFFFF80000
0003FFFFFFFFFFFFFC0000
0007FFFFFFFFFFFFFE0000
000FFFFFFFFFFFFFFF0000
001FFFFFFFFFFFFFFF8000
003FFFFFFFFFFFFFFFC000
007FFFFFFF07FFFFFFE000
00FFFFFFE0007FFFFFE000
00FFFFFF00000FFFFFF000
01FFFFFC000003FFFFF800
01FFFFF8000001FFFFF800
03FFFFE0000000FFFFFC00
07FFFFC00000007FFFFC00
07FFFF800000003FFFFE00
0FFFFF800000001FFFFE00
0FFFFF000000000FFFFF00
0FFFFE0000000007FFFF00
1FFFFC0000000007FFFF00
1FFFFC0000000003FFFF80
1FFFF80000000003FFFF80
3FFFF80000000001FFFFC0
3FFFF80000000001FFFFC0
3FFFF00000000000FFFFC0
7FFFF00000000000FFFFC0
7FFFE00000000000FFFFE0
7FFFE000000000007FFFE0
7FFFE000000000007FFFE0
7FFFE000000000007FFFE0
FFFFE000000000007FFFE0
FFFFC000000000007FFFE0
FFFFC000000000003FFFF0
FFFFC000000000003FFFF0
FFFFC000000000003FFFF0
FFFFC000000000003FFFF0
FFFFC000000000003FFFF0
FFFFC000000000003FFFF0
FFFFC000000000003FFFF0
FFFFC000000000003FFFF0
FFFFC000000000003FFFF0
FFFFC000000000003FFFF0
FFFFC000000000003FFFF0
FFFFC000000000003FFFF0
FFFFC000000000003FFFF0
FFFFC000000000003FFFF0
FFFFC000000000007FFFF0
FFFFC000000000007FFFE0
7FFFE000000000007FFFE0
7FFFE000000000007FFFE0
7FFFE000000000007FFFE0
7FFFE00000000000FFFFE0
7FFFF00000000000FFFFC0
3FFFF00000000000FFFFC0
3FFFF00000000001FFFFC0
3FFFF80000000001FFFFC0
1FFFF80000000003FFFF80
1FFFFC0000000003FFFF80
1FFFFE0000000007FFFF80
0FFFFE0000000007FFFF00
0FFFFF000000000FFFFF00
0FFFFF800000001FFFFE00
07FFFF800000003FFFFE00
07FFFFC00000007FFFFC00
03FFFFE0000000FFFFFC00
01FFFFF8000001FFFFF800
01FFFFFC000007FFFFF800
00FFFFFF00000FFFFFF000
00FFFFFFE0007FFFFFE000
007FFFFFFE0FFFFFFFE000
003FFFFFFFFFFFFFFFC000
001FFFFFFFFFFFFFFF8000
000FFFFFFFFFFFFFFF0000
0007FFFFFFFFFFFFFE0000
0003FFFFFFFFFFFFFC0000
0001FFFFFFFFFFFFF80000
0000FFFFFFFFFFFFF00000
00007FFFFFFFFFFFE00000
00001FFFFFFFFFFF800000
00000FFFFFFFFFFF000000
000003FFFFFFFFFC000000
000000FFFFFFFFF0000000
0000003FFFFFFF80000000
00000007FFFFFC00000000
000000001FFF8000000000
ENDCHAR
STARTCHAR P
ENCODING 80
SWIDTH 667 0
DWIDTH 80 0
BBX 67 89 9 -1
BITMAP
FFFFFFFFFFFC000000
FFFFFFFFFFFFC00000
FFFFFFFFFFFFF80000
FFFFFFFFFFFFFE0000
FFFFFFFFFFFFFF0000
FFFFFFFFFFFFFFC000
FFFFFFFFFFFFFFE000
FFFFFFFFFFFFFFF000
FFFFFFFFFFFFFFF800
FFFFFFFFFFFFFFFC00
FFFFFFFFFFFFFFFE00
FFFFFFFFFFFFFFFE00
FFFFFFFFFFFFFFFF00
FFFFFFFFFFFFFFFF00
FFFFFFFFFFFFFFFF80
FFFFC00000FFFFFF80
FFFFC000001FFFFF80
FFFFC000000FFFFFC0
FFFFC0000003FFFFC0
FFFFC0000001FFFFC0
FFFFC0000001FFFFC0
FFFFC0000000FFFFE0
FFFFC0000000FFFFE0
FFFFC0000000FFFFE0
FFFFC00000007FFFE0
FFFFC00000007FFFE0
FFFFC00000007FFFE0
FFFFC00000007FFFE0
FFFFC00000007FFFE0
FFFFC00000007FFFE0
FFFFC00000007FFFE0
FFFFC00000007FFFE0
FFFFC00000007FFFE0
FFFFC0000000FFFFE0
FFFFC0000000FFFFC0
FFFFC0000000FFFFC0
FFFFC0000001FFFFC0
FFFFC0000001FFFFC0
FFFFC0000003FFFF80
FFFFC0000007FFFF80
FFFFC000001FFFFF80
FFFFC00000FFFFFF00
FFFFFFFFFFFFFFFF00
FFFFFFFFFFFFFFFF00
FFFFFFFFFFFFFFFE00
FFFFFFFFFFFFFFFC00
FFFFFFFFFFFFFFFC00
FFFFFFFFFFFFFFF800
FFFFFFFFFFFFFFF000
FFFFFFFFFFFFFFE000
FFFFFFFFFFFFFFC000
FFFFFFFFFFFFFF8000
FFFFFFFFFFFFFF0000
FFFFFFFFFFFFFC0000
FFFFFFFFFFFFF00000
FFFFFFFFFFFFC00000
FFFFFFFFFFFC000000
FFFFC0000000000000
FFFFC0000000000000
FFFFC0000000000000
FFFFC0000000000000
FFFFC0000000000000
FFFFC0000000000000
FFFFC0000000000000
FFFFC0000000000000
FFFFC0000000000000
FFFFC0000000000000
FFFFC0000000000000
FFFFC0000000000000
FFFFC0000000000000
FFFFC0000000000000
FFFFC0000000000000
FFFFC0000000000000
FFFFC0000000000000
FFFFC0000000000000
FFFFC0000000000000
FFFFC0000000000000
FFFFC0000000000000
FFFFC0000000000000
FFFFC0000000000000
FFFFC0000000000000
FFFFC0000000000000
FFFFC0000000000000
FFFFC0000000000000
FFFFC0000000000000
FFFFC0000000000000
FFFFC0000000000000
FFFFC0000000000000
FFFFC0000000000000
ENDCHAR
STARTCHAR Q
ENCODING 81
SWIDTH 778 0
DWIDTH 93 0
BBX 84 96 5 -7
BITMAP
000000001FFFC000000000
00000003FFFFFE00000000
0000001FFFFFFFC0000000
000000FFFFFFFFF0000000
000003FFFFFFFFFC000000
00000FFFFFFFFFFF000000
00001FFFFFFFFFFFC00000
00007FFFFFFFFFFFE00000
0000FFFFFFFFFFFFF00000
0001FFFFFFFFFFFFF80000
0003FFFFFFFFFFFFFE0000
0007FFFFFFFFFFFFFF0000
000FFFFFFFFFFFFFFF0000
001FFFFFFFFFFFFFFF8000
003FFFFFFFFFFFFFFFC000
003FFFFFFF0FFFFFFFE000
007FFFFFE0003FFFFFF000
00FFFFFF00000FFFFFF000
01FFFFFE000003FFFFF800
01FFFFF8000001FFFFFC00
03FFFFF00000007FFFFC00
03FFFFE00000003FFFFE00
07FFFFC00000001FFFFE00
07FFFF800000000FFFFF00
0FFFFF000000000FFFFF00
0FFFFE0000000007FFFF80
0FFFFE0000000003FFFF80
1FFFFC0000000003FFFF80
1FFFFC0000000001FFFFC0
1FFFF80000000001FFFFC0
3FFFF80000000000FFFFC0
3FFFF00000000000FFFFC0
3FFFF00000000000FFFFE0
7FFFF000000000007FFFE0
7FFFF000000000007FFFE0
7FFFE000000000007FFFE0
7FFFE000000000007FFFF0
7FFFE000000000003FFFF0
7FFFE000000000003FFFF0
FFFFE000000000003FFFF0
FFFFC000000000003FFFF0
FFFFC000000000003FFFF0
FFFFC000000000003FFFF0
FFFFC000000000003FFFF0
FFFFC000000000003FFFF0
FFFFC000000000003FFFF0
FFFFC000000000003FFFF0
FFFFC000000000003FFFF0
FFFFC000000000003FFFF0
FFFFC000000000003FFFF0
FFFFC000000000003FFFF0
FFFFC000000000003FFFF0
7FFFE000000000003FFFF0
7FFFE000000000003FFFF0
7FFFE000000000003FFFF0
7FFFE000000000003FFFF0
7FFFE000000008007FFFE0
7FFFF00000001C007FFFE0
3FFFF00000003E007FFFE0
3FFFF00000007F007FFFE0
3FFFF0000000FFC0FFFFC0
3FFFF8000001FFE0FFFFC0
1FFFF8000003FFF0FFFFC0
1FFFFC000007FFF9FFFFC0
1FFFFC00000FFFFDFFFF80
0FFFFE00001FFFFFFFFF80
0FFFFE00000FFFFFFFFF80
0FFFFF000007FFFFFFFF00
07FFFF800001FFFFFFFF00
07FFFFC00000FFFFFFFE00
03FFFFE000007FFFFFFE00
03FFFFF000003FFFFFFC00
01FFFFF800001FFFFFFC00
00FFFFFE00000FFFFFF800
00FFFFFF00000FFFFFF800
007FFFFFE0003FFFFFF000
003FFFFFFF07FFFFFFE000
003FFFFFFFFFFFFFFFE000
001FFFFFFFFFFFFFFFF000
000FFFFFFFFFFFFFFFFC00
0007FFFFFFFFFFFFFFFE00
0003FFFFFFFFFFFFFFFF00
0001FFFFFFFFFFFFFFFF80
0000FFFFFFFFFFFFFFFFC0
00007FFFFFFFFFFFFFFFE0
00001FFFFFFFFFFFFFFFF0
00000FFFFFFFFFFF7FFFF0
000003FFFFFFFFFC1FFFE0
000000FFFFFFFFF00FFFC0
0000001FFFFFFFC007FF80
00000003FFFFFE0003FF00
000000001FFFC00001FE00
000000000000000000FC00
0000000000000000007800
0000000000000000003000
0000000000000000001000
ENDCHAR
STARTCHAR R
ENCODING 82
SWIDTH 722 0
DWIDTH 87 0
BBX 71 89 10 -1
BITMAP
FFFFFFFFFFFFF80000
FFFFFFFFFFFFFF0000
FFFFFFFFFFFFFFE000
FFFFFFFFFFFFFFF000
FFFFFFFFFFFFFFFC00
FFFFFFFFFFFFFFFE00
FFFFFFFFFFFFFFFF00
FFFFFFFFFFFFFFFF80
FFFFFFFFFFFFFFFF80
FFFFFFFFFFFFFFFFC0
FFFFFFFFFFFFFFFFE0
FFFFFFFFFFFFFFFFE0
FFFFFFFFFFFFFFFFF0
FFFFFFFFFFFFFFFFF0
FFFFFFFFFFFFFFFFF0
FFFFC0000007FFFFF8
FFFFC0000000FFFFF8
FFFFC00000007FFFF8
FFFFC00000003FFFFC
FFFFC00000001FFFFC
FFFFC00000001FFFFC
FFFFC00000001FFFFC
FFFFC00000000FFFFC
FFFFC00000000FFFFC
FFFFC00000000FFFFC
FFFFC00000000FFFFC
FFFFC00000000FFFFC
FFFFC00000000FFFFC
FFFFC00000000FFFFC
FFFFC00000000FFFF8
FFFFC00000000FFFF8
FFFFC00000001FFFF8
FFFFC00000001FFFF8
FFFFC00000003FFFF0
FFFFC00000003FFFF0
FFFFC00000007FFFE0
FFFFC0000000FFFFE0
FFFFC0000007FFFFC0
FFFFFFFFFFFFFFFF80
FFFFFFFFFFFFFFFF00
FFFFFFFFFFFFFFFE00
FFFFFFFFFFFFFFFC00
FFFFFFFFFFFFFFF800
FFFFFFFFFFFFFFE000
FFFFFFFFFFFFFFC000
FFFFFFFFFFFFFE0000
FFFFFFFFFFFFFFC000
FFFFFFFFFFFFFFF000
FFFFFFFFFFFFFFF800
FFFFFFFFFFFFFFFE00
FFFFFFFFFFFFFFFF00
FFFFFFFFFFFFFFFF00
FFFFFFFFFFFFFFFF80
FFFFC000001FFFFF80
FFFFC0000007FFFFC0
FFFFC0000001FFFFC0
FFFFC0000000FFFFC0
FFFFC0000000FFFFC0
FFFFC00000007FFFC0
FFFFC00000007FFFE0
FFFFC00000007FFFE0
FFFFC00000007FFFE0
FFFFC00000007FFFE0
FFFFC00000007FFFE0
FFFFC00000007FFFE0
FFFFC00000007FFFE0
FFFFC00000007FFFE0
FFFFC00000007FFFE0
FFFFC00000007FFFE0
FFFFC00000007FFFE0
FFFFC00000007FFFE0
FFFFC00000007FFFE0
FFFFC00000007FFFE0
FFFFC00000007FFFE0
FFFFC00000007FFFE0
FFFFC00000007FFFE0
FFFFC00000007FFFE0
FFFFC00000007FFFE0
FFFFC00000007FFFE0
FFFFC00000007FFFE0
FFFFC00000007FFFF0
FFFFC00000003FFFF0
FFFFC00000003FFFF0
FFFFC00000003FFFF8
FFFFC00000003FFFFC
FFFFC00000003FFFFE
FFFFC00000001FFFFE
FFFFC00000001FFFFE
FFFFC00000000FFFFE
ENDCHAR
STARTCHAR S
ENCODING 83
SWIDTH 667 0
DWIDTH 80 0
BBX 72 92 4 -3
BITMAP
0000001FFFC0000000
000007FFFFFF000000
00003FFFFFFFE00000
0000FFFFFFFFFC0000
0003FFFFFFFFFF0000
000FFFFFFFFFFFC000
001FFFFFFFFFFFE000
007FFFFFFFFFFFF000
00FFFFFFFFFFFFF800
01FFFFFFFFFFFFFC00
01FFFFFFFFFFFFFE00
03FFFFFFFFFFFFFF00
07FFFFFFFFFFFFFF80
07FFFFFFFFFFFFFF80
0FFFFFFF07FFFFFFC0
0FFFFFC0003FFFFFC0
1FFFFF000007FFFFE0
1FFFFC000003FFFFE0
3FFFF8000000FFFFE0
3FFFF00000007FFFF0
3FFFF00000007FFFF0
3FFFE00000003FFFF0
3FFFE00000001FFFF0
3FFFE00000001FFFF0
7FFFE00000001FFFF8
7FFFE00000000FFFF8
7FFFE00000000FFFF8
7FFFE00000000FFFF8
7FFFE0000000000000
7FFFE0000000000000
3FFFF0000000000000
3FFFF8000000000000
3FFFFC000000000000
3FFFFF000000000000
3FFFFFC00000000000
1FFFFFFC0000000000
1FFFFFFFC000000000
1FFFFFFFFE00000000
0FFFFFFFFFF0000000
0FFFFFFFFFFF800000
07FFFFFFFFFFF80000
03FFFFFFFFFFFF8000
01FFFFFFFFFFFFE000
00FFFFFFFFFFFFF800
007FFFFFFFFFFFFE00
001FFFFFFFFFFFFF00
0007FFFFFFFFFFFF80
0001FFFFFFFFFFFFC0
00007FFFFFFFFFFFE0
000007FFFFFFFFFFF0
0000003FFFFFFFFFF8
00000001FFFFFFFFF8
000000000FFFFFFFFC
0000000000FFFFFFFC
000000000007FFFFFE
000000000001FFFFFE
0000000000007FFFFE
0000000000001FFFFE
0000000000000FFFFF
00000000000007FFFF
00000000000007FFFF
00000000000003FFFF
00000000000003FFFF
FFFF8000000003FFFF
FFFF8000000001FFFF
FFFFC000000001FFFF
FFFFC000000001FFFF
FFFFC000000001FFFF
FFFFE000000003FFFF
7FFFE000000003FFFE
7FFFF000000003FFFE
7FFFF000000007FFFE
3FFFF80000000FFFFE
3FFFFC0000001FFFFC
3FFFFF0000003FFFFC
1FFFFFC00000FFFFFC
1FFFFFF00007FFFFF8
0FFFFFFFC1FFFFFFF8
0FFFFFFFFFFFFFFFF0
07FFFFFFFFFFFFFFE0
03FFFFFFFFFFFFFFE0
01FFFFFFFFFFFFFFC0
00FFFFFFFFFFFFFF80
007FFFFFFFFFFFFF00
003FFFFFFFFFFFFE00
001FFFFFFFFFFFF800
0007FFFFFFFFFFF000
0001FFFFFFFFFFC000
0000FFFFFFFFFF0000
00001FFFFFFFF80000
000001FFFFFFC00000
0000000FFFF0000000
ENDCHAR
STARTCHAR T
ENCODING 84
SWIDTH 611 0
DWIDTH 73 0
BBX 70 89 2 -1
BITMAP
FFFFFFFFFFFFFFFFFC
FFFFFFFFFFFFFFFFFC
FFFFFFFFFFFFFFFFFC
FFFFFFFFFFFFFFFFFC
FFFFFFFFFFFFFFFFFC
FFFFFFFFFFFFFFFFFC
FFFFFFFFFFFFFFFFFC
FFFFFFFFFFFFFFFFFC
FFFFFFFFFFFFFFFFFC
FFFFFFFFFFFFFFFFFC
FFFFFFFFFFFFFFFFFC
FFFFFFFFFFFFFFFFFC
FFFFFFFFFFFFFFFFFC
FFFFFFFFFFFFFFFFFC
FFFFFFFFFFFFFFFFFC
0000003FFFF0000000
0000003FFFF0000000
0000003FFFF0000000
0000003FFFF0000000
0000003FFFF0000000
0000003FFFF0000000
0000003FFFF0000000
0000003FFFF0000000
0000003FFFF0000000
0000003FFFF0000000
0000003FFFF0000000
0000003FFFF0000000
0000003FFFF0000000
0000003FFFF0000000
0000003FFFF0000000
0000003FFFF0000000
0000003FFFF0000000
0000003FFFF0000000
0000003FFFF0000000
0000003FFFF0000000
0000003FFFF0000000
0000003FFFF0000000
0000003FFFF0000000
0000003FFFF0000000
0000003FFFF0000000
0000003FFFF0000000
0000003FFFF0000000
0000003FFFF0000000
0000003FFFF0000000
0000003FFFF0000000
0000003FFFF0000000
0000003FFFF0000000
0000003FFFF0000000
0000003FFFF0000000
0000003FFFF0000000
0000003FFFF0000000
0000003FFFF0000000
0000003FFFF0000000
0000003FFFF0000000
0000003FFFF0000000
0000003FFFF0000000
0000003FFFF0000000
0000003FFFF0000000
0000003FFFF0000000
0000003FFFF0000000
0000003FFFF0000000
0000003FFFF0000000
0000003FFFF0000000
0000003FFFF0000000
0000003FFFF0000000
0000003FFFF0000000
0000003FFFF0000000
0000003FFFF0000000
0000003FFFF0000000
0000003FFFF0000000
0000003FFFF0000000
0000003FFFF0000000
0000003FFFF0000000
0000003FFFF0000000
0000003FFFF0000000
0000003FFFF0000000
0000003FFFF0000000
0000003FFFF0000000
0000003FFFF0000000
0000003FFFF0000000
0000003FFFF0000000
0000003FFFF0000000
0000003FFFF0000000
0000003FFFF0000000
0000003FFFF0000000
0000003FFFF0000000
0000003FFFF0000000
0000003FFFF0000000
0000003FFFF0000000
ENDCHAR
STARTCHAR U
ENCODING 85
SWIDTH 722 0
DWIDTH 87 0
BBX 69 91 9 -3
BITMAP
FFFFC00000001FFFF8
FFFFC00000001FFFF8
FFFFC00000001FFFF8
FFFFC00000001FFFF8
FFFFC00000001FFFF8
FFFFC00000001FFFF8
FFFFC00000001FFFF8
FFFFC00000001FFFF8
FFFFC00000001FFFF8
FFFFC00000001FFFF8
FFFFC00000001FFFF8
FFFFC00000001FFFF8
FFFFC00000001FFFF8
FFFFC00000001FFFF8
FFFFC00000001FFFF8
FFFFC00000001FFFF8
FFFFC00000001FFFF8
FFFFC00000001FFFF8
FFFFC00000001FFFF8
FFFFC00000001FFFF8
FFFFC00000001FFFF8
FFFFC00000001FFFF8
FFFFC00000001FFFF8
FFFFC00000001FFFF8
FFFFC00000001FFFF8
FFFFC00000001FFFF8
FFFFC00000001FFFF8
FFFFC00000001FFFF8
FFFFC00000001FFFF8
FFFFC00000001FFFF8
FFFFC00000001FFFF8
FFFFC00000001FFFF8
FFFFC00000001FFFF8
FFFFC00000001FFFF8
FFFFC00000001FFFF8
FFFFC00000001FFFF8
FFFFC00000001FFFF8
FFFFC00000001FFFF8
FFFFC00000001FFFF8
FFFFC00000001FFFF8
FFFFC00000001FFFF8
FFFFC00000001FFFF8
FFFFC00000001FFFF8
FFFFC00000001FFFF8
FFFFC00000001FFFF8
FFFFC00000001FFFF8
FFFFC00000001FFFF8
FFFFC00000001FFFF8
FFFFC00000001FFFF8
FFFFC00000001FFFF8
FFFFC00000001FFFF8
FFFFC00000001FFFF8
FFFFC00000001FFFF8
FFFFC00000001FFFF8
FFFFC00000001FFFF8
FFFFC00000001FFFF8
FFFFC00000001FFFF8
FFFFC00000001FFFF8
FFFFC00000001FFFF8
FFFFC00000001FFFF8
FFFFC00000001FFFF8
FFFFC00000001FFFF8
FFFFC00000001FFFF8
FFFFC00000001FFFF8
FFFFC00000001FFFF8
FFFFE00000001FFFF8
7FFFE00000001FFFF8
7FFFE00000003FFFF8
7FFFF00000003FFFF8
7FFFF00000007FFFF0
7FFFF8000000FFFFF0
3FFFFC000000FFFFF0
3FFFFE000003FFFFF0
3FFFFF800007FFFFE0
1FFFFFE0001FFFFFE0
1FFFFFFF03FFFFFFC0
0FFFFFFFFFFFFFFFC0
07FFFFFFFFFFFFFF80
07FFFFFFFFFFFFFF00
03FFFFFFFFFFFFFF00
01FFFFFFFFFFFFFE00
00FFFFFFFFFFFFFC00
007FFFFFFFFFFFF800
003FFFFFFFFFFFE000
000FFFFFFFFFFFC000
0007FFFFFFFFFF0000
0001FFFFFFFFFE0000
00007FFFFFFFF80000
00000FFFFFFFC00000
000001FFFFFE000000
0000001FFFC0000000
ENDCHAR
STARTCHAR V
ENCODING 86
SWIDTH 667 0
DWIDTH 80 0
BBX 74 89 3 -1
BITMAP
FFFFC000000000FFFFC0
FFFFC000000000FFFFC0
7FFFE000000000FFFFC0
7FFFE000000000FFFF80
7FFFE000000001FFFF80
3FFFF000000001FFFF80
3FFFF000000001FFFF00
3FFFF000000003FFFF00
1FFFF000000003FFFF00
1FFFF800000003FFFE00
1FFFF800000003FFFE00
0FFFF800000007FFFE00
0FFFFC00000007FFFC00
0FFFFC00000007FFFC00
07FFFC0000000FFFFC00
07FFFC0000000FFFF800
07FFFE0000000FFFF800
03FFFE0000000FFFF800
03FFFE0000001FFFF000
03FFFF0000001FFFF000
01FFFF0000001FFFF000
01FFFF0000003FFFE000
01FFFF8000003FFFE000
00FFFF8000003FFFE000
00FFFF8000003FFFC000
00FFFF8000007FFFC000
007FFFC000007FFFC000
007FFFC000007FFF8000
007FFFC00000FFFF8000
003FFFE00000FFFF8000
003FFFE00000FFFF0000
003FFFE00000FFFF0000
001FFFE00001FFFF0000
001FFFF00001FFFE0000
001FFFF00001FFFE0000
000FFFF00003FFFE0000
000FFFF80003FFFC0000
000FFFF80003FFFC0000
0007FFF80003FFFC0000
0007FFF80007FFF80000
0007FFFC0007FFF80000
0003FFFC0007FFF80000
0003FFFC000FFFF00000
0003FFFE000FFFF00000
0001FFFE000FFFF00000
0001FFFE000FFFE00000
0001FFFE001FFFE00000
0000FFFF001FFFE00000
0000FFFF001FFFC00000
0000FFFF003FFFC00000
00007FFF803FFFC00000
00007FFF803FFF800000
00007FFF803FFF800000
00003FFFC07FFF800000
00003FFFC07FFF000000
00003FFFC07FFF000000
00001FFFC0FFFF000000
00001FFFE0FFFE000000
00001FFFE0FFFE000000
00000FFFE0FFFE000000
00000FFFF1FFFC000000
00000FFFF1FFFC000000
000007FFF1FFFC000000
000007FFF3FFF8000000
000007FFFBFFF8000000
000003FFFBFFF8000000
000003FFFBFFF0000000
000003FFFFFFF0000000
000001FFFFFFF0000000
000001FFFFFFE0000000
000001FFFFFFE0000000
000000FFFFFFE0000000
000000FFFFFFC0000000
000000FFFFFFC0000000
0000007FFFFFC0000000
0000007FFFFF80000000
0000007FFFFF80000000
0000003FFFFF80000000
0000003FFFFF00000000
0000003FFFFF00000000
0000001FFFFE00000000
0000001FFFFE00000000
0000001FFFFE00000000
0000000FFFFC00000000
0000000FFFFC00000000
0000000FFFFC00000000
00000007FFF800000000
00000007FFF800000000
00000007FFF800000000
ENDCHAR
STARTCHAR W
ENCODING 87
SWIDTH 944 0
DWIDTH 113 0
BBX 110 89 2 -1
BITMAP
FFFFE0000003FFFF0000001FFFFC
FFFFE0000007FFFF0000003FFFF8
FFFFE0000007FFFF0000003FFFF8
7FFFE0000007FFFF0000003FFFF8
7FFFF0000007FFFF0000003FFFF8
7FFFF0000007FFFF8000003FFFF0
7FFFF000000FFFFF8000007FFFF0
3FFFF000000FFFFF8000007FFFF0
3FFFF000000FFFFF8000007FFFF0
3FFFF800000FFFFFC000007FFFE0
3FFFF800000FFFFFC000007FFFE0
1FFFF800001FFFFFC00000FFFFE0
1FFFF800001FFFFFC00000FFFFC0
1FFFF800001FFFFFC00000FFFFC0
0FFFFC00001FFFFFE00000FFFFC0
0FFFFC00001FFFFFE00000FFFFC0
0FFFFC00003FFFFFE00000FFFF80
0FFFFC00003FFFFFE00001FFFF80
07FFFC00003FFFFFE00001FFFF80
07FFFE00003FFFFFF00001FFFF80
07FFFE00003FFFFFF00001FFFF00
03FFFE00007FFDFFF00001FFFF00
03FFFE00007FFDFFF00003FFFF00
03FFFE00007FFCFFF80003FFFE00
03FFFF00007FFCFFF80003FFFE00
01FFFF00007FFCFFF80003FFFE00
01FFFF0000FFF8FFF80003FFFE00
01FFFF0000FFF8FFF80007FFFC00
01FFFF0000FFF87FFC0007FFFC00
00FFFF8000FFF87FFC0007FFFC00
00FFFF8000FFF07FFC0007FFFC00
00FFFF8001FFF07FFC0007FFF800
007FFF8001FFF07FFC000FFFF800
007FFF8001FFF03FFE000FFFF800
007FFFC001FFF03FFE000FFFF000
007FFFC001FFE03FFE000FFFF000
003FFFC003FFE03FFE000FFFF000
003FFFC003FFE01FFE001FFFF000
003FFFC003FFE01FFF001FFFE000
001FFFE003FFE01FFF001FFFE000
001FFFE003FFC01FFF001FFFE000
001FFFE007FFC01FFF001FFFE000
001FFFE007FFC00FFF803FFFC000
000FFFE007FFC00FFF803FFFC000
000FFFF007FFC00FFF803FFFC000
000FFFF00FFF800FFF803FFF8000
000FFFF00FFF800FFF803FFF8000
0007FFF00FFF8007FFC07FFF8000
0007FFF80FFF8007FFC07FFF8000
0007FFF80FFF8007FFC07FFF0000
0003FFF81FFF0007FFC07FFF0000
0003FFF81FFF0007FFC07FFF0000
0003FFF81FFF0003FFE0FFFF0000
0003FFFC1FFF0003FFE0FFFE0000
0001FFFC1FFF0003FFE0FFFE0000
0001FFFC3FFE0003FFE0FFFE0000
0001FFFC3FFE0001FFF0FFFC0000
0000FFFC3FFE0001FFF1FFFC0000
0000FFFE3FFE0001FFF1FFFC0000
0000FFFE3FFE0001FFF1FFFC0000
0000FFFE7FFC0001FFF1FFF80000
00007FFE7FFC0000FFF9FFF80000
00007FFE7FFC0000FFF9FFF80000
00007FFF7FFC0000FFFBFFF80000
00007FFF7FFC0000FFFBFFF00000
00003FFFFFF80000FFFBFFF00000
00003FFFFFF800007FFFFFF00000
00003FFFFFF800007FFFFFE00000
00001FFFFFF800007FFFFFE00000
00001FFFFFF000007FFFFFE00000
00001FFFFFF000007FFFFFE00000
00001FFFFFF000003FFFFFC00000
00000FFFFFF000003FFFFFC00000
00000FFFFFF000003FFFFFC00000
00000FFFFFE000003FFFFFC00000
000007FFFFE000001FFFFF800000
000007FFFFE000001FFFFF800000
000007FFFFE000001FFFFF800000
000007FFFFE000001FFFFF000000
000003FFFFC000001FFFFF000000
000003FFFFC000000FFFFF000000
000003FFFFC000000FFFFF000000
000003FFFFC000000FFFFE000000
000001FFFFC000000FFFFE000000
000001FFFF8000000FFFFE000000
000001FFFF80000007FFFE000000
000000FFFF80000007FFFC000000
000000FFFF80000007FFFC000000
000000FFFF80000007FFFC000000
ENDCHAR
STARTCHAR X
ENCODING 88
SWIDTH 667 0
DWIDTH 80 0
BBX 75 89 3 -1
BITMAP
7FFFFC00000007FFFFC0
7FFFFE00000007FFFF80
3FFFFE0000000FFFFF80
1FFFFF0000001FFFFF00
1FFFFF0000001FFFFE00
0FFFFF8000003FFFFE00
0FFFFF8000003FFFFC00
07FFFFC000007FFFFC00
03FFFFC000007FFFF800
03FFFFE00000FFFFF000
01FFFFE00000FFFFF000
00FFFFF00001FFFFE000
00FFFFF80001FFFFE000
007FFFF80003FFFFC000
007FFFFC0007FFFF8000
003FFFFC0007FFFF8000
001FFFFE000FFFFF0000
001FFFFE000FFFFE0000
000FFFFF001FFFFE0000
000FFFFF001FFFFC0000
0007FFFF803FFFFC0000
0003FFFF803FFFF80000
0003FFFFC07FFFF00000
0001FFFFC0FFFFF00000
0001FFFFE0FFFFE00000
0000FFFFE1FFFFC00000
00007FFFF1FFFFC00000
00007FFFF3FFFF800000
00003FFFFBFFFF800000
00003FFFFFFFFF000000
00001FFFFFFFFE000000
00000FFFFFFFFE000000
00000FFFFFFFFC000000
000007FFFFFFFC000000
000007FFFFFFF8000000
000003FFFFFFF0000000
000001FFFFFFF0000000
000001FFFFFFE0000000
000000FFFFFFC0000000
000000FFFFFFC0000000
0000007FFFFF80000000
0000003FFFFF80000000
0000003FFFFF00000000
0000001FFFFE00000000
0000001FFFFF00000000
0000003FFFFF00000000
0000003FFFFF80000000
0000007FFFFFC0000000
0000007FFFFFC0000000
000000FFFFFFE0000000
000001FFFFFFF0000000
000001FFFFFFF0000000
000003FFFFFFF8000000
000007FFFFFFF8000000
000007FFFFFFFC000000
00000FFFFFFFFE000000
00000FFFFFFFFE000000
00001FFFFFFFFF000000
00003FFFFFFFFF000000
00003FFFF3FFFF800000
00007FFFF3FFFFC00000
00007FFFE1FFFFC00000
0000FFFFE0FFFFE00000
0001FFFFC0FFFFF00000
0001FFFFC07FFFF00000
0003FFFF807FFFF80000
0007FFFF803FFFF80000
0007FFFF003FFFFC0000
000FFFFF001FFFFE0000
000FFFFE001FFFFE0000
001FFFFE000FFFFF0000
003FFFFC000FFFFF8000
003FFFF80007FFFF8000
007FFFF80003FFFFC000
007FFFF00003FFFFC000
00FFFFF00001FFFFE000
01FFFFE00001FFFFF000
01FFFFE00000FFFFF000
03FFFFC00000FFFFF800
07FFFFC000007FFFF800
07FFFF8000007FFFFC00
0FFFFF8000003FFFFE00
0FFFFF0000003FFFFE00
1FFFFE0000001FFFFF00
3FFFFE0000000FFFFF80
3FFFFC0000000FFFFF80
7FFFFC00000007FFFFC0
7FFFF800000007FFFFC0
FFFFF800000003FFFFE0
ENDCHAR
STARTCHAR Y
ENCODING 89
SWIDTH 667 0
DWIDTH 80 0
BBX 75 89 3 -1
BITMAP
FFFFF800000001FFFFE0
7FFFF800000003FFFFC0
3FFFF800000003FFFFC0
3FFFFC00000007FFFF80
1FFFFC00000007FFFF80
1FFFFE0000000FFFFF00
0FFFFE0000000FFFFF00
0FFFFF0000000FFFFE00
07FFFF0000001FFFFE00
07FFFF8000001FFFFC00
03FFFF8000003FFFFC00
03FFFFC000003FFFF800
01FFFFC000003FFFF800
01FFFFC000007FFFF000
00FFFFE000007FFFF000
00FFFFE00000FFFFE000
007FFFF00000FFFFE000
007FFFF00001FFFFC000
003FFFF80001FFFFC000
003FFFF80001FFFF8000
001FFFFC0003FFFF8000
001FFFFC0003FFFF0000
000FFFFE0007FFFF0000
000FFFFE0007FFFE0000
0007FFFE000FFFFE0000
0007FFFF000FFFFC0000
0003FFFF000FFFFC0000
0003FFFF801FFFF80000
0001FFFF801FFFF80000
0001FFFFC03FFFF00000
0000FFFFC03FFFF00000
00007FFFE07FFFE00000
00007FFFE07FFFE00000
00003FFFF07FFFC00000
00003FFFF0FFFFC00000
00001FFFF0FFFF800000
00001FFFF9FFFF800000
00000FFFF9FFFF000000
00000FFFFFFFFF000000
000007FFFFFFFE000000
000007FFFFFFFE000000
000003FFFFFFFC000000
000003FFFFFFFC000000
000001FFFFFFF8000000
000001FFFFFFF8000000
000000FFFFFFF0000000
000000FFFFFFF0000000
0000007FFFFFF0000000
0000007FFFFFE0000000
0000003FFFFFE0000000
0000003FFFFFC0000000
0000001FFFFFC0000000
0000001FFFFF80000000
0000000FFFFF80000000
0000000FFFFF00000000
00000007FFFF00000000
00000007FFFE00000000
00000007FFFE00000000
00000007FFFE00000000
00000007FFFE00000000
00000007FFFE00000000
00000007FFFE00000000
00000007FFFE00000000
00000007FFFE00000000
00000007FFFE00000000
00000007FFFE00000000
00000007FFFE00000000
00000007FFFE00000000
00000007FFFE00000000
00000007FFFE00000000
00000007FFFE00000000
00000007FFFE00000000
00000007FFFE00000000
00000007FFFE00000000
00000007FFFE00000000
00000007FFFE00000000
00000007FFFE00000000
00000007FFFE00000000
00000007FFFE00000000
00000007FFFE00000000
00000007FFFE00000000
00000007FFFE00000000
00000007FFFE00000000
00000007FFFE00000000
00000007FFFE00000000
00000007FFFE00000000
00000007FFFE00000000
00000007FFFE00000000
00000007FFFE00000000
ENDCHAR
STARTCHAR Z
ENCODING 90
SWIDTH 611 0
DWIDTH 73 0
BBX 65 89 4 -1
BITMAP
FFFFFFFFFFFFFFFF80
FFFFFFFFFFFFFFFF80
FFFFFFFFFFFFFFFF80
FFFFFFFFFFFFFFFF80
FFFFFFFFFFFFFFFF80
FFFFFFFFFFFFFFFF80
FFFFFFFFFFFFFFFF80
FFFFFFFFFFFFFFFF80
FFFFFFFFFFFFFFFF80
FFFFFFFFFFFFFFFF80
FFFFFFFFFFFFFFFF80
FFFFFFFFFFFFFFFF80
FFFFFFFFFFFFFFFF80
FFFFFFFFFFFFFFFF80
FFFFFFFFFFFFFFFF80
00000000000FFFFF80
00000000001FFFFF00
00000000003FFFFE00
00000000003FFFFE00
00000000007FFFFC00
0000000000FFFFF800
0000000001FFFFF000
0000000001FFFFF000
0000000003FFFFE000
0000000007FFFFC000
000000000FFFFF8000
000000000FFFFF8000
000000001FFFFF0000
000000003FFFFE0000
000000007FFFFC0000
000000007FFFFC0000
00000000FFFFF80000
00000001FFFFF00000
00000003FFFFE00000
00000003FFFFE00000
00000007FFFFC00000
0000000FFFFF800000
0000001FFFFF000000
0000001FFFFF000000
0000003FFFFE000000
0000007FFFFC000000
000000FFFFF8000000
000001FFFFF8000000
000001FFFFF0000000
000003FFFFE0000000
000007FFFFC0000000
00000FFFFFC0000000
00000FFFFF80000000
00001FFFFF00000000
00003FFFFE00000000
00007FFFFE00000000
00007FFFFC00000000
0000FFFFF800000000
0001FFFFF000000000
0003FFFFE000000000
0003FFFFE000000000
0007FFFFC000000000
000FFFFF8000000000
001FFFFF0000000000
001FFFFF0000000000
003FFFFE0000000000
007FFFFC0000000000
00FFFFF80000000000
00FFFFF80000000000
01FFFFF00000000000
03FFFFE00000000000
07FFFFC00000000000
07FFFFC00000000000
0FFFFF800000000000
1FFFFF000000000000
3FFFFE000000000000
7FFFFE000000000000
7FFFFC000000000000
FFFFF8000000000000
FFFFFFFFFFFFFFFF80
FFFFFFFFFFFFFFFF80
FFFFFFFFFFFFFFFF80
FFFFFFFFFFFFFFFF80
FFFFFFFFFFFFFFFF80
FFFFFFFFFFFFFFFF80
FFFFFFFFFFFFFFFF80
FFFFFFFFFFFFFFFF80
FFFFFFFFFFFFFFFF80
FFFFFFFFFFFFFFFF80
FFFFFFFFFFFFFFFF80
FFFFFFFFFFFFFFFF80
FFFFFFFFFFFFFFFF80
FFFFFFFFFFFFFFFF80
FFFFFFFFFFFFFFFF80
ENDCHAR
STARTCHAR bracketleft
ENCODING 91
SWIDTH 333 0
DWIDTH 40 0
BBX 29 112 8 -24
BITMAP
FFFFFFF8
FFFFFFF8
FFFFFFF8
FFFFFFF8
FFFFFFF8
FFFFFFF8
FFFFFFF8
FFFFFFF8
FFFFFFF8
FFFFFFF8
FFFFFFF8
FFFFFFF8
FFFF0000
FFFF0000
FFFF0000
FFFF0000
FFFF0000
FFFF0000
FFFF0000
FFFF0000
FFFF0000
FFFF0000
FFFF0000
FFFF0000
FFFF0000
FFFF0000
FFFF0000
FFFF0000
FFFF0000
FFFF0000
FFFF0000
FFFF0000
FFFF0000
FFFF0000
FFFF0000
FFFF0000
FFFF0000
FFFF0000
FFFF0000
FFFF0000
FFFF0000
FFFF0000
FFFF0000
FFFF0000
FFFF0000
FFFF0000
FFFF0000
FFFF0000
FFFF0000
FFFF0000
FFFF0000
FFFF0000
FFFF0000
FFFF0000
FFFF0000
FFFF0000
FFFF0000
FFFF0000
FFFF0000
FFFF0000
FFFF0000
FFFF0000
FFFF0000
FFFF0000
FFFF0000
FFFF0000
FFFF0000
FFFF0000
FFFF0000
FFFF0000
FFFF0000
FFFF0000
FFFF0000
FFFF0000
FFFF0000
FFFF0000
FFFF0000
FFFF0000
FFFF0000
FFFF0000
FFFF0000
FFFF0000
FFFF0000
FFFF0000
FFFF0000
FFFF0000
FFFF0000
FFFF0000
FFFF0000
FFFF0000
FFFF0000
FFFF0000
FFFF0000
FFFF0000
FFFF0000
FFFF0000
FFFF0000
FFFF0000
FFFF0000
FFFF0000
FFFFFFF8
FFFFFFF8
FFFFFFF8
FFFFFFF8
FFFFFFF8
FFFFFFF8
FFFFFFF8
FFFFFFF8
FFFFFFF8
FFFFFFF8
FFFFFFF8
FFFFFFF8
ENDCHAR
STARTCHAR backslash
ENCODING 92
SWIDTH 278 0
DWIDTH 33 0
BBX 36 87 -1 -2
BITMAP
FF00000000
FF00000000
FF80000000
7F80000000
7F80000000
7F80000000
3FC0000000
3FC0000000
3FC0000000
1FE0000000
1FE0000000
1FE0000000
0FF0000000
0FF0000000
0FF0000000
07F8000000
07F8000000
07F8000000
03FC000000
03FC000000
03FC000000
01FE000000
01FE000000
01FE000000
00FF000000
00FF000000
00FF000000
00FF800000
007F800000
007F800000
007FC00000
003FC00000
003FC00000
003FC00000
001FE00000
001FE00000
001FE00000
000FF00000
000FF00000
000FF00000
0007F80000
0007F80000
0007F80000
0003FC0000
0003FC0000
0003FC0000
0001FE0000
0001FE0000
0001FE0000
0000FF0000
0000FF0000
0000FF0000
00007F8000
00007F8000
00007F8000
00007FC000
00003FC000
00003FC000
00003FE000
00001FE000
00001FE000
00001FE000
00000FF000
00000FF000
00000FF000
000007F800
000007F800
000007F800
000003FC00
000003FC00
000003FC00
000001FE00
000001FE00
000001FE00
000000FF00
000000FF00
000000FF00
0000007F80
0000007F80
0000007F80
0000003FC0
0000003FC0
0000003FC0
0000003FE0
0000001FE0
0000001FE0
0000001FF0
ENDCHAR
STARTCHAR bracketright
ENCODING 93
SWIDTH 333 0
DWIDTH 40 0
BBX 29 112 2 -24
BITMAP
FFFFFFF8
FFFFFFF8
FFFFFFF8
FFFFFFF8
FFFFFFF8
FFFFFFF8
FFFFFFF8
FFFFFFF8
FFFFFFF8
FFFFFFF8
FFFFFFF8
FFFFFFF8
0003FFF8
0003FFF8
0003FFF8
0003FFF8
0003FFF8
0003FFF8
0003FFF8
0003FFF8
0003FFF8
0003FFF8
0003FFF8
0003FFF8
0003FFF8
0003FFF8
0003FFF8
0003FFF8
0003FFF8
0003FFF8
0003FFF8
0003FFF8
0003FFF8
0003FFF8
0003FFF8
0003FFF8
0003FFF8
0003FFF8
0003FFF8
0003FFF8
0003FFF8
0003FFF8
0003FFF8
0003FFF8
0003FFF8
0003FFF8
0003FFF8
0003FFF8
0003FFF8
0003FFF8
0003FFF8
0003FFF8
0003FFF8
0003FFF8
0003FFF8
0003FFF8
0003FFF8
0003FFF8
0003FFF8
0003FFF8
0003FFF8
0003FFF8
0003FFF8
0003FFF8
0003FFF8
0003FFF8
0003FFF8
0003FFF8
0003FFF8
0003FFF8
0003FFF8
0003FFF8
0003FFF8
0003FFF8
0003FFF8
0003FFF8
0003FFF8
0003FFF8
0003FFF8
0003FFF8
0003FFF8
0003FFF8
0003FFF8
0003FFF8
0003FFF8
0003FFF8
0003FFF8
0003FFF8
0003FFF8
0003FFF8
0003FFF8
0003FFF8
0003FFF8
0003FFF8
0003FFF8
0003FFF8
0003FFF8
0003FFF8
0003FFF8
0003FFF8
FFFFFFF8
FFFFFFF8
FFFFFFF8
FFFFFFF8
FFFFFFF8
FFFFFFF8
FFFFFFF8
FFFFFFF8
FFFFFFF8
FFFFFFF8
FFFFFFF8
FFFFFFF8
ENDCHAR
STARTCHAR asciicircum
ENCODING 94
SWIDTH 584 0
DWIDTH 70 0
BBX 56 51 7 32
BITMAP
00000FFFE00000
00001FFFF00000
00001FFFF00000
00001FFFF80000
00003FFFF80000
00003FFFF80000
00007FFFFC0000
00007FFFFC0000
00007FFFFE0000
0000FFFFFE0000
0000FFFFFF0000
0001FFFFFF0000
0001FFFFFF0000
0001FFFFFF8000
0003FFFFFF8000
0003FFEFFFC000
0003FFEFFFC000
0007FFC7FFC000
0007FFC7FFE000
000FFFC3FFE000
000FFF83FFF000
000FFF83FFF000
001FFF81FFF000
001FFF01FFF800
003FFF00FFF800
003FFE00FFFC00
003FFE00FFFC00
007FFE007FFC00
007FFC007FFE00
007FFC003FFE00
00FFF8003FFF00
00FFF8003FFF00
01FFF8001FFF00
01FFF0001FFF80
01FFF0000FFF80
03FFF0000FFFC0
03FFE0000FFFC0
07FFE00007FFC0
07FFC00007FFE0
07FFC00003FFE0
0FFFC00003FFF0
0FFF800003FFF0
1FFF800001FFF0
1FFF000001FFF8
1FFF000000FFF8
3FFF000000FFFC
3FFE000000FFFC
3FFE0000007FFC
7FFE0000007FFE
7FFC0000003FFE
FFFC0000003FFF
ENDCHAR
STARTCHAR underscore
ENCODING 95
SWIDTH 556 0
DWIDTH 67 0
BBX 72 8 -3 -23
BITMAP
FFFFFFFFFFFFFFFFFF
FFFFFFFFFFFFFFFFFF
FFFFFFFFFFFFFFFFFF
FFFFFFFFFFFFFFFFFF
FFFFFFFFFFFFFFFFFF
FFFFFFFFFFFFFFFFFF
FFFFFFFFFFFFFFFFFF
FFFFFFFFFFFFFFFFFF
ENDCHAR
STARTCHAR grave
ENCODING 96
SWIDTH 333 0
DWIDTH 40 0
BBX 23 18 2 73
BITMAP
FFFE00
7FFF00
3FFF00
1FFF80
0FFF80
0FFFC0
07FFC0
03FFE0
01FFE0
00FFF0
007FF0
003FF0
003FF8
001FF8
000FFC
0007FC
0003FE
0001FE
ENDCHAR
STARTCHAR a
ENCODING 97
SWIDTH 556 0
DWIDTH 67 0
BBX 60 69 3 -3
BITMAP
000003FFF8000000
00007FFFFFC00000
0001FFFFFFF80000
0007FFFFFFFE0000
001FFFFFFFFF8000
003FFFFFFFFFC000
00FFFFFFFFFFE000
01FFFFFFFFFFF000
01FFFFFFFFFFF800
03FFFFFFFFFFF800
07FFFFFFFFFFFC00
07FFFFFFFFFFFC00
0FFFFFFFFFFFFE00
0FFFFFFFFFFFFE00
1FFFFE000FFFFE00
1FFFF80007FFFF00
1FFFF00001FFFF00
3FFFE00001FFFF00
3FFFE00001FFFF00
3FFFE00000FFFF00
3FFFC00000FFFF00
3FFFC00001FFFF00
3FFFC00001FFFF00
0000000001FFFF00
0000000003FFFF00
000000000FFFFF00
000000007FFFFF00
0000001FFFFFFF00
000003FFFFFFFF00
00007FFFFFFFFF00
0007FFFFFFFFFF00
001FFFFFFFFFFF00
007FFFFFFFFFFF00
01FFFFFFFFFFFF00
03FFFFFFFFFFFF00
07FFFFFFFFFFFF00
0FFFFFFFFCFFFF00
0FFFFFFFC0FFFF00
1FFFFFF000FFFF00
3FFFFF0000FFFF00
3FFFF80000FFFF00
3FFFF00000FFFF00
7FFFE00001FFFF00
7FFFC00001FFFF00
7FFFC00001FFFF00
7FFF800001FFFF00
FFFF800001FFFF00
FFFF800003FFFF00
FFFF800003FFFF00
FFFF800007FFFF00
FFFFC00007FFFF00
FFFFC0000FFFFF00
7FFFE0001FFFFF00
7FFFF0003FFFFF00
7FFFF800FFFFFF00
7FFFFFFFFFFFFF00
7FFFFFFFFFFFFF00
3FFFFFFFFFFFFF00
3FFFFFFFFFFFFF00
1FFFFFFFFFFFFF80
1FFFFFFFFEFFFF80
0FFFFFFFFCFFFFC0
07FFFFFFF8FFFFC0
03FFFFFFF0FFFFE0
01FFFFFFC0FFFFF0
00FFFFFF807FFFF0
003FFFFE007FFFF0
000FFFF800000000
0001FF8000000000
ENDCHAR
STARTCHAR b
ENCODING 98
SWIDTH 611 0
DWIDTH 73 0
BBX 62 91 7 -3
BITMAP
FFFF800000000000
FFFF800000000000
FFFF800000000000
FFFF800000000000
FFFF800000000000
FFFF800000000000
FFFF800000000000
FFFF800000000000
FFFF800000000000
FFFF800000000000
FFFF800000000000
FFFF800000000000
FFFF800000000000
FFFF800000000000
FFFF800000000000
FFFF800000000000
FFFF800000000000
FFFF800000000000
FFFF800000000000
FFFF800000000000
FFFF800000000000
FFFF800000000000
FFFF8007FE000000
FFFF803FFFE00000
FFFF80FFFFFC0000
FFFF83FFFFFE0000
FFFF87FFFFFF8000
FFFF8FFFFFFFC000
FFFF9FFFFFFFF000
FFFFBFFFFFFFF800
FFFFFFFFFFFFFC00
FFFFFFFFFFFFFC00
FFFFFFFFFFFFFE00
FFFFFFFFFFFFFF00
FFFFFFFFFFFFFF00
FFFFFFFFFFFFFF80
FFFFFFF03FFFFF80
FFFFFF8007FFFFC0
FFFFFF0003FFFFC0
FFFFFE0001FFFFE0
FFFFFC0000FFFFE0
FFFFF800007FFFF0
FFFFF000003FFFF0
FFFFF000003FFFF0
FFFFE000001FFFF0
FFFFE000001FFFF8
FFFFC000000FFFF8
FFFFC000000FFFF8
FFFFC000000FFFF8
FFFFC000000FFFF8
FFFF80000007FFFC
FFFF80000007FFFC
FFFF80000007FFFC
FFFF80000007FFFC
FFFF80000007FFFC
FFFF80000007FFFC
FFFF80000007FFFC
FFFF80000007FFFC
FFFF80000007FFFC
FFFF80000007FFFC
FFFF80000007FFFC
FFFF80000007FFFC
FFFF80000007FFFC
FFFFC000000FFFF8
FFFFC000000FFFF8
FFFFC000000FFFF8
FFFFC000000FFFF8
FFFFE000001FFFF8
FFFFE000001FFFF0
FFFFF000003FFFF0
FFFFF000003FFFF0
FFFFF800007FFFE0
FFFFFC0000FFFFE0
FFFFFE0001FFFFE0
FFFFFF0003FFFFC0
FFFFFF8007FFFFC0
FFFFFFF03FFFFF80
FFFFFFFFFFFFFF80
FFFFFFFFFFFFFF00
FFFFFFFFFFFFFE00
FFFFFFFFFFFFFE00
FFFFFFFFFFFFFC00
FFFFFFFFFFFFF800
FFFFBFFFFFFFF000
FFFF9FFFFFFFE000
FFFF8FFFFFFFC000
FFFF87FFFFFF8000
FFFF83FFFFFE0000
FFFF80FFFFF80000
0000003FFFE00000
00000007FF000000
ENDCHAR
STARTCHAR c
ENCODING 99
SWIDTH 556 0
DWIDTH 67 0
BBX 59 69 4 -3
BITMAP
000000FFF8000000
00000FFFFF800000
00007FFFFFF00000
0001FFFFFFFC0000
0007FFFFFFFE0000
000FFFFFFFFF8000
001FFFFFFFFFC000
003FFFFFFFFFE000
007FFFFFFFFFF000
00FFFFFFFFFFF800
01FFFFFFFFFFFC00
03FFFFFFFFFFFC00
03FFFFFFFFFFFE00
07FFFFFFFFFFFE00
0FFFFF800FFFFF00
0FFFFE0003FFFF00
1FFFFC0001FFFF80
1FFFF80001FFFF80
1FFFF00000FFFF80
3FFFF000007FFFC0
3FFFE000007FFFC0
3FFFE000007FFFC0
7FFFE000003FFFC0
7FFFC000003FFFC0
7FFFC000003FFFE0
7FFFC00000000000
7FFFC00000000000
FFFF800000000000
FFFF800000000000
FFFF800000000000
FFFF800000000000
FFFF800000000000
FFFF800000000000
FFFF800000000000
FFFF800000000000
FFFF800000000000
FFFF800000000000
FFFF800000000000
FFFF800000000000
FFFF800000000000
FFFF800000000000
FFFF800000000000
7FFFC00000000000
7FFFC00000000000
7FFFC000003FFFE0
7FFFC000003FFFC0
7FFFE000003FFFC0
3FFFE000007FFFC0
3FFFF000007FFFC0
3FFFF000007FFFC0
3FFFF80000FFFF80
1FFFFC0001FFFF80
1FFFFE0003FFFF80
0FFFFF0007FFFF00
0FFFFFC00FFFFF00
07FFFFFFFFFFFE00
07FFFFFFFFFFFE00
03FFFFFFFFFFFC00
01FFFFFFFFFFF800
01FFFFFFFFFFF000
00FFFFFFFFFFF000
007FFFFFFFFFE000
001FFFFFFFFFC000
000FFFFFFFFF0000
0007FFFFFFFE0000
0001FFFFFFF80000
00007FFFFFE00000
00000FFFFF800000
000000FFF8000000
ENDCHAR
STARTCHAR d
ENCODING 100
SWIDTH 611 0
DWIDTH 73 0
BBX 62 91 3 -3
BITMAP
000000000003FFFC
000000000003FFFC
000000000003FFFC
000000000003FFFC
000000000003FFFC
000000000003FFFC
000000000003FFFC
000000000003FFFC
000000000003FFFC
000000000003FFFC
000000000003FFFC
000000000003FFFC
000000000003FFFC
000000000003FFFC
000000000003FFFC
000000000003FFFC
000000000003FFFC
000000000003FFFC
000000000003FFFC
000000000003FFFC
000000000003FFFC
000000000003FFFC
000001FF8003FFFC
00001FFFF003FFFC
00007FFFFE03FFFC
0001FFFFFF03FFFC
0003FFFFFF83FFFC
0007FFFFFFC3FFFC
001FFFFFFFE3FFFC
003FFFFFFFF3FFFC
007FFFFFFFFBFFFC
007FFFFFFFFFFFFC
00FFFFFFFFFFFFFC
01FFFFFFFFFFFFFC
03FFFFFFFFFFFFFC
03FFFFFFFFFFFFFC
07FFFFF01FFFFFFC
07FFFFC007FFFFFC
0FFFFF0001FFFFFC
0FFFFE0000FFFFFC
1FFFFC00007FFFFC
1FFFF800007FFFFC
1FFFF800003FFFFC
3FFFF000001FFFFC
3FFFF000001FFFFC
3FFFE000000FFFFC
3FFFE000000FFFFC
7FFFE000000FFFFC
7FFFC0000007FFFC
7FFFC0000007FFFC
7FFFC0000007FFFC
7FFFC0000007FFFC
7FFF80000007FFFC
7FFF80000007FFFC
FFFF80000007FFFC
FFFF80000003FFFC
FFFF80000003FFFC
FFFF80000003FFFC
FFFF80000003FFFC
7FFF80000007FFFC
7FFF80000007FFFC
7FFFC0000007FFFC
7FFFC0000007FFFC
7FFFC0000007FFFC
7FFFC0000007FFFC
7FFFC000000FFFFC
7FFFE000000FFFFC
3FFFE000000FFFFC
3FFFF000001FFFFC
3FFFF000001FFFFC
3FFFF800003FFFFC
1FFFF800003FFFFC
1FFFFC00007FFFFC
1FFFFE0000FFFFFC
0FFFFF0001FFFFFC
0FFFFFC007FFFFFC
07FFFFF01FFFFFFC
07FFFFFFFFFFFFFC
03FFFFFFFFFFFFFC
03FFFFFFFFFFFFFC
01FFFFFFFFFFFFFC
00FFFFFFFFFFFFFC
00FFFFFFFFFBFFFC
007FFFFFFFF3FFFC
003FFFFFFFE3FFFC
000FFFFFFFE3FFFC
0007FFFFFF83FFFC
0001FFFFFF03FFFC
00007FFFFE03FFFC
00001FFFF8000000
000001FF80000000
ENDCHAR
STARTCHAR e
ENCODING 101
SWIDTH 556 0
DWIDTH 67 0
BBX 60 69 3 -3
BITMAP
000001FFE0000000
00001FFFFF000000
00007FFFFFC00000
0001FFFFFFF00000
0007FFFFFFFC0000
000FFFFFFFFE0000
001FFFFFFFFF8000
007FFFFFFFFFC000
00FFFFFFFFFFE000
00FFFFFFFFFFF000
01FFFFFFFFFFF800
03FFFFFFFFFFF800
07FFFFFFFFFFFC00
07FFFF803FFFFE00
0FFFFE000FFFFE00
0FFFFC0007FFFF00
1FFFF80003FFFF00
1FFFF00001FFFF80
3FFFE00000FFFF80
3FFFE00000FFFFC0
3FFFC000007FFFC0
7FFFC000007FFFC0
7FFFC000007FFFC0
7FFF8000003FFFE0
7FFF8000003FFFE0
FFFF8000003FFFE0
FFFF8000003FFFE0
FFFF8000003FFFE0
FFFFFFFFFFFFFFE0
FFFFFFFFFFFFFFF0
FFFFFFFFFFFFFFF0
FFFFFFFFFFFFFFF0
FFFFFFFFFFFFFFF0
FFFFFFFFFFFFFFF0
FFFFFFFFFFFFFFF0
FFFFFFFFFFFFFFF0
FFFFFFFFFFFFFFF0
FFFFFFFFFFFFFFF0
FFFFFFFFFFFFFFF0
FFFF000000000000
FFFF000000000000
FFFF800000000000
FFFF800000000000
FFFF800000000000
FFFF800000000000
7FFF800000000000
7FFF800000000000
7FFF800000000000
7FFFC000003FFFE0
3FFFC000003FFFE0
3FFFE000007FFFC0
3FFFF000007FFFC0
1FFFF00000FFFFC0
1FFFFC0003FFFF80
0FFFFE0007FFFF00
0FFFFF803FFFFF00
07FFFFFFFFFFFE00
03FFFFFFFFFFFC00
03FFFFFFFFFFFC00
01FFFFFFFFFFF800
00FFFFFFFFFFF000
007FFFFFFFFFE000
003FFFFFFFFF8000
001FFFFFFFFF0000
0007FFFFFFFE0000
0003FFFFFFF80000
0000FFFFFFE00000
00001FFFFF000000
000001FFF0000000
ENDCHAR
STARTCHAR f
ENCODING 102
SWIDTH 333 0
DWIDTH 40 0
BBX 36 89 2 -1
BITMAP
00000FFFE0
00007FFFE0
0001FFFFE0
0007FFFFE0
000FFFFFE0
000FFFFFE0
001FFFFFE0
003FFFFFE0
003FFFFFE0
003FFFFFE0
007FFFFFE0
007FFFFFE0
007FFFFFE0
007FFFE000
007FFFC000
007FFFC000
007FFFC000
007FFFC000
007FFFC000
007FFFC000
007FFFC000
007FFFC000
007FFFC000
007FFFC000
FFFFFFFFF0
FFFFFFFFF0
FFFFFFFFF0
FFFFFFFFF0
FFFFFFFFF0
FFFFFFFFF0
FFFFFFFFF0
FFFFFFFFF0
FFFFFFFFF0
FFFFFFFFF0
FFFFFFFFF0
007FFFC000
007FFFC000
007FFFC000
007FFFC000
007FFFC000
007FFFC000
007FFFC000
007FFFC000
007FFFC000
007FFFC000
007FFFC000
007FFFC000
007FFFC000
007FFFC000
007FFFC000
007FFFC000
007FFFC000
007FFFC000
007FFFC000
007FFFC000
007FFFC000
007FFFC000
007FFFC000
007FFFC000
007FFFC000
007FFFC000
007FFFC000
007FFFC000
007FFFC000
007FFFC000
007FFFC000
007FFFC000
007FFFC000
007FFFC000
007FFFC000
007FFFC000
007FFFC000
007FFFC000
007FFFC000
007FFFC000
007FFFC000
007FFFC000
007FFFC000
007FFFC000
007FFFC000
007FFFC000
007FFFC000
007FFFC000
007FFFC000
007FFFC000
007FFFC000
007FFFC000
007FFFC000
007FFFC000
ENDCHAR
STARTCHAR g
ENCODING 103
SWIDTH 611 0
DWIDTH 73 0
BBX 59 92 5 -26
BITMAP
000003FC001FFFE0
00001FFF801FFFE0
0000FFFFE01FFFE0
0001FFFFF81FFFE0
0007FFFFFC1FFFE0
000FFFFFFE1FFFE0
001FFFFFFF1FFFE0
003FFFFFFF9FFFE0
007FFFFFFFDFFFE0
00FFFFFFFFFFFFE0
01FFFFFFFFFFFFE0
03FFFFFFFFFFFFE0
03FFFFFFFFFFFFE0
07FFFFFFFFFFFFE0
07FFFFE0FFFFFFE0
0FFFFF001FFFFFE0
0FFFFE000FFFFFE0
1FFFFC0007FFFFE0
1FFFF80003FFFFE0
3FFFF00001FFFFE0
3FFFF00000FFFFE0
3FFFE00000FFFFE0
7FFFE000007FFFE0
7FFFE000007FFFE0
7FFFC000007FFFE0
7FFFC000003FFFE0
7FFFC000003FFFE0
FFFF8000003FFFE0
FFFF8000001FFFE0
FFFF8000001FFFE0
FFFF8000001FFFE0
FFFF8000001FFFE0
FFFF8000001FFFE0
FFFF8000001FFFE0
FFFF8000001FFFE0
FFFF8000001FFFE0
FFFF8000001FFFE0
FFFF8000001FFFE0
FFFF8000001FFFE0
FFFF8000001FFFE0
FFFF8000001FFFE0
FFFF8000001FFFE0
FFFF8000003FFFE0
7FFFC000003FFFE0
7FFFC000003FFFE0
7FFFC000007FFFE0
7FFFE000007FFFE0
7FFFE00000FFFFE0
3FFFF00000FFFFE0
3FFFF00001FFFFE0
3FFFF80003FFFFE0
1FFFFC0003FFFFE0
1FFFFE000FFFFFE0
1FFFFF001FFFFFE0
0FFFFFC0FFFFFFE0
0FFFFFFFFFFFFFE0
07FFFFFFFFFFFFE0
03FFFFFFFFFFFFE0
03FFFFFFFFFFFFE0
01FFFFFFFFFFFFE0
00FFFFFFFFDFFFE0
007FFFFFFF9FFFE0
003FFFFFFF1FFFE0
001FFFFFFE1FFFE0
000FFFFFFC1FFFE0
0003FFFFF81FFFE0
0001FFFFF01FFFE0
00003FFFC01FFFE0
000007FE001FFFE0
00000000001FFFE0
00000000001FFFE0
00000000001FFFE0
00000000003FFFE0
00000000003FFFC0
7FFFE000003FFFC0
7FFFE000007FFFC0
7FFFF00000FFFFC0
3FFFF00001FFFF80
3FFFF80003FFFF80
3FFFFC0007FFFF00
1FFFFF803FFFFF00
0FFFFFFFFFFFFE00
0FFFFFFFFFFFFC00
07FFFFFFFFFFF800
03FFFFFFFFFFF000
01FFFFFFFFFFE000
00FFFFFFFFFFC000
003FFFFFFFFF0000
000FFFFFFFFC0000
0003FFFFFFF00000
00007FFFFF800000
000003FFF0000000
ENDCHAR
STARTCHAR h
ENCODING 104
SWIDTH 611 0
DWIDTH 73 0
BBX 57 89 8 -1
BITMAP
FFFF800000000000
FFFF800000000000
FFFF800000000000
FFFF800000000000
FFFF800000000000
FFFF800000000000
FFFF800000000000
FFFF800000000000
FFFF800000000000
FFFF800000000000
FFFF800000000000
FFFF800000000000
FFFF800000000000
FFFF800000000000
FFFF800000000000
FFFF800000000000
FFFF800000000000
FFFF800000000000
FFFF800000000000
FFFF800000000000
FFFF800000000000
FFFF800000000000
FFFF8003FF800000
FFFF801FFFF00000
FFFF807FFFFC0000
FFFF81FFFFFF0000
FFFF83FFFFFFC000
FFFF87FFFFFFE000
FFFF8FFFFFFFF000
FFFF9FFFFFFFF800
FFFFBFFFFFFFFC00
FFFFFFFFFFFFFC00
FFFFFFFFFFFFFE00
FFFFFFFFFFFFFE00
FFFFFFFFFFFFFE00
FFFFFFFFFFFFFF00
FFFFFFE0FFFFFF00
FFFFFF001FFFFF00
FFFFFC000FFFFF00
FFFFF80003FFFF80
FFFFF00003FFFF80
FFFFE00001FFFF80
FFFFE00001FFFF80
FFFFC00000FFFF80
FFFFC00000FFFF80
FFFF800000FFFF80
FFFF800000FFFF80
FFFF800000FFFF80
FFFF800000FFFF80
FFFF800000FFFF80
FFFF800000FFFF80
FFFF800000FFFF80
FFFF800000FFFF80
FFFF800000FFFF80
FFFF800000FFFF80
FFFF800000FFFF80
FFFF800000FFFF80
FFFF800000FFFF80
FFFF800000FFFF80
FFFF800000FFFF80
FFFF800000FFFF80
FFFF800000FFFF80
FFFF800000FFFF80
FFFF800000FFFF80
FFFF800000FFFF80
FFFF800000FFFF80
FFFF800000FFFF80
FFFF800000FFFF80
FFFF800000FFFF80
FFFF800000FFFF80
FFFF800000FFFF80
FFFF800000FFFF80
FFFF800000FFFF80
FFFF800000FFFF80
FFFF800000FFFF80
FFFF800000FFFF80
FFFF800000FFFF80
FFFF800000FFFF80
FFFF800000FFFF80
FFFF800000FFFF80
FFFF800000FFFF80
FFFF800000FFFF80
FFFF800000FFFF80
FFFF800000FFFF80
FFFF800000FFFF80
FFFF800000FFFF80
FFFF800000FFFF80
FFFF800000FFFF80
FFFF800000FFFF80
ENDCHAR
STARTCHAR i
ENCODING 105
SWIDTH 278 0
DWIDTH 33 0
BBX 17 89 8 -1
BITMAP
FFFF80
FFFF80
FFFF80
FFFF80
FFFF80
FFFF80
FFFF80
FFFF80
FFFF80
FFFF80
FFFF80
FFFF80
FFFF80
FFFF80
FFFF80
000000
000000
000000
000000
000000
000000
000000
FFFF80
FFFF80
FFFF80
FFFF80
FFFF80
FFFF80
FFFF80
FFFF80
FFFF80
FFFF80
FFFF80
FFFF80
FFFF80
FFFF80
FFFF80
FFFF80
FFFF80
FFFF80
FFFF80
FFFF80
FFFF80
FFFF80
FFFF80
FFFF80
FFFF80
FFFF80
FFFF80
FFFF80
FFFF80
FFFF80
FFFF80
FFFF80
FFFF80
FFFF80
FFFF80
FFFF80
FFFF80
FFFF80
FFFF80
FFFF80
FFFF80
FFFF80
FFFF80
FFFF80
FFFF80
FFFF80
FFFF80
FFFF80
FFFF80
FFFF80
FFFF80
FFFF80
FFFF80
FFFF80
FFFF80
FFFF80
FFFF80
FFFF80
FFFF80
FFFF80
FFFF80
FFFF80
FFFF80
FFFF80
FFFF80
FFFF80
FFFF80
ENDCHAR
STARTCHAR j
ENCODING 106
SWIDTH 278 0
DWIDTH 33 0
BBX 25 114 0 -26
BITMAP
00FFFF80
00FFFF80
00FFFF80
00FFFF80
00FFFF80
00FFFF80
00FFFF80
00FFFF80
00FFFF80
00FFFF80
00FFFF80
00FFFF80
00FFFF80
00FFFF80
00FFFF80
00000000
00000000
00000000
00000000
00000000
00000000
00000000
00FFFF80
00FFFF80
00FFFF80
00FFFF80
00FFFF80
00FFFF80
00FFFF80
00FFFF80
00FFFF80
00FFFF80
00FFFF80
00FFFF80
00FFFF80
00FFFF80
00FFFF80
00FFFF80
00FFFF80
00FFFF80
00FFFF80
00FFFF80
00FFFF80
00FFFF80
00FFFF80
00FFFF80
00FFFF80
00FFFF80
00FFFF80
00FFFF80
00FFFF80
00FFFF80
00FFFF80
00FFFF80
00FFFF80
00FFFF80
00FFFF80
00FFFF80
00FFFF80
00FFFF80
00FFFF80
00FFFF80
00FFFF80
00FFFF80
00FFFF80
00FFFF80
00FFFF80
00FFFF80
00FFFF80
00FFFF80
00FFFF80
00FFFF80
00FFFF80
00FFFF80
00FFFF80
00FFFF80
00FFFF80
00FFFF80
00FFFF80
00FFFF80
00FFFF80
00FFFF80
00FFFF80
00FFFF80
00FFFF80
00FFFF80
00FFFF80
00FFFF80
00FFFF80
00FFFF80
00FFFF80
00FFFF80
00FFFF80
00FFFF80
00FFFF80
00FFFF80
00FFFF80
00FFFF80
00FFFF80
01FFFF80
FFFFFF80
FFFFFF80
FFFFFF80
FFFFFF80
FFFFFF80
FFFFFF00
FFFFFF00
FFFFFF00
FFFFFE00
FFFFFE00
FFFFFC00
FFFFF800
FFFFE000
3FFF0000
ENDCHAR
STARTCHAR k
ENCODING 107
SWIDTH 556 0
DWIDTH 67 0
BBX 58 89 7 -1
BITMAP
FFFF800000000000
FFFF800000000000
FFFF800000000000
FFFF800000000000
FFFF800000000000
FFFF800000000000
FFFF800000000000
FFFF800000000000
FFFF800000000000
FFFF800000000000
FFFF800000000000
FFFF800000000000
FFFF800000000000
FFFF800000000000
FFFF800000000000
FFFF800000000000
FFFF800000000000
FFFF800000000000
FFFF800000000000
FFFF800000000000
FFFF800000000000
FFFF800000000000
FFFF800003FFFF80
FFFF800007FFFF00
FFFF80000FFFFE00
FFFF80001FFFFC00
FFFF80003FFFF800
FFFF80003FFFF000
FFFF80007FFFF000
FFFF8000FFFFE000
FFFF8001FFFFC000
FFFF8003FFFF8000
FFFF8003FFFF0000
FFFF8007FFFE0000
FFFF800FFFFC0000
FFFF801FFFF80000
FFFF803FFFF80000
FFFF807FFFF00000
FFFF807FFFE00000
FFFF80FFFFC00000
FFFF81FFFF800000
FFFF83FFFF000000
FFFF87FFFE000000
FFFF87FFFC000000
FFFF8FFFFC000000
FFFF9FFFF8000000
FFFFBFFFF0000000
FFFFFFFFE0000000
FFFFFFFFF0000000
FFFFFFFFF0000000
FFFFFFFFF8000000
FFFFFFFFFC000000
FFFFFFFFFC000000
FFFFFFFFFE000000
FFFFFFFFFE000000
FFFFFFFFFF000000
FFFFFFFFFF000000
FFFFFFFFFF800000
FFFFFFFFFF800000
FFFFFFFFFFC00000
FFFFFEFFFFE00000
FFFFFC7FFFE00000
FFFFF87FFFF00000
FFFFF03FFFF00000
FFFFE03FFFF80000
FFFFC01FFFF80000
FFFF801FFFFC0000
FFFF800FFFFE0000
FFFF800FFFFE0000
FFFF8007FFFF0000
FFFF8007FFFF0000
FFFF8003FFFF8000
FFFF8003FFFF8000
FFFF8001FFFFC000
FFFF8001FFFFE000
FFFF8000FFFFE000
FFFF80007FFFF000
FFFF80007FFFF000
FFFF80003FFFF800
FFFF80003FFFF800
FFFF80001FFFFC00
FFFF80001FFFFE00
FFFF80000FFFFE00
FFFF80000FFFFF00
FFFF800007FFFF00
FFFF800007FFFF80
FFFF800003FFFF80
FFFF800003FFFFC0
FFFF800001FFFFC0
ENDCHAR
STARTCHAR l
ENCODING 108
SWIDTH 278 0
DWIDTH 33 0
BBX 17 89 8 -1
BITMAP
FFFF80
FFFF80
FFFF80
FFFF80
FFFF80
FFFF80
FFFF80
FFFF80
FFFF80
FFFF80
FFFF80
FFFF80
FFFF80
FFFF80
FFFF80
FFFF80
FFFF80
FFFF80
FFFF80
FFFF80
FFFF80
FFFF80
FFFF80
FFFF80
FFFF80
FFFF80
FFFF80
FFFF80
FFFF80
FFFF80
FFFF80
FFFF80
FFFF80
FFFF80
FFFF80
FFFF80
FFFF80
FFFF80
FFFF80
FFFF80
FFFF80
FFFF80
FFFF80
FFFF80
FFFF80
FFFF80
FFFF80
FFFF80
FFFF80
FFFF80
FFFF80
FFFF80
FFFF80
FFFF80
FFFF80
FFFF80
FFFF80
FFFF80
FFFF80
FFFF80
FFFF80
FFFF80
FFFF80
FFFF80
FFFF80
FFFF80
FFFF80
FFFF80
FFFF80
FFFF80
FFFF80
FFFF80
FFFF80
FFFF80
FFFF80
FFFF80
FFFF80
FFFF80
FFFF80
FFFF80
FFFF80
FFFF80
FFFF80
FFFF80
FFFF80
FFFF80
FFFF80
FFFF80
FFFF80
ENDCHAR
STARTCHAR m
ENCODING 109
SWIDTH 889 0
DWIDTH 107 0
BBX 92 67 7 -1
BITMAP
FFFF803FFF0000003FF80000
FFFF80FFFFE00003FFFF0000
FFFF81FFFFF8000FFFFFC000
FFFF87FFFFFE003FFFFFF000
FFFF8FFFFFFF007FFFFFFC00
FFFF9FFFFFFF80FFFFFFFE00
FFFFBFFFFFFFC1FFFFFFFE00
FFFFFFFFFFFFE3FFFFFFFF00
FFFFFFFFFFFFF7FFFFFFFF80
FFFFFFFFFFFFFFFFFFFFFF80
FFFFFFFFFFFFFFFFFFFFFFC0
FFFFFFFFFFFFFFFFFFFFFFC0
FFFFFFFFFFFFFFFFFFFFFFE0
FFFFFFFFFFFFFFFFFFFFFFE0
FFFFFFC1FFFFFFFE0FFFFFE0
FFFFFE003FFFFFF001FFFFE0
FFFFF8001FFFFFE0007FFFF0
FFFFF0000FFFFFC0007FFFF0
FFFFE00007FFFF80003FFFF0
FFFFE00007FFFF00003FFFF0
FFFFC00007FFFF00001FFFF0
FFFFC00003FFFE00001FFFF0
FFFF800003FFFE00001FFFF0
FFFF800003FFFE00001FFFF0
FFFF800003FFFE00001FFFF0
FFFF800003FFFE00001FFFF0
FFFF800003FFFC00001FFFF0
FFFF800003FFFC00001FFFF0
FFFF800003FFFC00001FFFF0
FFFF800003FFFC00001FFFF0
FFFF800003FFFC00001FFFF0
FFFF800003FFFC00001FFFF0
FFFF800003FFFC00001FFFF0
FFFF800003FFFC00001FFFF0
FFFF800003FFFC00001FFFF0
FFFF800003FFFC00001FFFF0
FFFF800003FFFC00001FFFF0
FFFF800003FFFC00001FFFF0
FFFF800003FFFC00001FFFF0
FFFF800003FFFC00001FFFF0
FFFF800003FFFC00001FFFF0
FFFF800003FFFC00001FFFF0
FFFF800003FFFC00001FFFF0
FFFF800003FFFC00001FFFF0
FFFF800003FFFC00001FFFF0
FFFF800003FFFC00001FFFF0
FFFF800003FFFC00001FFFF0
FFFF800003FFFC00001FFFF0
FFFF800003FFFC00001FFFF0
FFFF800003FFFC00001FFFF0
FFFF800003FFFC00001FFFF0
FFFF800003FFFC00001FFFF0
FFFF800003FFFC00001FFFF0
FFFF800003FFFC00001FFFF0
FFFF800003FFFC00001FFFF0
FFFF800003FFFC00001FFFF0
FFFF800003FFFC00001FFFF0
FFFF800003FFFC00001FFFF0
FFFF800003FFFC00001FFFF0
FFFF800003FFFC00001FFFF0
FFFF800003FFFC00001FFFF0
FFFF800003FFFC00001FFFF0
FFFF800003FFFC00001FFFF0
FFFF800003FFFC00001FFFF0
FFFF800003FFFC00001FFFF0
FFFF800003FFFC00001FFFF0
FFFF800003FFFC00001FFFF0
ENDCHAR
STARTCHAR n
ENCODING 110
SWIDTH 611 0
DWIDTH 73 0
BBX 58 67 8 -1
BITMAP
FFFF0003FF800000
FFFF001FFFF80000
FFFF00FFFFFE0000
FFFF01FFFFFF8000
FFFF07FFFFFFC000
FFFF0FFFFFFFE000
FFFF1FFFFFFFF000
FFFF3FFFFFFFF800
FFFF3FFFFFFFFC00
FFFF7FFFFFFFFE00
FFFFFFFFFFFFFE00
FFFFFFFFFFFFFE00
FFFFFFFFFFFFFF00
FFFFFFFFFFFFFF00
FFFFFFE07FFFFF80
FFFFFF000FFFFF80
FFFFFC0007FFFF80
FFFFF00003FFFF80
FFFFE00001FFFF80
FFFFE00001FFFF80
FFFFC00000FFFF80
FFFF800000FFFF80
FFFF800000FFFFC0
FFFF8000007FFFC0
FFFF8000007FFFC0
FFFF0000007FFFC0
FFFF0000007FFFC0
FFFF0000007FFFC0
FFFF0000007FFFC0
FFFF0000007FFFC0
FFFF0000007FFFC0
FFFF0000007FFFC0
FFFF0000007FFFC0
FFFF0000007FFFC0
FFFF0000007FFFC0
FFFF0000007FFFC0
FFFF0000007FFFC0
FFFF0000007FFFC0
FFFF0000007FFFC0
FFFF0000007FFFC0
FFFF0000007FFFC0
FFFF0000007FFFC0
FFFF0000007FFFC0
FFFF0000007FFFC0
FFFF0000007FFFC0
FFFF0000007FFFC0
FFFF0000007FFFC0
FFFF0000007FFFC0
FFFF0000007FFFC0
FFFF0000007FFFC0
FFFF0000007FFFC0
FFFF0000007FFFC0
FFFF0000007FFFC0
FFFF0000007FFFC0
FFFF0000007FFFC0
FFFF0000007FFFC0
FFFF0000007FFFC0
FFFF0000007FFFC0
FFFF0000007FFFC0
FFFF0000007FFFC0
FFFF0000007FFFC0
FFFF0000007FFFC0
FFFF0000007FFFC0
FFFF0000007FFFC0
FFFF0000007FFFC0
FFFF0000007FFFC0
FFFF0000007FFFC0
ENDCHAR
STARTCHAR o
ENCODING 111
SWIDTH 611 0
DWIDTH 73 0
BBX 64 69 4 -3
BITMAP
0000007FFE000000
000007FFFFE00000
00003FFFFFFC0000
0000FFFFFFFF0000
0003FFFFFFFFC000
0007FFFFFFFFE000
000FFFFFFFFFF800
003FFFFFFFFFFC00
007FFFFFFFFFFE00
00FFFFFFFFFFFF00
00FFFFFFFFFFFF80
01FFFFFFFFFFFFC0
03FFFFFFFFFFFFC0
07FFFFFFFFFFFFE0
07FFFFE007FFFFF0
0FFFFF8001FFFFF0
0FFFFF00007FFFF8
1FFFFE00003FFFF8
1FFFFC00001FFFF8
1FFFF800001FFFFC
3FFFF000000FFFFC
3FFFF0000007FFFC
3FFFE0000007FFFE
7FFFE0000003FFFE
7FFFE0000003FFFE
7FFFC0000003FFFE
7FFFC0000003FFFF
7FFFC0000001FFFF
FFFF80000001FFFF
FFFF80000001FFFF
FFFF80000001FFFF
FFFF80000001FFFF
FFFF80000001FFFF
FFFF80000001FFFF
FFFF80000001FFFF
FFFF80000001FFFF
FFFF80000001FFFF
FFFF80000001FFFF
FFFF80000001FFFF
FFFF80000001FFFF
7FFF80000001FFFF
7FFFC0000001FFFF
7FFFC0000003FFFF
7FFFC0000003FFFF
7FFFC0000003FFFE
7FFFE0000007FFFE
3FFFE0000007FFFE
3FFFF0000007FFFE
3FFFF000000FFFFC
1FFFF800001FFFFC
1FFFFC00001FFFFC
1FFFFE00003FFFF8
0FFFFF0000FFFFF8
0FFFFF8001FFFFF0
07FFFFE007FFFFF0
07FFFFFFFFFFFFE0
03FFFFFFFFFFFFC0
01FFFFFFFFFFFFC0
01FFFFFFFFFFFF80
00FFFFFFFFFFFF00
007FFFFFFFFFFE00
003FFFFFFFFFFC00
000FFFFFFFFFF800
0007FFFFFFFFF000
0003FFFFFFFFC000
0000FFFFFFFF0000
00001FFFFFFC0000
000007FFFFE00000
0000003FFE000000
ENDCHAR
STARTCHAR p
ENCODING 112
SWIDTH 611 0
DWIDTH 73 0
BBX 62 92 7 -26
BITMAP
FFFF8003FF000000
FFFF803FFFE00000
FFFF80FFFFFC0000
FFFF81FFFFFF0000
FFFF83FFFFFF8000
FFFF87FFFFFFE000
FFFF8FFFFFFFF000
FFFF9FFFFFFFF800
FFFFBFFFFFFFFC00
FFFFFFFFFFFFFE00
FFFFFFFFFFFFFF00
FFFFFFFFFFFFFF00
FFFFFFFFFFFFFF80
FFFFFFFFFFFFFF80
FFFFFFF03FFFFFC0
FFFFFF8007FFFFC0
FFFFFF0003FFFFE0
FFFFFC0001FFFFE0
FFFFFC0000FFFFE0
FFFFF800007FFFF0
FFFFF000003FFFF0
FFFFF000003FFFF0
FFFFE000001FFFF0
FFFFE000001FFFF8
FFFFC000001FFFF8
FFFFC000000FFFF8
FFFFC000000FFFF8
FFFF8000000FFFF8
FFFF80000007FFFC
FFFF80000007FFFC
FFFF80000007FFFC
FFFF80000007FFFC
FFFF80000007FFFC
FFFF80000007FFFC
FFFF80000007FFFC
FFFF80000007FFFC
FFFF80000007FFFC
FFFF80000007FFFC
FFFF80000007FFFC
FFFF80000007FFFC
FFFF80000007FFF8
FFFF8000000FFFF8
FFFFC000000FFFF8
FFFFC000000FFFF8
FFFFC000000FFFF8
FFFFE000001FFFF8
FFFFE000001FFFF0
FFFFE000003FFFF0
FFFFF000003FFFF0
FFFFF800007FFFE0
FFFFF80000FFFFE0
FFFFFC0001FFFFE0
FFFFFF0003FFFFC0
FFFFFF8007FFFFC0
FFFFFFF03FFFFF80
FFFFFFFFFFFFFF80
FFFFFFFFFFFFFF00
FFFFFFFFFFFFFE00
FFFFFFFFFFFFFE00
FFFFFFFFFFFFFC00
FFFFBFFFFFFFF800
FFFF9FFFFFFFF000
FFFF8FFFFFFFE000
FFFF8FFFFFFFC000
FFFF83FFFFFF8000
FFFF81FFFFFE0000
FFFF80FFFFF80000
FFFF803FFFE00000
FFFF8007FF000000
FFFF800000000000
FFFF800000000000
FFFF800000000000
FFFF800000000000
FFFF800000000000
FFFF800000000000
FFFF800000000000
FFFF800000000000
FFFF800000000000
FFFF800000000000
FFFF800000000000
FFFF800000000000
FFFF800000000000
FFFF800000000000
FFFF800000000000
FFFF800000000000
FFFF800000000000
FFFF800000000000
FFFF800000000000
FFFF800000000000
FFFF800000000000
FFFF800000000000
FFFF800000000000
ENDCHAR
STARTCHAR q
ENCODING 113
SWIDTH 611 0
DWIDTH 73 0
BBX 62 92 3 -26
BITMAP
000003FF0007FFFC
00001FFFF007FFFC
00007FFFFC07FFFC
0001FFFFFE07FFFC
0007FFFFFF87FFFC
000FFFFFFFC7FFFC
001FFFFFFFE7FFFC
003FFFFFFFF7FFFC
007FFFFFFFFFFFFC
00FFFFFFFFFFFFFC
01FFFFFFFFFFFFFC
01FFFFFFFFFFFFFC
03FFFFFFFFFFFFFC
03FFFFFFFFFFFFFC
07FFFFF01FFFFFFC
0FFFFFC007FFFFFC
0FFFFF0001FFFFFC
0FFFFE0000FFFFFC
1FFFFC00007FFFFC
1FFFF800007FFFFC
3FFFF800003FFFFC
3FFFF000001FFFFC
3FFFF000001FFFFC
3FFFE000000FFFFC
7FFFE000000FFFFC
7FFFC000000FFFFC
7FFFC000000FFFFC
7FFFC0000007FFFC
7FFFC0000007FFFC
7FFF80000007FFFC
FFFF80000007FFFC
FFFF80000007FFFC
FFFF80000007FFFC
FFFF80000007FFFC
FFFF80000007FFFC
FFFF80000007FFFC
FFFF80000007FFFC
FFFF80000007FFFC
FFFF80000007FFFC
7FFF80000007FFFC
7FFFC0000007FFFC
7FFFC0000007FFFC
7FFFC0000007FFFC
7FFFC000000FFFFC
7FFFE000000FFFFC
3FFFE000000FFFFC
3FFFE000001FFFFC
3FFFF000001FFFFC
3FFFF800003FFFFC
1FFFF800007FFFFC
1FFFFC00007FFFFC
1FFFFE0000FFFFFC
0FFFFF0003FFFFFC
0FFFFFC007FFFFFC
07FFFFF01FFFFFFC
07FFFFFFFFFFFFFC
03FFFFFFFFFFFFFC
03FFFFFFFFFFFFFC
01FFFFFFFFFFFFFC
00FFFFFFFFFFFFFC
007FFFFFFFF7FFFC
003FFFFFFFE7FFFC
001FFFFFFFE7FFFC
000FFFFFFFC7FFFC
0007FFFFFF87FFFC
0001FFFFFE07FFFC
00007FFFFC07FFFC
00001FFFF007FFFC
000001FF8007FFFC
000000000007FFFC
000000000007FFFC
000000000007FFFC
000000000007FFFC
000000000007FFFC
000000000007FFFC
000000000007FFFC
000000000007FFFC
000000000007FFFC
000000000007FFFC
000000000007FFFC
000000000007FFFC
000000000007FFFC
000000000007FFFC
000000000007FFFC
000000000007FFFC
000000000007FFFC
000000000007FFFC
000000000007FFFC
000000000007FFFC
000000000007FFFC
000000000007FFFC
000000000007FFFC
ENDCHAR
STARTCHAR r
ENCODING 114
SWIDTH 389 0
DWIDTH 47 0
BBX 36 67 8 -1
BITMAP
FFFF0003F0
FFFF001FF0
FFFF007FF0
FFFF00FFF0
FFFF01FFF0
FFFF03FFF0
FFFF07FFF0
FFFF0FFFF0
FFFF1FFFF0
FFFF1FFFF0
FFFF3FFFF0
FFFF7FFFF0
FFFF7FFFF0
FFFFFFFFF0
FFFFFFFFF0
FFFFFFFFF0
FFFFFFFFF0
FFFFFF8000
FFFFFE0000
FFFFF80000
FFFFF00000
FFFFE00000
FFFFC00000
FFFFC00000
FFFF800000
FFFF800000
FFFF800000
FFFF800000
FFFF800000
FFFF000000
FFFF000000
FFFF000000
FFFF000000
FFFF000000
FFFF000000
FFFF000000
FFFF000000
FFFF000000
FFFF000000
FFFF000000
FFFF000000
FFFF000000
FFFF000000
FFFF000000
FFFF000000
FFFF000000
FFFF000000
FFFF000000
FFFF000000
FFFF000000
FFFF000000
FFFF000000
FFFF000000
FFFF000000
FFFF000000
FFFF000000
FFFF000000
FFFF000000
FFFF000000
FFFF000000
FFFF000000
FFFF000000
FFFF000000
FFFF000000
FFFF000000
FFFF000000
FFFF000000
ENDCHAR
STARTCHAR s
ENCODING 115
SWIDTH 556 0
DWIDTH 67 0
BBX 59 69 3 -3
BITMAP
000001FFF0000000
00003FFFFF800000
0001FFFFFFF00000
0007FFFFFFFC0000
000FFFFFFFFF0000
003FFFFFFFFF8000
007FFFFFFFFFE000
00FFFFFFFFFFF000
01FFFFFFFFFFF800
03FFFFFFFFFFF800
03FFFFFFFFFFFC00
07FFFFFFFFFFFE00
07FFFFFFFFFFFE00
0FFFFFC07FFFFF00
0FFFFE0007FFFF00
1FFFF80003FFFF80
1FFFF00000FFFF80
1FFFF00000FFFF80
1FFFF000007FFF80
1FFFF000007FFF80
1FFFF000007FFFC0
1FFFF000007FFFC0
1FFFF80000000000
1FFFFE0000000000
1FFFFFC000000000
1FFFFFF800000000
1FFFFFFF80000000
0FFFFFFFF0000000
0FFFFFFFFF000000
0FFFFFFFFFE00000
07FFFFFFFFFE0000
03FFFFFFFFFF8000
01FFFFFFFFFFF000
00FFFFFFFFFFF800
007FFFFFFFFFFC00
001FFFFFFFFFFE00
0007FFFFFFFFFF00
0000FFFFFFFFFF80
00001FFFFFFFFF80
000003FFFFFFFFC0
0000003FFFFFFFC0
00000007FFFFFFE0
00000000FFFFFFE0
000000001FFFFFE0
0000000003FFFFE0
0000000000FFFFE0
00000000003FFFE0
FFFF8000003FFFE0
7FFF8000001FFFE0
7FFF8000001FFFE0
7FFFC000003FFFE0
7FFFC000003FFFE0
7FFFE000007FFFE0
7FFFF00000FFFFC0
3FFFFC0003FFFFC0
3FFFFFC03FFFFFC0
1FFFFFFFFFFFFF80
1FFFFFFFFFFFFF80
0FFFFFFFFFFFFF00
0FFFFFFFFFFFFE00
07FFFFFFFFFFFE00
03FFFFFFFFFFFC00
01FFFFFFFFFFF800
00FFFFFFFFFFE000
003FFFFFFFFFC000
000FFFFFFFFF0000
0003FFFFFFFC0000
00003FFFFFE00000
000001FFFE000000
ENDCHAR
STARTCHAR t
ENCODING 116
SWIDTH 333 0
DWIDTH 40 0
BBX 34 84 2 -3
BITMAP
00FFFF8000
00FFFF8000
00FFFF8000
00FFFF8000
00FFFF8000
00FFFF8000
00FFFF8000
00FFFF8000
00FFFF8000
00FFFF8000
00FFFF8000
00FFFF8000
00FFFF8000
00FFFF8000
00FFFF8000
00FFFF8000
00FFFF8000
00FFFF8000
FFFFFFFFC0
FFFFFFFFC0
FFFFFFFFC0
FFFFFFFFC0
FFFFFFFFC0
FFFFFFFFC0
FFFFFFFFC0
FFFFFFFFC0
FFFFFFFFC0
FFFFFFFFC0
FFFFFFFFC0
00FFFF8000
00FFFF8000
00FFFF8000
00FFFF8000
00FFFF8000
00FFFF8000
00FFFF8000
00FFFF8000
00FFFF8000
00FFFF8000
00FFFF8000
00FFFF8000
00FFFF8000
00FFFF8000
00FFFF8000
00FFFF8000
00FFFF8000
00FFFF8000
00FFFF8000
00FFFF8000
00FFFF8000
00FFFF8000
00FFFF8000
00FFFF8000
00FFFF8000
00FFFF8000
00FFFF8000
00FFFF8000
00FFFF8000
00FFFF8000
00FFFF8000
00FFFF8000
00FFFF8000
00FFFF8000
00FFFF8000
00FFFF8000
00FFFF8000
00FFFF8000
00FFFF8000
00FFFF8000
00FFFFC000
00FFFFC000
00FFFFFFC0
00FFFFFFC0
00FFFFFFC0
007FFFFFC0
007FFFFFC0
007FFFFFC0
003FFFFFC0
003FFFFFC0
001FFFFFC0
000FFFFFC0
0003FFFFC0
0000FFFFC0
00001FFE00
ENDCHAR
STARTCHAR u
ENCODING 117
SWIDTH 611 0
DWIDTH 73 0
BBX 58 69 7 -3
BITMAP
FFFF8000007FFFC0
FFFF8000007FFFC0
FFFF8000007FFFC0
FFFF8000007FFFC0
FFFF8000007FFFC0
FFFF8000007FFFC0
FFFF8000007FFFC0
FFFF8000007FFFC0
FFFF8000007FFFC0
FFFF8000007FFFC0
FFFF8000007FFFC0
FFFF8000007FFFC0
FFFF8000007FFFC0
FFFF8000007FFFC0
FFFF8000007FFFC0
FFFF8000007FFFC0
FFFF8000007FFFC0
FFFF8000007FFFC0
FFFF8000007FFFC0
FFFF8000007FFFC0
FFFF8000007FFFC0
FFFF8000007FFFC0
FFFF8000007FFFC0
FFFF8000007FFFC0
FFFF8000007FFFC0
FFFF8000007FFFC0
FFFF8000007FFFC0
FFFF8000007FFFC0
FFFF8000007FFFC0
FFFF8000007FFFC0
FFFF8000007FFFC0
FFFF8000007FFFC0
FFFF8000007FFFC0
FFFF8000007FFFC0
FFFF8000007FFFC0
FFFF8000007FFFC0
FFFF8000007FFFC0
FFFF8000007FFFC0
FFFF8000007FFFC0
FFFF8000007FFFC0
FFFF8000007FFFC0
FFFF8000007FFFC0
FFFF8000007FFFC0
FFFF8000007FFFC0
FFFF8000007FFFC0
FFFF8000007FFFC0
FFFF800000FFFFC0
FFFF800000FFFFC0
FFFFC00001FFFFC0
FFFFC00001FFFFC0
FFFFC00003FFFFC0
FFFFE00007FFFFC0
FFFFF0000FFFFFC0
7FFFFC003FFFFFC0
7FFFFF83FFFFFFC0
7FFFFFFFFFFFFFC0
3FFFFFFFFFFFFFC0
3FFFFFFFFFFFFFC0
3FFFFFFFFFFFFFC0
1FFFFFFFFF7FFFC0
1FFFFFFFFF7FFFC0
0FFFFFFFFE7FFFC0
07FFFFFFFC7FFFC0
03FFFFFFF87FFFC0
01FFFFFFF07FFFC0
00FFFFFFE07FFFC0
003FFFFF807FFFC0
000FFFFE00000000
0000FFE000000000
ENDCHAR
STARTCHAR v
ENCODING 118
SWIDTH 556 0
DWIDTH 67 0
BBX 62 67 2 -1
BITMAP
FFFFC000000FFFFC
FFFFC000000FFFFC
7FFFC000000FFFF8
7FFFC000000FFFF8
7FFFE000001FFFF8
3FFFE000001FFFF0
3FFFE000001FFFF0
3FFFF000001FFFF0
1FFFF000003FFFE0
1FFFF000003FFFE0
1FFFF000003FFFE0
0FFFF800007FFFC0
0FFFF800007FFFC0
0FFFF800007FFFC0
07FFFC00007FFF80
07FFFC0000FFFF80
07FFFC0000FFFF80
03FFFC0000FFFF00
03FFFE0000FFFF00
03FFFE0001FFFF00
01FFFE0001FFFE00
01FFFF0001FFFE00
01FFFF0001FFFE00
00FFFF0003FFFC00
00FFFF0003FFFC00
00FFFF8003FFFC00
007FFF8007FFF800
007FFF8007FFF800
007FFFC007FFF800
003FFFC007FFF000
003FFFC00FFFF000
003FFFC00FFFF000
001FFFE00FFFE000
001FFFE00FFFE000
001FFFE01FFFE000
000FFFF01FFFC000
000FFFF01FFFC000
000FFFF01FFFC000
0007FFF03FFF8000
0007FFF83FFF8000
0007FFF83FFF8000
0003FFF87FFF0000
0003FFFC7FFF0000
0003FFFC7FFF0000
0001FFFC7FFE0000
0001FFFCFFFE0000
0001FFFEFFFE0000
0000FFFEFFFC0000
0000FFFEFFFC0000
0000FFFFFFFC0000
00007FFFFFF80000
00007FFFFFF80000
00007FFFFFF80000
00003FFFFFF00000
00003FFFFFF00000
00003FFFFFF00000
00001FFFFFE00000
00001FFFFFE00000
00001FFFFFE00000
00000FFFFFC00000
00000FFFFFC00000
00000FFFFFC00000
000007FFFF800000
000007FFFF800000
000007FFFF800000
000003FFFF000000
000003FFFF000000
ENDCHAR
STARTCHAR w
ENCODING 119
SWIDTH 778 0
DWIDTH 93 0
BBX 91 67 1 -1
BITMAP
FFFF800007FFFC00007FFFE0
FFFF800007FFFC00007FFFC0
FFFFC00007FFFC00007FFFC0
7FFFC0000FFFFE00007FFFC0
7FFFC0000FFFFE00007FFFC0
7FFFC0000FFFFE0000FFFF80
7FFFC0000FFFFE0000FFFF80
3FFFE0000FFFFF0000FFFF80
3FFFE0001FFFFF0000FFFF80
3FFFE0001FFFFF0000FFFF00
3FFFE0001FFFFF0001FFFF00
1FFFF0001FFFFF0001FFFF00
1FFFF0001FFFFF8001FFFE00
1FFFF0003FFFFF8001FFFE00
0FFFF0003FFFFF8003FFFE00
0FFFF0003FFFFF8003FFFE00
0FFFF8003FFFFF8003FFFC00
0FFFF8007FFFFFC003FFFC00
07FFF8007FFFFFC003FFFC00
07FFF8007FFFFFC007FFFC00
07FFFC007FFBFFC007FFF800
07FFFC007FFBFFC007FFF800
03FFFC00FFFBFFE007FFF800
03FFFC00FFFBFFE007FFF000
03FFFC00FFF3FFE00FFFF000
01FFFE00FFF1FFE00FFFF000
01FFFE00FFF1FFE00FFFF000
01FFFE01FFF1FFF00FFFE000
01FFFE01FFF1FFF00FFFE000
00FFFE01FFE1FFF01FFFE000
00FFFF01FFE0FFF01FFFE000
00FFFF01FFE0FFF01FFFC000
00FFFF03FFE0FFF81FFFC000
007FFF03FFC0FFF83FFFC000
007FFF83FFC0FFF83FFF8000
007FFF83FFC07FF83FFF8000
003FFF87FFC07FFC3FFF8000
003FFF87FFC07FFC3FFF8000
003FFF87FF807FFC7FFF0000
003FFFC7FF807FFC7FFF0000
001FFFC7FF803FFC7FFF0000
001FFFCFFF803FFE7FFF0000
001FFFCFFF003FFE7FFE0000
001FFFEFFF003FFEFFFE0000
000FFFEFFF001FFEFFFE0000
000FFFEFFF001FFEFFFC0000
000FFFFFFF001FFFFFFC0000
0007FFFFFE001FFFFFFC0000
0007FFFFFE001FFFFFFC0000
0007FFFFFE000FFFFFF80000
0007FFFFFE000FFFFFF80000
0003FFFFFC000FFFFFF80000
0003FFFFFC000FFFFFF80000
0003FFFFFC000FFFFFF00000
0003FFFFFC0007FFFFF00000
0001FFFFFC0007FFFFF00000
0001FFFFF80007FFFFE00000
0001FFFFF80007FFFFE00000
0001FFFFF80007FFFFE00000
0000FFFFF80003FFFFE00000
0000FFFFF80003FFFFC00000
0000FFFFF00003FFFFC00000
00007FFFF00003FFFFC00000
00007FFFF00003FFFFC00000
00007FFFF00001FFFF800000
00007FFFE00001FFFF800000
00003FFFE00001FFFF800000
ENDCHAR
STARTCHAR x
ENCODING 120
SWIDTH 556 0
DWIDTH 67 0
BBX 62 67 2 -1
BITMAP
7FFFF800007FFFF8
7FFFF800007FFFF8
3FFFFC0000FFFFF0
1FFFFC0000FFFFE0
1FFFFE0001FFFFE0
0FFFFE0001FFFFC0
07FFFF0003FFFFC0
07FFFF0003FFFF80
03FFFF8007FFFF00
03FFFFC007FFFF00
01FFFFC00FFFFE00
00FFFFE00FFFFC00
00FFFFE01FFFFC00
007FFFF01FFFF800
003FFFF03FFFF800
003FFFF83FFFF000
001FFFF87FFFE000
001FFFFCFFFFE000
000FFFFCFFFFC000
0007FFFFFFFF8000
0007FFFFFFFF8000
0003FFFFFFFF0000
0001FFFFFFFE0000
0001FFFFFFFE0000
0000FFFFFFFC0000
00007FFFFFFC0000
00007FFFFFF80000
00003FFFFFF00000
00003FFFFFF00000
00001FFFFFE00000
00000FFFFFC00000
00000FFFFFC00000
000007FFFF800000
000007FFFF800000
000007FFFF800000
00000FFFFFC00000
00001FFFFFE00000
00001FFFFFE00000
00003FFFFFF00000
00003FFFFFF80000
00007FFFFFF80000
0000FFFFFFFC0000
0000FFFFFFFE0000
0001FFFFFFFE0000
0003FFFFFFFF0000
0003FFFFFFFF0000
0007FFFFFFFF8000
000FFFFCFFFFC000
000FFFFCFFFFC000
001FFFF87FFFE000
003FFFF87FFFF000
003FFFF03FFFF000
007FFFF03FFFF800
007FFFE01FFFFC00
00FFFFE01FFFFC00
01FFFFC00FFFFE00
01FFFFC007FFFE00
03FFFF8007FFFF00
07FFFF8003FFFF80
07FFFF0003FFFF80
0FFFFF0001FFFFC0
1FFFFE0001FFFFE0
1FFFFC0000FFFFE0
3FFFFC0000FFFFF0
7FFFF800007FFFF8
7FFFF800007FFFF8
FFFFF000003FFFFC
ENDCHAR
STARTCHAR y
ENCODING 121
SWIDTH 556 0
DWIDTH 67 0
BBX 63 92 1 -26
BITMAP
FFFFE0000003FFFE
7FFFE0000003FFFE
7FFFE0000003FFFE
7FFFF0000007FFFC
3FFFF0000007FFFC
3FFFF0000007FFFC
3FFFF000000FFFF8
1FFFF800000FFFF8
1FFFF800000FFFF8
1FFFF800000FFFF0
0FFFFC00001FFFF0
0FFFFC00001FFFF0
0FFFFC00001FFFE0
07FFFE00003FFFE0
07FFFE00003FFFE0
03FFFE00003FFFC0
03FFFE00003FFFC0
03FFFF00007FFFC0
01FFFF00007FFF80
01FFFF00007FFF80
01FFFF80007FFF80
00FFFF8000FFFF00
00FFFF8000FFFF00
00FFFFC000FFFF00
007FFFC001FFFE00
007FFFC001FFFE00
007FFFC001FFFC00
003FFFE001FFFC00
003FFFE003FFFC00
003FFFE003FFF800
001FFFF003FFF800
001FFFF007FFF800
001FFFF007FFF000
000FFFF807FFF000
000FFFF807FFF000
0007FFF80FFFE000
0007FFF80FFFE000
0007FFFC0FFFE000
0003FFFC1FFFC000
0003FFFC1FFFC000
0003FFFE1FFFC000
0001FFFE1FFF8000
0001FFFE3FFF8000
0001FFFF3FFF8000
0000FFFF3FFF0000
0000FFFF3FFF0000
0000FFFF7FFF0000
00007FFFFFFE0000
00007FFFFFFE0000
00007FFFFFFE0000
00003FFFFFFC0000
00003FFFFFFC0000
00001FFFFFFC0000
00001FFFFFF80000
00001FFFFFF80000
00000FFFFFF80000
00000FFFFFF00000
00000FFFFFF00000
000007FFFFF00000
000007FFFFE00000
000007FFFFE00000
000003FFFFE00000
000003FFFFC00000
000003FFFFC00000
000001FFFFC00000
000001FFFF800000
000001FFFF800000
000000FFFF000000
000000FFFF000000
000000FFFF000000
000000FFFE000000
000000FFFE000000
000000FFFE000000
000001FFFC000000
000001FFFC000000
000003FFFC000000
000003FFF8000000
000007FFF8000000
00001FFFF8000000
00407FFFF0000000
007FFFFFF0000000
007FFFFFF0000000
007FFFFFE0000000
007FFFFFE0000000
007FFFFFC0000000
007FFFFFC0000000
007FFFFF80000000
007FFFFF00000000
007FFFFE00000000
007FFFF800000000
007FFFE000000000
007FFF0000000000
ENDCHAR
STARTCHAR z
ENCODING 122
SWIDTH 500 0
DWIDTH 60 0
BBX 53 67 3 -1
BITMAP
3FFFFFFFFFFFF0
3FFFFFFFFFFFF0
3FFFFFFFFFFFF0
3FFFFFFFFFFFF0
3FFFFFFFFFFFF0
3FFFFFFFFFFFF0
3FFFFFFFFFFFF0
3FFFFFFFFFFFF0
3FFFFFFFFFFFF0
3FFFFFFFFFFFF0
3FFFFFFFFFFFF0
3FFFFFFFFFFFF0
3FFFFFFFFFFFF0
3FFFFFFFFFFFF0
00000001FFFFE0
00000003FFFFE0
00000007FFFFC0
0000000FFFFF80
0000000FFFFF00
0000001FFFFE00
0000003FFFFE00
0000007FFFFC00
000000FFFFF800
000000FFFFF000
000001FFFFE000
000003FFFFE000
000007FFFFC000
00000FFFFF8000
00000FFFFF0000
00001FFFFE0000
00003FFFFE0000
00007FFFFC0000
0000FFFFF80000
0000FFFFF00000
0001FFFFE00000
0003FFFFE00000
0007FFFFC00000
000FFFFF800000
000FFFFF000000
001FFFFE000000
003FFFFE000000
007FFFFC000000
00FFFFF8000000
01FFFFF0000000
01FFFFE0000000
03FFFFE0000000
07FFFFC0000000
0FFFFF80000000
1FFFFF00000000
1FFFFE00000000
3FFFFE00000000
7FFFFC00000000
FFFFF800000000
FFFFFFFFFFFFF8
FFFFFFFFFFFFF8
FFFFFFFFFFFFF8
FFFFFFFFFFFFF8
FFFFFFFFFFFFF8
FFFFFFFFFFFFF8
FFFFFFFFFFFFF8
FFFFFFFFFFFFF8
FFFFFFFFFFFFF8
FFFFFFFFFFFFF8
FFFFFFFFFFFFF8
FFFFFFFFFFFFF8
FFFFFFFFFFFFF8
FFFFFFFFFFFFF8
ENDCHAR
STARTCHAR braceleft
ENCODING 123
SWIDTH 389 0
DWIDTH 47 0
BBX 34 112 4 -24
BITMAP
000007FFC0
00003FFFC0
00007FFFC0
0001FFFFC0
0003FFFFC0
0003FFFFC0
0007FFFFC0
000FFFFFC0
000FFFFFC0
001FFFFFC0
001FFFFFC0
001FFFFFC0
001FFFE000
003FFFC000
003FFF8000
003FFF8000
003FFF0000
003FFF0000
003FFF0000
003FFF0000
003FFF0000
003FFF0000
003FFF0000
003FFF0000
003FFF0000
003FFF0000
003FFF0000
003FFF0000
003FFF0000
003FFF0000
003FFF0000
003FFF0000
003FFF0000
003FFF0000
003FFF0000
003FFF0000
003FFF0000
003FFF0000
003FFF0000
003FFF0000
003FFF0000
003FFF0000
003FFF0000
003FFF0000
003FFF0000
003FFF0000
007FFF0000
007FFF0000
00FFFE0000
03FFFE0000
FFFFFE0000
FFFFFC0000
FFFFF80000
FFFFE00000
FFFF800000
FFF8000000
FFFF800000
FFFFE00000
FFFFF80000
FFFFFC0000
FFFFFC0000
03FFFE0000
00FFFE0000
007FFF0000
007FFF0000
003FFF0000
003FFF0000
003FFF0000
003FFF0000
003FFF0000
003FFF0000
003FFF0000
003FFF0000
003FFF0000
003FFF0000
003FFF0000
003FFF0000
003FFF0000
003FFF0000
003FFF0000
003FFF0000
003FFF0000
003FFF0000
003FFF0000
003FFF0000
003FFF0000
003FFF0000
003FFF0000
003FFF0000
003FFF0000
003FFF0000
003FFF0000
003FFF0000
003FFF0000
003FFF0000
003FFF0000
003FFF8000
003FFF8000
003FFFC000
003FFFE000
001FFFFFC0
001FFFFFC0
001FFFFFC0
000FFFFFC0
000FFFFFC0
0007FFFFC0
0003FFFFC0
0003FFFFC0
0001FFFFC0
00007FFFC0
00003FFFC0
000007FFC0
ENDCHAR
STARTCHAR bar
ENCODING 124
SWIDTH 280 0
DWIDTH 34 0
BBX 10 111 12 -23
BITMAP
FFC0
FFC0
FFC0
FFC0
FFC0
FFC0
FFC0
FFC0
FFC0
FFC0
FFC0
FFC0
FFC0
FFC0
FFC0
FFC0
FFC0
FFC0
FFC0
FFC0
FFC0
FFC0
FFC0
FFC0
FFC0
FFC0
FFC0
FFC0
FFC0
FFC0
FFC0
FFC0
FFC0
FFC0
FFC0
FFC0
FFC0
FFC0
FFC0
FFC0
FFC0
FFC0
FFC0
FFC0
FFC0
FFC0
FFC0
FFC0
FFC0
FFC0
FFC0
FFC0
FFC0
FFC0
FFC0
FFC0
FFC0
FFC0
FFC0
FFC0
FFC0
FFC0
FFC0
FFC0
FFC0
FFC0
FFC0
FFC0
FFC0
FFC0
FFC0
FFC0
FFC0
FFC0
FFC0
FFC0
FFC0
FFC0
FFC0
FFC0
FFC0
FFC0
FFC0
FFC0
FFC0
FFC0
FFC0
FFC0
FFC0
FFC0
FFC0
FFC0
FFC0
FFC0
FFC0
FFC0
FFC0
FFC0
FFC0
FFC0
FFC0
FFC0
FFC0
FFC0
FFC0
FFC0
FFC0
FFC0
FFC0
FFC0
FFC0
ENDCHAR
STARTCHAR braceright
ENCODING 125
SWIDTH 389 0
DWIDTH 47 0
BBX 33 112 9 -24
BITMAP
FFF8000000
FFFE000000
FFFF800000
FFFFC00000
FFFFE00000
FFFFF00000
FFFFF80000
FFFFF80000
FFFFFC0000
FFFFFC0000
FFFFFE0000
FFFFFE0000
01FFFE0000
00FFFE0000
007FFE0000
007FFE0000
007FFF0000
007FFF0000
007FFF0000
007FFF0000
007FFF0000
007FFF0000
007FFF0000
007FFF0000
007FFF0000
007FFF0000
007FFF0000
007FFF0000
007FFF0000
007FFF0000
007FFF0000
007FFF0000
007FFF0000
007FFF0000
007FFF0000
007FFF0000
007FFF0000
007FFF0000
007FFF0000
007FFF0000
007FFF0000
007FFF0000
007FFF0000
007FFF0000
007FFF0000
003FFF0000
003FFF0000
003FFF0000
003FFF8000
003FFFC000
001FFFF000
001FFFFF80
000FFFFF80
0007FFFF80
0003FFFF80
0000FFFF80
000007FF80
0000FFFF80
0003FFFF80
0007FFFF80
000FFFFF80
001FFFFF80
001FFFF000
003FFFC000
003FFF8000
003FFF0000
003FFF0000
003FFF0000
007FFF0000
007FFF0000
007FFF0000
007FFF0000
007FFF0000
007FFF0000
007FFF0000
007FFF0000
007FFF0000
007FFF0000
007FFF0000
007FFF0000
007FFF0000
007FFF0000
007FFF0000
007FFF0000
007FFF0000
007FFF0000
007FFF0000
007FFF0000
007FFF0000
007FFF0000
007FFF0000
007FFF0000
007FFF0000
007FFF0000
007FFF0000
007FFF0000
007FFE0000
007FFE0000
00FFFE0000
01FFFE0000
FFFFFE0000
FFFFFE0000
FFFFFC0000
FFFFFC0000
FFFFF80000
FFFFF80000
FFFFF00000
FFFFE00000
FFFFC00000
FFFF800000
FFFE000000
FFF8000000
ENDCHAR
STARTCHAR asciitilde
ENCODING 126
SWIDTH 584 0
DWIDTH 70 0
BBX 55 21 7 32
BITMAP
0007C000000000
007FFC00000000
01FFFF00000000
03FFFFC0000000
07FFFFE00003FE
0FFFFFF00003FE
1FFFFFFC0003FE
1FFFFFFE0003FE
3FFFFFFF0007FE
3FFFFFFFC00FFC
7FF81FFFE01FFC
7FE007FFFFFFFC
7FE001FFFFFFF8
7FC000FFFFFFF8
FFC0007FFFFFF0
FFC0001FFFFFF0
FFC0000FFFFFE0
FFC00003FFFFC0
00000001FFFF80
000000007FFE00
000000001FF800
ENDCHAR
ENDFONT
